<?xml version="1.0" encoding="UTF-8"?>
<!-- Generated by Pixelmator Pro 3.6.8 -->
<svg width="512" height="512" viewBox="0 0 512 512" xmlns="http://www.w3.org/2000/svg">
    <g id="Group">
        <g id="g1">
            <g id="g2">
                <path id="Path" fill="#ff6f3c" stroke="none" d="M 366 396 C 360.480011 396 356 400.480011 356 406 C 356 411.519989 360.480011 416 366 416 C 371.519989 416 376 411.519989 376 406 C 376 400.480011 371.519989 396 366 396 Z"/>
            </g>
        </g>
        <g id="g3">
            <g id="g4">
                <path id="path1" fill="#ff6f3c" stroke="none" d="M 390.622009 363.662994 L 343.09201 347.822998 L 326.028992 313.696014 C 341.401001 298.049988 352.074005 277.347992 355.673004 255.755005 L 357.800995 243 L 376 243 C 392.541992 243 406 229.541992 406 213 L 406 150 C 406 67.290009 338.709991 0 256 0 C 173.078003 0 106 67.096985 106 150 L 106 213 C 106 226.036011 114.361 237.151978 126 241.279999 L 126 253 C 126 269.541992 139.457993 283 156 283 L 164.781998 283 C 169.117004 292.416992 174.727997 301.139008 181.556 308.973999 C 182.972 310.60199 184.449005 312.179993 185.962006 313.714996 L 168.908005 347.822998 L 121.376999 363.664001 C 66.112 382.09201 26 440.270996 26 502 C 26 507.52301 30.476999 512 36 512 L 476 512 C 481.522003 512 486 507.52301 486 502 C 486 440.270996 445.889008 382.09201 390.622009 363.662994 Z M 386 213 C 386 218.514008 381.514008 223 376 223 L 360.738007 223 C 363.279999 203.309998 364.973999 182.356995 365.654999 161.720001 C 365.674988 161.138 365.69101 160.572021 365.709015 160 L 386 160 L 386 213 Z M 136 223 C 130.485992 223 126 218.514008 126 213 L 126 160 L 146.298004 160 C 146.330994 161.042999 146.365997 162.091003 146.404999 163.145996 C 146.406006 163.182007 146.408005 163.21698 146.408997 163.252991 C 146.408997 163.255981 146.408997 163.259003 146.408997 163.261993 C 147.108994 183.333984 148.781006 203.742981 151.264999 222.998993 L 136 222.998993 L 136 223 Z M 156 263 C 150.485992 263 146 258.514008 146 253 L 146 243 L 154.197998 243 L 156.326004 255.759003 C 156.731995 258.18399 157.231003 260.600006 157.807999 263 L 156 263 Z M 146.016998 140 L 126.379997 140 C 131.445007 72.979004 187.376999 20 256 20 C 324.317993 20 380.496002 72.971985 385.618988 140 L 365.984009 140 C 365.264008 84.77301 320.290985 40 264.950989 40 L 247.050995 40 C 191.712006 40 146.735992 84.77301 146.016998 140 Z M 247.050003 60 L 264.950012 60 C 309.759003 60 346.026001 96.651001 346 141.410004 C 346 144.557007 345.975006 147.296997 345.921997 149.789978 C 345.921997 149.822021 345.92099 149.85498 345.92099 149.888 L 333.412994 148.101013 C 299.433014 143.248993 267.348999 127.207001 243.070999 102.929016 C 241.195007 101.054016 238.651993 100 236 100 C 209.143997 100 183.436005 112.235992 166.442001 132.90802 C 170.630005 92.188995 205.052994 60 247.050003 60 Z M 178.539993 263 C 173.533997 246.346985 167.806 197.346985 166.539993 165.947021 L 179.998993 148.001007 C 192.360001 131.524994 211.591003 121.287994 232.048004 120.113007 C 258.964996 145.729004 293.786987 162.64502 330.584991 167.898987 L 345.307007 170.002991 C 344.322998 190.888 342.312012 211.846008 339.431 231.121002 C 339.429993 231.127014 339.428986 231.134003 339.428009 231.140991 C 338.511993 237.338013 337.790009 241.325989 335.946014 252.464996 C 330.649994 284.230011 306.947998 312.954987 275.658997 320.778015 C 262.782013 323.993011 249.216003 323.992004 236.345993 320.778015 C 216.809006 315.894012 198.895004 302.376007 187.334 283 L 207.720001 283 C 211.848007 294.639008 222.962997 303 236 303 L 256 303 C 272.575012 303 286 289.575989 286 273 C 286 256.458008 272.541992 243 256 243 L 236 243 C 222.673004 243 211.722 251.608002 207.703003 263 L 178.539993 263 Z M 235.158997 341.015991 C 242.018005 342.460999 249.011002 343.200012 256 343.200012 C 261.471008 343.200012 266.942993 342.742004 272.352997 341.854004 L 254.682999 360.540985 L 235.158997 341.015991 Z M 240.934998 375.07901 L 209.216995 408.621002 C 200.485001 391.907013 192.981995 374.511993 186.828003 356.70401 L 198.738998 332.881989 L 240.934998 375.07901 Z M 311.56601 329.493988 L 325.170013 356.703003 C 319.006012 374.540985 311.501007 391.941986 302.778015 408.635986 L 268.829987 374.687988 L 311.56601 329.493988 Z M 226 273 C 226 267.479004 230.477997 263 236 263 L 256 263 C 261.514008 263 266 267.485992 266 273 C 266 278.522003 261.520996 283 256 283 L 236 283 C 230.485992 283 226 278.514008 226 273 Z M 46.400002 492 C 50.362999 442.460999 83.332001 397.433014 127.702003 382.636993 L 169.796005 368.609009 C 177.507996 389.93399 187.061996 410.661011 198.259003 430.348999 C 198.278 430.382996 198.296005 430.416992 198.315002 430.450012 C 198.315002 430.450989 198.315994 430.450989 198.315994 430.451996 C 206.496994 444.841003 215.705002 458.902008 225.688004 472.251007 L 237.990005 492 L 46.400002 492 Z M 256 483.085999 L 242.438004 461.312988 C 242.285995 461.069 242.123993 460.832001 241.951996 460.60199 C 233.854004 449.799988 226.300003 438.502991 219.419998 426.940002 L 255.082993 389.226013 L 292.661011 426.803986 C 285.734985 438.450989 278.154999 449.795013 270.049988 460.600006 C 269.559998 461.252991 270.255005 460.223999 256 483.085999 Z M 274.01001 492 L 286.311005 472.252014 C 296.338013 458.85199 305.612 444.678009 313.875 430.119995 C 313.924988 430.032013 313.971985 429.941986 314.022003 429.854004 C 314.028015 429.842987 314.033997 429.833008 314.040009 429.821991 C 325.095001 410.321991 334.549011 389.774994 342.20401 368.609009 L 384.296997 382.636993 C 428.667999 397.433014 461.636993 442.460999 465.600006 492 L 274.01001 492 Z"/>
            </g>
        </g>
        <g id="g5">
            <g id="g6">
                <path id="path2" fill="#ff6f3c" stroke="none" d="M 435.54599 451.531006 C 428.863007 438.153992 419.074005 426.269989 407.237 417.164001 C 402.859009 413.795013 396.580994 414.614014 393.213989 418.992004 C 389.846008 423.369995 390.665009 429.64801 395.041992 433.015991 C 404.496002 440.289001 412.313995 449.782013 417.653015 460.468994 C 420.126007 465.417999 426.135986 467.410004 431.067993 464.946014 C 436.007996 462.477997 438.013 456.471985 435.54599 451.531006 Z"/>
            </g>
        </g>
    </g>
</svg>
