<?xml version="1.0" encoding="UTF-8"?>
<!-- Generated by Pixelmator Pro 3.6.8 -->
<svg width="4608" height="4608" viewBox="0 0 4608 4608" xmlns="http://www.w3.org/2000/svg">
    <path id="Path" fill="#ff6f3c" stroke="none" d="M 3115.439941 3051.566895 C 3115.439941 3084.947998 3088.278076 3112.110107 3054.897217 3112.110107 C 3021.516113 3112.110107 2994.354004 3084.947998 2994.354004 3051.566895 C 2994.354004 3018.186035 3021.516113 2991.023926 3054.897217 2991.023926 C 3088.278076 2991.023926 3115.439941 3018.186035 3115.439941 3051.566895 Z M 1101.753052 1333.691895 C 965.38501 1333.691895 854.442017 1444.63501 854.442017 1581.00293 C 854.442017 1717.371094 965.38501 1828.313965 1101.753052 1828.313965 C 1238.120972 1828.313965 1349.063965 1717.371094 1349.063965 1581.00293 C 1349.063965 1444.63501 1238.130127 1333.691895 1101.753052 1333.691895 Z M 483.84903 1333.691895 C 347.481018 1333.691895 236.537994 1444.63501 236.537994 1581.00293 C 236.537994 1717.371094 347.481018 1828.313965 483.84903 1828.313965 C 620.217041 1828.313965 731.159973 1717.371094 731.159973 1581.00293 C 731.159973 1444.63501 620.226013 1333.691895 483.84903 1333.691895 Z M 483.84903 2005.505859 C 347.481018 2005.505859 236.537994 2116.457764 236.537994 2252.825928 C 236.537994 2389.194092 347.481018 2500.136963 483.84903 2500.136963 C 620.217041 2500.136963 731.159973 2389.194092 731.159973 2252.825928 C 731.159973 2116.457764 620.226013 2005.505859 483.84903 2005.505859 Z M 483.84903 2677.328857 C 347.481018 2677.328857 236.537994 2788.271973 236.537994 2924.639893 C 236.537994 3061.007813 347.481018 3171.950928 483.84903 3171.950928 C 620.217041 3171.950928 731.159973 3061.007813 731.159973 2924.639893 C 731.159973 2788.271973 620.226013 2677.328857 483.84903 2677.328857 Z M 1101.753052 2005.505859 C 965.38501 2005.505859 854.442017 2116.457764 854.442017 2252.825928 C 854.442017 2389.194092 965.38501 2500.136963 1101.753052 2500.136963 C 1238.120972 2500.136963 1349.063965 2389.194092 1349.063965 2252.825928 C 1349.063965 2116.457764 1238.130127 2005.505859 1101.753052 2005.505859 Z M 1538.450928 3536.243896 C 1538.450928 3573.530762 1508.229004 3603.743896 1470.950928 3603.743896 L 207.990005 3603.743896 C 98.262001 3603.743896 8.991 3514.473145 8.991 3404.744873 L 8.991 490.554199 C 8.991 380.826172 98.262001 291.554688 207.990005 291.554688 L 436.734009 291.554688 L 436.734009 215.990723 C 436.734009 103.688965 528.092957 12.330078 640.385986 12.330078 C 752.688049 12.330078 844.046997 103.688965 844.046997 215.990723 L 844.046997 291.554688 L 1156.248047 291.554688 L 1156.248047 215.990723 C 1156.248047 103.688965 1247.607056 12.330078 1359.908936 12.330078 C 1472.202026 12.330078 1563.561035 103.688965 1563.561035 215.990723 L 1563.561035 291.554688 L 1875.771118 291.554688 L 1875.771118 215.990723 C 1875.771118 103.688965 1967.130127 12.330078 2079.423096 12.330078 C 2191.716064 12.330078 2283.074951 103.688965 2283.074951 215.990723 L 2283.074951 291.554688 L 2595.284912 291.554688 L 2595.284912 215.990723 C 2595.284912 103.688965 2686.644043 12.330078 2798.937012 12.330078 C 2911.239014 12.330078 3002.589111 103.688965 3002.589111 215.990723 L 3002.589111 291.554688 L 3231.333008 291.554688 C 3341.061035 291.554688 3430.332031 380.826172 3430.332031 490.554199 L 3430.332031 1415.403076 C 3430.332031 1452.689941 3400.110107 1482.903076 3362.832031 1482.903076 C 3325.554199 1482.903076 3295.332031 1452.689941 3295.332031 1415.403076 L 3295.332031 1036.898926 L 143.990997 1036.898926 L 143.990997 3404.744873 C 143.990997 3440.03418 172.700989 3468.743896 207.990005 3468.743896 L 1470.950928 3468.743896 C 1508.229004 3468.743896 1538.450928 3498.957031 1538.450928 3536.243896 Z M 143.990997 901.898926 L 3295.322998 901.898926 L 3295.322998 490.554199 C 3295.322998 455.265137 3266.613037 426.554688 3231.324219 426.554688 L 3002.580078 426.554688 L 3002.580078 502.12793 C 3002.580078 614.429932 2911.220947 705.788818 2798.927979 705.788818 C 2686.635254 705.788818 2595.276123 614.429932 2595.276123 502.12793 L 2595.276123 426.554688 L 2283.065918 426.554688 L 2283.065918 502.12793 C 2283.065918 614.429932 2191.707031 705.788818 2079.414063 705.788818 C 1967.111938 705.788818 1875.761963 614.429932 1875.761963 502.12793 L 1875.761963 426.554688 L 1563.552002 426.554688 L 1563.552002 502.12793 C 1563.552002 614.429932 1472.192993 705.788818 1359.900024 705.788818 C 1247.5979 705.788818 1156.238892 614.429932 1156.238892 502.12793 L 1156.238892 426.554688 L 844.037964 426.554688 L 844.037964 502.12793 C 844.037964 614.429932 752.678955 705.788818 640.377014 705.788818 C 528.083984 705.788818 436.725006 614.429932 436.725006 502.12793 L 436.725006 426.554688 L 207.990005 426.554688 C 172.700989 426.554688 143.990997 455.265137 143.990997 490.554199 Z M 1101.753052 2677.328857 C 965.38501 2677.328857 854.442017 2788.271973 854.442017 2924.639893 C 854.442017 3061.007813 965.38501 3171.950928 1101.753052 3171.950928 C 1238.120972 3171.950928 1349.063965 3061.007813 1349.063965 2924.639893 C 1349.063965 2788.271973 1238.130127 2677.328857 1101.753052 2677.328857 Z M 2267.559082 4126.751953 C 1926.117065 3876.26416 1722.26709 3474.333008 1722.26709 3051.566895 C 1722.26709 2912.381836 1743.371948 2776.679932 1784.988037 2646.440918 L 1805.049072 2695.320068 C 1815.759033 2721.419922 1840.950073 2737.206055 1867.517944 2737.206055 C 1876.049927 2737.206055 1884.734985 2735.567871 1893.123047 2732.13916 C 1927.610962 2717.981934 1944.089966 2678.552979 1929.932983 2644.064941 L 1845.774048 2439.044922 C 1831.617065 2404.557129 1792.170044 2388.086914 1757.700073 2402.226074 L 1552.671021 2486.38501 C 1518.182983 2500.541992 1501.694946 2539.970947 1515.851929 2574.458984 C 1530.009033 2608.937988 1569.420044 2625.398926 1603.934937 2611.277832 L 1662.291016 2587.320068 C 1612.511963 2736.296875 1587.248901 2891.871094 1587.248901 3051.566895 C 1587.248901 3285.927002 1643.876953 3519.071777 1751.004028 3725.792969 C 1854.630127 3925.755127 2005.63208 4102.046875 2187.692871 4235.606934 C 2199.726074 4244.426758 2213.711914 4248.684082 2227.572021 4248.684082 C 2248.334961 4248.684082 2268.827881 4239.125977 2282.049072 4221.10791 C 2304.116943 4191.047852 2297.618896 4148.801758 2267.559082 4126.751953 Z M 1966.968018 1581.00293 C 1966.968018 1444.63501 1856.025024 1333.691895 1719.656982 1333.691895 C 1583.289063 1333.691895 1472.345947 1444.63501 1472.345947 1581.00293 C 1472.345947 1717.371094 1583.289063 1828.313965 1719.656982 1828.313965 C 1856.025024 1828.313965 1966.968018 1717.371094 1966.968018 1581.00293 Z M 4224.465332 3824.477783 C 4194.405273 3802.418945 4152.167969 3808.916992 4130.108887 3838.968018 C 3879.647949 4180.374023 3477.699219 4384.196777 3054.906006 4384.196777 C 2915.676025 4384.196777 2779.973877 4363.091797 2649.770996 4321.476074 L 2698.65918 4301.405762 C 2733.147217 4287.249023 2749.625977 4247.820313 2735.468994 4213.332031 C 2721.312012 4178.844238 2681.883057 4162.374023 2647.385986 4176.513184 L 2442.356934 4260.671875 C 2407.868896 4274.829102 2391.389893 4314.257813 2405.546875 4348.746094 L 2489.706055 4553.774902 C 2500.416016 4579.875 2525.606934 4595.661133 2552.175049 4595.661133 C 2560.707031 4595.661133 2569.39209 4594.022949 2577.780029 4590.594238 C 2612.268066 4576.437012 2628.756104 4537.007813 2614.598877 4502.52002 L 2590.65918 4444.199707 C 2739.599854 4493.960938 2895.156006 4519.196777 3054.897217 4519.196777 C 3289.256836 4519.196777 3522.401855 4462.578125 3729.131836 4355.478027 C 3929.112061 4251.852051 4105.404297 4100.868164 4238.955078 3918.824951 C 4261.01416 3888.773926 4254.516113 3846.537109 4224.465332 3824.477783 Z M 4593.933105 3528.683838 C 4579.785156 3494.187012 4540.355957 3477.708008 4505.858887 3491.864746 L 4447.547852 3515.804932 C 4497.309082 3366.872803 4522.544922 3211.308105 4522.544922 3051.566895 C 4522.544922 2817.207031 4465.925781 2584.062012 4358.816895 2377.332031 C 4255.199707 2177.351807 4104.207031 2001.060059 3922.173096 1867.518066 C 3892.113037 1845.458984 3849.875977 1851.957031 3827.816895 1882.008057 C 3805.76709 1912.067871 3812.256104 1954.305176 3842.316162 1976.35498 C 4183.722168 2226.824951 4387.554199 2628.773926 4387.554199 3051.566895 C 4387.554199 3190.796875 4366.449219 3326.499023 4324.833008 3456.710938 L 4304.763184 3407.813965 C 4290.605957 3373.325928 4251.15918 3356.855957 4216.688965 3370.994873 C 4182.201172 3385.151855 4165.712891 3424.581055 4179.870117 3459.068848 L 4264.029297 3664.098145 C 4270.824219 3680.666992 4283.928223 3693.843018 4300.442871 3700.746094 C 4308.768066 3704.229004 4317.614746 3705.96582 4326.471191 3705.96582 C 4335.183105 3705.96582 4343.89502 3704.273926 4352.103027 3700.907959 L 4557.131836 3616.739746 C 4591.61084 3602.601074 4608.090332 3563.163086 4593.933105 3528.683838 Z M 3519.135254 1658.906982 C 3370.185059 1609.154785 3214.619873 1583.927979 3054.906006 1583.927979 C 2820.546143 1583.927979 2587.401123 1640.555908 2380.679932 1747.683105 C 2180.718018 1851.308838 2004.426025 2002.311035 1870.875 2184.37207 C 1848.825073 2214.432129 1855.313965 2256.677979 1885.373901 2278.71875 C 1897.406982 2287.547852 1911.392944 2291.805176 1925.253052 2291.805176 C 1946.015991 2291.805176 1966.509033 2282.24707 1979.72998 2264.229004 C 2230.218018 1922.787109 2632.148926 1718.927979 3054.906006 1718.927979 C 3194.127197 1718.927979 3329.837891 1740.032959 3460.067871 1781.640137 L 3411.144043 1801.71875 C 3376.656006 1815.875977 3360.167969 1855.305176 3374.324951 1889.792969 C 3385.034912 1915.893066 3410.226074 1931.678711 3436.793945 1931.678711 C 3445.325928 1931.678711 3454.010986 1930.041016 3462.398926 1926.611816 L 3667.427979 1842.452881 C 3683.988037 1835.648926 3697.173096 1822.553711 3704.075928 1806.039063 C 3710.979004 1789.515137 3711.032959 1770.938965 3704.24707 1754.378906 L 3620.087891 1549.349854 C 3605.930908 1514.861816 3566.502197 1498.383057 3532.005127 1512.53125 C 3497.51709 1526.688232 3481.038086 1566.116943 3495.195068 1600.60498 Z M 3054.906006 1960.308105 C 3656.618896 1960.308105 4146.155762 2449.844971 4146.155762 3051.566895 C 4146.155762 3653.280029 3656.618896 4142.816895 3054.906006 4142.816895 C 2453.183838 4142.816895 1963.656006 3653.280029 1963.656006 3051.566895 C 1963.646973 2449.844971 2453.183838 1960.308105 3054.906006 1960.308105 Z M 3054.906006 2095.308105 C 2527.622803 2095.308105 2098.656006 2524.28418 2098.656006 3051.566895 C 2098.656006 3578.850098 2527.631836 4007.816895 3054.906006 4007.816895 C 3582.179932 4007.816895 4011.156006 3578.850098 4011.156006 3051.566895 C 4011.156006 2524.28418 3582.179932 2095.308105 3054.906006 2095.308105 Z M 3054.906006 2183.03125 C 3533.822998 2183.03125 3923.441895 2572.65918 3923.441895 3051.575928 C 3923.441895 3530.493164 3533.813965 3920.121094 3054.906006 3920.121094 C 2575.997803 3920.121094 2186.369873 3530.493164 2186.369873 3051.575928 C 2186.369873 2572.65918 2575.989014 2183.03125 3054.906006 2183.03125 Z M 3250.439941 3051.566895 C 3250.439941 2967.461914 3197.061035 2895.587891 3122.397217 2868.047852 L 3122.397217 2522.790039 C 3122.397217 2485.50293 3092.175049 2455.290039 3054.897217 2455.290039 C 3017.618896 2455.290039 2987.397217 2485.50293 2987.397217 2522.790039 L 2987.397217 2868.057129 C 2912.741943 2895.605957 2859.354004 2967.470947 2859.354004 3051.575928 C 2859.354004 3080.844238 2865.86084 3108.608887 2877.444092 3133.565918 L 2658.032959 3352.977051 C 2631.671875 3379.337891 2631.671875 3422.078857 2658.032959 3448.430908 C 2671.218018 3461.615967 2688.489014 3468.203857 2705.769043 3468.203857 C 2723.049072 3468.203857 2740.320068 3461.615967 2753.496094 3448.439941 L 2972.916016 3229.02002 C 2997.872803 3240.594238 3025.638184 3247.110107 3054.906006 3247.110107 C 3162.717041 3247.110107 3250.439941 3159.395996 3250.439941 3051.566895 Z"/>
</svg>
