<?xml version="1.0" encoding="UTF-8"?>
<!-- Generated by Pixelmator Pro 3.6.8 -->
<svg width="512" height="512" viewBox="0 0 512 512" xmlns="http://www.w3.org/2000/svg">
    <g id="Group">
        <path id="Path" fill="#ff6f3c" stroke="none" d="M 64 320 C 64 325.891052 59.224369 330.666687 53.333332 330.666687 C 47.442295 330.666687 42.666668 325.891052 42.666668 320 C 42.666668 314.108948 47.442295 309.333313 53.333332 309.333313 C 59.224369 309.333313 64 314.108948 64 320 Z"/>
        <path id="path1" fill="#ff6f3c" stroke="none" d="M 266.666656 192 C 230.728104 192.028809 197.808701 212.107147 181.333328 244.046844 C 161.049469 204.654877 116.439644 184.263947 73.37899 194.701355 C 30.318346 205.138763 -0.00396 243.692444 0 288 C 0 292.598938 1.994667 401.828156 175.682236 510.380157 C 179.140091 512.539978 183.526566 512.539978 186.984436 510.380157 C 360.671997 401.828156 362.666656 292.598938 362.666656 288 C 362.605133 235.006195 319.660492 192.061554 266.666656 192 Z M 181.333328 488.713501 C 24.255255 388.255249 21.344 288.947937 21.333334 288 C 21.333334 246.762726 54.762741 213.333344 96 213.333344 C 137.237259 213.333344 170.666672 246.762726 170.666672 288 C 170.666672 293.891052 175.442307 298.666687 181.333328 298.666687 C 187.224365 298.666687 192 293.891052 192 288 C 191.984192 246.762726 225.400757 213.320526 266.638031 213.304688 C 307.875275 213.288879 341.317535 246.705475 341.333344 287.942749 C 341.322662 288.942749 338.411407 388.255249 181.333328 488.713501 Z"/>
        <path id="path2" fill="#ff6f3c" stroke="none" d="M 96 234.666656 C 66.559143 234.701233 42.701229 258.559143 42.666668 288 C 42.666668 293.891052 47.442295 298.666687 53.333332 298.666687 C 59.224369 298.666687 64 293.891052 64 288 C 64.019279 270.3349 78.334877 256.019287 96 256 C 101.891045 256 106.666664 251.224365 106.666664 245.333344 C 106.666664 239.442291 101.891045 234.666656 96 234.666656 Z"/>
        <path id="path3" fill="#ff6f3c" stroke="none" d="M 213.333328 128 C 213.333328 133.891052 208.557693 138.666656 202.666672 138.666656 C 196.775635 138.666656 192 133.891052 192 128 C 192 122.108948 196.775635 117.333344 202.666672 117.333344 C 208.557693 117.333344 213.333328 122.108948 213.333328 128 Z"/>
        <path id="path4" fill="#ff6f3c" stroke="none" d="M 512 96 C 512.003967 51.692444 481.681641 13.138763 438.621002 2.701355 C 395.560333 -7.736084 350.950531 12.654907 330.666656 52.046814 C 310.391296 12.671265 265.808502 -7.721252 222.760391 2.689606 C 179.712296 13.100494 149.375015 51.611938 149.333328 95.901001 C 149.317764 97.469025 149.369812 134.869751 183.036484 187.109344 C 186.231384 192.047516 192.821426 193.46637 197.765457 190.280487 C 202.709488 187.094604 204.140366 180.507172 200.963516 175.557343 C 171.083313 129.182281 170.666672 96.364594 170.666672 96 C 170.666672 54.762756 204.096069 21.333344 245.333328 21.333344 C 286.570587 21.333344 320 54.762756 320 96 C 320 101.891052 324.775635 106.666656 330.666656 106.666656 C 336.557709 106.666656 341.333344 101.891052 341.333344 96 C 341.318939 54.762756 374.736694 21.321686 415.973969 21.307312 C 457.211212 21.292938 490.652313 54.710693 490.666656 95.947937 C 490.661469 96.718719 488.755219 174 387.817719 258.489624 C 383.417358 262.331787 382.83139 268.961182 386.489594 273.515625 C 388.221649 275.808289 390.843018 277.260803 393.7052 277.513855 C 396.567383 277.766968 399.402954 276.796875 401.510406 274.84375 C 510.744751 183.416656 512 99.526093 512 96 Z"/>
        <path id="path5" fill="#ff6f3c" stroke="none" d="M 202.666672 106.666656 C 208.557693 106.666656 213.333328 101.891052 213.333328 96 C 213.352615 78.334869 227.668213 64.019287 245.333328 64 C 251.224365 64 256 59.224365 256 53.333344 C 256 47.442291 251.224365 42.666656 245.333328 42.666656 C 215.892471 42.701233 192.034561 66.559143 192 96 C 192 101.891052 196.775635 106.666656 202.666672 106.666656 Z"/>
        <path id="path6" fill="#ff6f3c" stroke="none" d="M 448 384 L 448 405.333344 C 448 411.224365 452.775635 416 458.666656 416 C 464.557709 416 469.333344 411.224365 469.333344 405.333344 L 469.333344 384 C 469.333344 378.108948 464.557709 373.333313 458.666656 373.333313 C 452.775635 373.333313 448 378.108948 448 384 Z"/>
        <path id="path7" fill="#ff6f3c" stroke="none" d="M 458.666656 437.333344 C 452.775635 437.333344 448 442.108978 448 448 L 448 469.333344 C 448 475.224365 452.775635 480 458.666656 480 C 464.557709 480 469.333344 475.224365 469.333344 469.333344 L 469.333344 448 C 469.333344 442.108978 464.557709 437.333344 458.666656 437.333344 Z"/>
        <path id="path8" fill="#ff6f3c" stroke="none" d="M 501.333344 416 L 480 416 C 474.108978 416 469.333344 420.775635 469.333344 426.666656 C 469.333344 432.557709 474.108978 437.333344 480 437.333344 L 501.333344 437.333344 C 507.224365 437.333344 512 432.557709 512 426.666656 C 512 420.775635 507.224365 416 501.333344 416 Z"/>
        <path id="path9" fill="#ff6f3c" stroke="none" d="M 437.333344 416 L 416 416 C 410.108978 416 405.333344 420.775635 405.333344 426.666656 C 405.333344 432.557709 410.108978 437.333344 416 437.333344 L 437.333344 437.333344 C 443.224365 437.333344 448 432.557709 448 426.666656 C 448 420.775635 443.224365 416 437.333344 416 Z"/>
        <path id="path10" fill="#ff6f3c" stroke="none" d="M 53.333332 96 C 59.224369 96 64 91.224365 64 85.333344 L 64 64 C 64 58.108948 59.224369 53.333344 53.333332 53.333344 C 47.442295 53.333344 42.666668 58.108948 42.666668 64 L 42.666668 85.333344 C 42.666668 91.224365 47.442295 96 53.333332 96 Z"/>
        <path id="path11" fill="#ff6f3c" stroke="none" d="M 53.333332 117.333344 C 47.442295 117.333344 42.666668 122.108948 42.666668 128 L 42.666668 149.333344 C 42.666668 155.224365 47.442295 160 53.333332 160 C 59.224369 160 64 155.224365 64 149.333344 L 64 128 C 64 122.108948 59.224369 117.333344 53.333332 117.333344 Z"/>
        <path id="path12" fill="#ff6f3c" stroke="none" d="M 74.666664 117.333344 L 96 117.333344 C 101.891045 117.333344 106.666664 112.557709 106.666664 106.666656 C 106.666664 100.775635 101.891045 96 96 96 L 74.666664 96 C 68.775627 96 64 100.775635 64 106.666656 C 64 112.557709 68.775627 117.333344 74.666664 117.333344 Z"/>
        <path id="path13" fill="#ff6f3c" stroke="none" d="M 10.666667 117.333344 L 32 117.333344 C 37.891037 117.333344 42.666668 112.557709 42.666668 106.666656 C 42.666668 100.775635 37.891037 96 32 96 L 10.666667 96 C 4.77563 96 0 100.775635 0 106.666656 C 0 112.557709 4.77563 117.333344 10.666667 117.333344 Z"/>
    </g>
</svg>
