<svg fill="none" height="512" viewBox="0 0 24 24" width="512" xmlns="http://www.w3.org/2000/svg"><path clip-rule="evenodd" d="m7.7587 3h8.4826c.805-.00001 1.4693-.00002 2.0105.04419.5621.04593 1.0788.14449 1.5642.39178.7526.3835 1.3645.99542 1.748 1.74807.2473.48533.3459 1.00204.3918 1.56414.0442.54118.0442 1.20554.0442 2.0105v11.24132c0 .3466-.1795.6684-.4743.8507-.2948.1822-.6629.1987-.9729.0437l-3.3243-1.6621c-.2759-.138-.3308-.163-.3817-.1801-.0587-.0197-.119-.034-.1803-.0425-.0532-.0075-.1135-.0097-.4219-.0097h-8.48587c-.80499 0-1.46935 0-2.01055-.0442-.5621-.0459-1.07881-.1445-1.56414-.3918-.75265-.3835-1.36457-.9954-1.74807-1.748-.24729-.4854-.34585-1.0021-.39178-1.5642-.04421-.5412-.0442-1.2055-.04419-2.0105v-4.4826c-.00001-.80497-.00002-1.46933.04419-2.01052.04593-.5621.14449-1.07881.39178-1.56414.3835-.75265.99542-1.36457 1.74807-1.74807.48533-.24729 1.00204-.34585 1.56413-.39178.5412-.04421 1.20556-.0442 2.01053-.04419zm-1.84766 2.03755c-.43842.03582-.66262.10075-.81902.18044-.37632.19174-.68229.49771-.87403.87403-.07969.1564-.14462.3806-.18044.81902-.03677.45009-.03755 1.03238-.03755 1.88896v4.4c0 .8566.00078 1.4389.03755 1.889.03582.4384.10075.6626.18044.819.19174.3763.49771.6823.87403.874.1564.0797.3806.1446.81902.1804.45009.0368 1.03238.0376 1.88896.0376h8.4446.0475c.2352-.0001.4429-.0003.6517.029.1838.0257.3648.0684.5407.1276.1999.0673.3856.1602.5959.2656.0141.007.0282.0141.0425.0212l1.8771.9386v-9.582c0-.85658-.0008-1.43887-.0376-1.88896-.0358-.43842-.1007-.66262-.1804-.81902-.1917-.37632-.4977-.68229-.874-.87403-.1564-.07969-.3806-.14462-.819-.18044-.4501-.03677-1.0324-.03755-1.889-.03755h-8.4c-.85658 0-1.43887.00078-1.88896.03755zm.08896 3.96245c0-.55228.44772-1 1-1h10c.5523 0 1 .44772 1 1 0 .55229-.4477 1-1 1h-10c-.55228 0-1-.44771-1-1zm0 4c0-.5523.44772-1 1-1h5c.5523 0 1 .4477 1 1s-.4477 1-1 1h-5c-.55228 0-1-.4477-1-1z" fill="rgb(0,0,0)" fill-rule="evenodd"/></svg>