<svg fill="none" height="512" viewBox="0 0 24 24" width="512" xmlns="http://www.w3.org/2000/svg"><path clip-rule="evenodd" d="m4.46181 1.99988c.03431.00018.06775.00035.1002.00035h2.81731c.02775 0 .0563-.00012.08555-.00025.30917-.00129.69721-.00292 1.0516.13315.30575.11739.57798.30808.79279.55529.249.28655.38007.65179.48451.94279.00988.02754.01953.05441.02901.08049l1.16612 3.20683c.0032.00874.0064.01748.0095.02622.0721.198.1435.39437.1922.56745.0543.19284.1006.42261.0836.68465-.0241.36935-.1501.72477-.3641 1.02673-.1519.21423-.3326.36347-.4963.47903-.1469.10372-.3261.21122-.50679.31959l-.59678.3581c1.00327 1.8056 2.50447 3.3079 4.30947 4.3101l.3583-.5972c.1084-.1807.2159-.3599.3196-.5068.1156-.1636.2648-.3444.479-.4962.302-.2141.6574-.3401 1.0268-.3642.262-.017.4918.0293.6846.0836.1731.0487.3695.1202.5675.1922l3.233 1.1756c.0261.0095.053.0192.0805.0291.291.1044.6563.2355.9428.4845.2472.2148.4379.487.5553.7928.1361.3543.1344.7424.1331 1.0516-.0001.0292-.0002.0578-.0002.0855v2.8173c0 .0325.0002.0659.0003.1002.0019.3692.0043.839-.1988 1.2602-.1696.3517-.4652.6697-.8036.8645-.4042.2328-.8469.2631-1.189.2864-.03.0021-.0592.0041-.0876.0062-.4034.0295-.8107.0445-1.2213.0445-9.1127 0-16.5-7.3873-16.5-16.49997 0-.41061.01502-.8179.04456-1.22131.00208-.02835.00407-.05756.00612-.08755.02339-.34213.05365-.78483.2864-1.18908.19483-.33838.51285-.63396.86456-.80356.4212-.2031.89096-.20072 1.26017-.19885zm-.3846 2.00948c-.00507.03206-.01059.07735-.0168.14517-.00675.07375-.01304.15908-.02119.27046-.02599.35485-.03922.71341-.03922 1.07524 0 8.00817 6.4919 14.49997 14.5 14.49997.3618 0 .7204-.0132 1.0752-.0392.1114-.0081.1967-.0144.2705-.0212.0678-.0062.1131-.0117.1452-.0168.0001-.0012.0002-.0024.0003-.0037.008-.0937.0088-.2244.0088-.4811v-2.8173c0-.2151-.0005-.3272-.006-.4082-.0002-.0026-.0004-.0051-.0005-.0075-.0022-.0009-.0045-.0019-.0068-.003-.0743-.0328-.1795-.0716-.3817-.1452l-3.2068-1.1661c-.2346-.0853-.3596-.1301-.452-.1561-.0033-.0009-.0063-.0017-.0093-.0025-.0017.0024-.0036.005-.0056.0078-.0553.0784-.1242.1919-.2526.406l-.8212 1.3686c-.2613.4355-.8075.606-1.2701.3965-2.8714-1.3005-5.19626-3.6288-6.49804-6.4978-.20995-.46267-.03954-1.00925.39614-1.27067l1.36864-.82117c.21409-.12846.32761-.19732.40601-.25268.00275-.00194.00535-.0038.00782-.00558-.0008-.00293-.00165-.00602-.00256-.00926-.026-.09239-.07077-.21739-.1561-.45202l-1.16612-3.20684c-.07352-.20219-.11233-.30737-.14517-.38161-.00105-.00238-.00206-.00464-.00303-.0068-.00236-.00017-.00483-.00035-.00742-.00052-.081-.00549-.19311-.00602-.40825-.00602h-2.81731c-.25669 0-.38741.00083-.48107.0088-.00127.00011-.00252.00022-.00373.00033z" fill="rgb(0,0,0)" fill-rule="evenodd"/></svg>