<?xml version="1.0" encoding="UTF-8"?>
<!-- Generated by Pixelmator Pro 3.6.8 -->
<svg width="892" height="886" viewBox="0 0 892 886" xmlns="http://www.w3.org/2000/svg">
    <path id="Shape-copy" fill="#ffffff" fill-rule="evenodd" stroke="none" d="M 208.599686 501.736023 C 208.599686 297.190125 208.599686 297.190125 213.242844 292.161499 C 215.796585 289.395813 267.813446 258.161987 328.835907 222.753113 C 401.804077 180.412537 441.749207 158.37323 445.521027 158.37323 C 449.297272 158.37323 488.935272 180.281738 561.569763 222.515259 C 622.242249 257.793335 674.204956 288.377136 677.042419 290.479187 C 682.201477 294.301147 682.201477 294.301147 682.78302 411.463501 L 683.364624 528.625854 L 716.559692 528.625854 C 749.754822 528.625854 749.754822 528.625854 757.766541 536.656372 C 765.77832 544.686768 765.77832 544.686768 765.77832 567.71344 C 765.77832 590.740112 765.77832 590.740112 758.714539 598.466431 C 751.650818 606.192749 751.650818 606.192749 548.805847 607.22699 C 345.960785 608.26123 345.960785 608.26123 344.152344 617.569214 C 343.157684 622.688721 340.895111 628.506226 339.124329 630.49707 C 336.530853 633.412903 332.455414 634.117432 318.167877 634.119751 C 300.430969 634.12262 300.430969 634.12262 278.762909 662.495972 C 266.84549 678.101318 251.832245 697.535706 245.400131 705.683411 C 236.207687 717.327759 230.948929 721.878174 220.822922 726.949951 C 207.976852 733.384277 207.845291 733.402466 174.220276 733.402466 C 142.78479 733.402466 140.208328 733.694946 136.194016 737.718628 C 133.049698 740.8703 132.249573 743.479065 133.228317 747.387817 C 133.965546 750.332031 136.811798 758.274048 139.553314 765.036804 C 142.294861 771.7995 145.622543 780.339111 146.948166 784.013611 C 148.273788 787.68811 148.780487 793.002502 148.074142 795.823364 C 147.367813 798.644165 144.402374 802.04248 141.484268 803.375183 C 138.461227 804.755798 126.45446 805.798279 113.575867 805.798279 C 90.973099 805.798279 90.973099 805.798279 91.018425 811.486511 C 91.04335 814.615051 92.76049 820.91864 94.834297 825.494446 C 96.908112 830.070313 101.752602 836.969238 105.599838 840.8255 C 109.447075 844.681763 116.727249 849.669067 121.777985 851.908508 C 126.828743 854.147888 136.799133 856.449829 143.934433 857.023926 C 151.069717 857.598022 162.734436 856.953003 169.856033 855.590576 C 176.977631 854.228088 190.233444 849.455139 199.313385 844.983948 C 208.393311 840.512756 222.718582 831.030396 231.147247 823.911987 C 239.575943 816.793579 256.183502 800.265137 268.052887 787.18219 C 279.922333 774.099243 299.956421 752.690796 312.57312 739.607788 C 325.18985 726.52478 342.013 710.902344 349.957977 704.891174 C 357.902924 698.880005 372.761017 689.791504 382.975952 684.694519 C 393.190887 679.597534 409.415283 673.46051 419.030151 671.056702 C 434.250092 667.251587 440.524078 666.825073 467.52536 667.760376 C 492.99173 668.642456 501.842682 669.819275 517.009705 674.339905 C 527.16864 677.367798 542.536438 683.524658 551.160278 688.02179 C 559.784119 692.518921 572.601379 701.078796 579.643066 707.043701 C 586.684753 713.008667 597.388 724.175232 603.427979 731.858215 C 609.468018 739.54126 618.712219 754.006409 623.970703 764.003052 C 629.229187 773.999634 636.824646 792.042786 640.849426 804.098877 C 644.874207 816.154968 648.756592 830.329041 649.47699 835.596741 C 650.513672 843.177979 650.015198 846.028992 647.085693 849.27356 C 645.050232 851.528076 640.920349 853.37262 637.908142 853.37262 C 634.895996 853.37262 630.916931 852.209106 629.065735 850.787048 C 627.214539 849.36499 623.202087 839.358887 620.14917 828.551208 C 617.096252 817.743591 611.171143 800.900452 606.9823 791.122009 C 602.793457 781.343628 594.977966 766.726868 589.614624 758.640381 C 584.251282 750.553833 573.848938 738.413879 566.498352 731.662598 C 559.147705 724.911377 546.870728 716.088867 539.216064 712.057068 C 531.561523 708.025269 518.34906 702.711548 509.855164 700.24884 C 499.020752 697.107483 486.222107 695.440491 466.971283 694.663391 C 445.573486 693.799561 436.484955 694.303406 425.698792 696.951416 C 418.091125 698.819092 404.437622 703.914673 395.357697 708.274902 C 386.277771 712.635132 371.880554 721.763184 363.363892 728.559448 C 354.84726 735.355774 336.738953 752.915283 323.12323 767.580688 C 309.507477 782.246033 288.152405 804.835571 275.66748 817.779602 C 263.182556 830.723694 246.931503 845.917908 239.554062 851.544556 C 232.176605 857.171204 218.711441 865.485901 209.6315 870.021667 C 200.551559 874.557434 186.622101 879.631836 178.677139 881.298035 C 170.732178 882.964294 157.731339 884.282471 149.786392 884.227356 C 141.841446 884.172241 130.466339 882.811401 124.508377 881.203308 C 118.550423 879.595276 109.986412 876.393005 105.477242 874.087158 C 100.968056 871.781372 93.839882 866.875427 89.636841 863.185059 C 85.433815 859.49469 79.35228 852.306152 76.12236 847.210571 C 72.892418 842.11499 68.909813 833.272339 67.272118 827.560303 C 65.634422 821.848267 63.77906 814.615051 63.149101 811.486511 C 62.003727 805.798279 62.003727 805.798279 37.394623 805.798279 C 14.619346 805.798279 12.370175 805.440186 7.211807 800.992737 C 1.638099 796.187256 1.638099 796.187256 3.119621 758.072388 C 4.60115 719.957581 4.60115 719.957581 14.253222 702.125 C 19.561869 692.317139 46.627518 644.875488 74.399109 596.699158 C 102.170708 548.522827 126.547272 507.447632 128.569244 505.420959 C 131.830322 502.152252 136.557953 501.736023 170.422638 501.736023 L 208.599686 501.736023 Z M 318.95462 606.192749 C 327.631744 561.307373 330.781677 543.845337 331.552673 538.429932 C 332.954437 528.58374 332.954437 528.58374 238.585312 529.121948 L 144.216187 529.660095 L 114.634827 580.932617 C 98.365097 609.132568 72.911057 653.358459 58.07032 679.212402 C 31.087154 726.219543 31.087154 726.219543 29.772726 749.24646 C 29.049784 761.911255 29.029827 773.766235 29.728374 775.590881 C 30.833996 778.478821 36.225773 778.908386 71.36866 778.908386 C 101.787521 778.908386 111.98317 778.270264 112.72995 776.319641 C 113.275032 774.895874 111.776588 768.185791 109.400085 761.408325 C 106.37619 752.784668 105.455956 746.57666 106.334404 740.727051 C 107.024803 736.1297 111.512138 725.238586 116.306274 716.524536 C 121.100418 707.810486 136.572784 680.625122 150.689301 656.11261 C 169.678894 623.138306 177.731339 610.982666 181.643677 609.384827 C 184.836838 608.08075 213.08165 607.020752 252.943146 606.708984 L 318.95462 606.192749 Z M 194.496277 634.116821 C 171.041275 674.788818 161.659241 691.077881 158.51506 696.554688 C 152.79834 706.512634 152.79834 706.512634 178.119492 706.504883 C 199.37796 706.498413 204.47493 705.86499 209.886932 702.55719 C 213.432404 700.390198 219.66745 694.576172 223.74263 689.637085 C 227.817795 684.698059 238.605759 670.883545 247.715851 658.938232 C 256.825989 646.992981 264.288239 636.521423 264.298615 635.668213 C 264.309052 634.814941 248.607758 634.116821 229.406921 634.116821 L 194.496277 634.116821 Z M 873.696411 650.532227 C 871.65863 650.459534 855.133179 644.517639 836.973328 637.328003 C 818.813477 630.138367 801.865906 622.708008 799.312195 620.81604 C 796.420837 618.67395 794.669006 615.192261 794.669006 611.587891 C 794.669006 608.404419 796.505432 604.133911 798.75 602.0979 C 801.736572 599.388794 804.918579 598.68457 810.615845 599.471924 C 814.897522 600.063599 831.865845 605.903198 848.323242 612.448608 C 864.780701 618.99408 879.915588 625.919617 881.956421 627.838745 C 883.997192 629.757813 886.181213 633.299194 886.809814 635.708374 C 887.588684 638.69397 886.272766 641.772583 882.677124 645.376587 C 879.775574 648.284912 875.734314 650.60498 873.696411 650.532227 Z M 842.132385 582.211792 C 823.404968 582.138794 806.689697 581.565674 804.987183 580.93811 C 803.284668 580.310669 800.266602 578.378296 798.280396 576.643982 C 796.294128 574.909668 794.669006 570.986694 794.669006 567.926392 C 794.669006 564.86615 796.367249 560.821777 798.442871 558.938965 C 801.684875 555.998108 807.930176 555.515747 842.763245 555.515747 C 883.309753 555.515747 883.309753 555.515747 886.794861 560.847168 C 889.420654 564.864075 889.805603 567.530701 888.355896 571.662598 C 887.297607 574.678772 884.125671 578.316101 881.307007 579.745605 C 877.773376 581.537659 865.610413 582.303345 842.132385 582.211792 Z M 738.951172 580.337158 L 738.951172 555.515747 L 547.318726 555.515747 L 355.68634 555.515747 L 353.692322 567.926392 L 351.698303 580.337158 L 545.324707 580.337158 L 738.951172 580.337158 Z M 807.886536 536.89032 C 804.309814 536.895569 799.996887 535.235352 798.084351 533.117065 C 796.205933 531.03656 794.669006 527.416443 794.669006 525.072388 C 794.669006 522.728271 796.294128 518.925049 798.280396 516.62085 C 800.266602 514.316528 817.678406 506.218384 836.973328 498.624878 C 864.652527 487.73175 873.130066 485.190643 877.150146 486.582123 C 879.952576 487.552094 883.647949 490.850464 885.362305 493.911835 C 888.230103 499.033142 888.145081 499.926575 884.298218 505.091034 C 881.19519 509.256866 871.629089 514.078613 847.195374 523.792542 C 829.088318 530.991211 811.399353 536.885193 807.886536 536.89032 Z M 654.34259 307.724365 C 464.773224 197.310425 446.170502 187.229675 442.423309 188.681274 C 439.93454 189.645386 392.358032 216.962097 336.697632 249.38501 L 235.496964 308.335876 L 235.461884 405.03595 L 235.426804 501.736023 L 295.271912 501.736023 C 353.407166 501.736023 355.241425 501.860718 359.471649 506.10083 C 362.969788 509.607147 363.578583 512.018311 362.566895 518.359863 C 361.540955 524.790894 361.976898 526.429321 364.919067 527.199951 C 366.905396 527.720337 431.369385 528.253906 508.172363 528.385925 C 584.975342 528.517944 649.28302 528.060913 651.078369 527.370361 C 653.997864 526.247437 654.34259 514.583252 654.34259 416.919617 L 654.34259 307.724365 Z M 395.9039 462.404968 C 383.205353 462.386688 372.734863 461.351105 369.761353 459.819397 C 367.033234 458.414093 362.858459 454.641785 360.484009 451.436462 C 357.149536 446.935242 355.994324 441.802002 355.40918 428.886444 C 354.992493 419.68927 355.70166 408.651062 356.985168 404.357117 C 358.268677 400.063141 362.15918 394.154297 365.630768 391.226349 C 371.536224 386.245605 373.340546 385.902771 393.649933 385.902771 C 410.405792 385.902771 416.716614 386.707733 421.317169 389.431671 C 424.595184 391.37262 428.769501 396.112732 430.593384 399.965302 C 433.133575 405.330872 433.744995 411.803558 433.206268 427.625549 C 432.50293 448.281036 432.50293 448.281036 424.794647 455.358215 C 417.086365 462.435455 417.086365 462.435455 395.9039 462.404968 Z M 496.061859 462.352631 C 482.222076 462.295959 474.056061 461.30011 470.190033 459.19754 C 467.083069 457.507751 463.136383 453.402649 461.419617 450.075012 C 459.269531 445.90744 458.298248 437.846405 458.298248 424.169128 C 458.298248 410.598877 459.274384 402.421295 461.381897 398.336334 C 463.077942 395.04895 466.534729 390.906555 469.063751 389.131012 C 472.576416 386.664886 479.204712 385.902771 497.140839 385.902771 C 520.619751 385.902771 520.619751 385.902771 527.636047 392.935486 C 534.652344 399.968231 534.652344 399.968231 534.652344 421.996521 C 534.652344 437.640869 533.745178 445.783295 531.521973 450.092438 C 529.800293 453.429626 525.667603 457.572021 522.338196 459.29776 C 518.09436 461.497467 510.239197 462.410706 496.061859 462.352631 Z M 394.222931 435.545593 C 406.707642 435.545593 406.707642 435.545593 406.707642 423.031677 C 406.707642 410.517761 406.707642 410.517761 394.841797 411.138092 C 382.975952 411.758423 382.975952 411.758423 382.357086 423.652008 C 381.73819 435.545593 381.73819 435.545593 394.222931 435.545593 Z M 496.475311 435.545593 C 507.825226 435.545593 507.825226 435.545593 507.825226 424.393341 C 507.825226 414.077454 507.418457 413.138794 502.401306 411.876587 C 499.418152 411.12616 494.310669 411.099213 491.051361 411.816742 C 485.414673 413.057617 485.125366 413.668732 485.125366 424.333496 C 485.125366 435.545593 485.125366 435.545593 496.475311 435.545593 Z M 84.856804 421.066437 C 81.844666 421.066437 77.773926 419.88916 75.810715 418.450256 C 73.728661 416.924286 71.014183 409.955719 69.296585 401.727295 C 67.677025 393.968536 64.063286 382.60965 61.266048 376.485413 C 58.468807 370.361145 51.704216 360.525024 46.233601 354.627319 C 40.593624 348.546997 31.684994 341.776672 25.658056 338.990356 C 19.812107 336.287659 13.9448 332.766907 12.619596 331.166443 C 11.294397 329.565918 10.50566 325.170532 10.866848 321.398865 C 11.44751 315.335327 12.95734 313.798157 23.905302 308.123962 C 30.71526 304.594421 40.182213 297.83252 44.942959 293.097534 C 49.703709 288.362488 56.420437 278.684387 59.869019 271.590698 C 63.317596 264.497009 67.59761 252.177429 69.380142 244.213928 C 71.162666 236.250366 74.141914 228.571228 76.000656 227.14917 C 77.859398 225.727112 81.844666 224.563599 84.856804 224.563599 C 87.86895 224.563599 91.74897 226.192566 93.479088 228.183411 C 95.209213 230.174316 98.13443 238.645264 99.979584 247.007874 C 101.82473 255.370361 106.255302 267.705444 109.825317 274.419128 C 113.395317 281.132813 120.431335 290.427856 125.460899 295.074768 C 130.490479 299.721741 139.56926 305.72406 145.635956 308.41333 C 152.419388 311.420288 157.201309 314.992432 158.055847 317.691101 C 158.820084 320.104675 158.876801 324.350037 158.181885 327.125244 C 157.259644 330.808289 153.327988 333.871582 143.625381 338.466553 C 135.105087 342.501587 127.264526 348.248535 121.78775 354.472961 C 117.088181 359.814087 110.984406 368.641296 108.223785 374.089111 C 105.463181 379.536896 101.72406 390.706512 99.914627 398.910522 C 98.105202 407.114502 95.209213 415.45578 93.479088 417.446655 C 91.74897 419.437531 87.86895 421.066437 84.856804 421.066437 Z M 395.045837 362.909912 C 386.137421 362.777893 377.030151 362.206909 374.807495 361.641052 C 372.584778 361.075073 368.71814 359.266907 366.214874 357.622925 C 363.711609 355.978882 360.190521 351.522461 358.390259 347.719849 C 356.235626 343.168701 355.117035 335.058228 355.117035 323.987305 C 355.117035 314.029236 356.32901 304.261292 358.088257 300.040955 C 359.722504 296.120605 364.133484 291.034546 367.890503 288.738647 C 373.445801 285.34375 378.305267 284.562683 393.912476 284.556396 C 407.215271 284.551086 414.999512 285.531494 419.283142 287.751831 C 422.681915 289.513489 427.275482 293.934814 429.491058 297.576965 C 432.740021 302.917847 433.519318 308.000427 433.519318 323.849243 C 433.519318 339.434448 432.717499 344.817505 429.643402 349.870483 C 427.511688 353.374451 422.499481 357.795776 418.505249 359.695618 C 413.451111 362.099548 406.318115 363.076843 395.045837 362.909912 Z M 496.025635 363.068848 C 487.193024 363.024353 477.101685 361.737732 473.600433 360.209717 C 470.099152 358.681702 465.223877 354.869385 462.766388 351.737915 C 458.806458 346.691895 458.298248 343.484558 458.298248 323.539978 C 458.298248 301.035583 458.298248 301.035583 465.358948 293.309265 C 472.419678 285.582947 472.419678 285.582947 493.026947 284.87793 C 508.812012 284.338013 515.269592 284.950806 520.62262 287.496948 C 524.466248 289.325134 529.195313 293.509155 531.131714 296.794861 C 533.845947 301.400513 534.652344 307.724854 534.652344 324.406555 C 534.652344 343.470886 534.120239 346.722351 530.178589 351.745056 C 527.718018 354.880432 522.640381 358.729187 518.894958 360.297791 C 515.00824 361.925598 505.191467 363.115051 496.025635 363.068848 Z M 84.481445 358.997009 C 85.214371 358.98822 87.800117 355.497742 90.227562 351.240295 C 92.654999 346.982849 99.400307 338.733032 105.217133 332.907288 C 115.793175 322.315063 115.793175 322.315063 108.983147 317.108704 C 105.237648 314.245117 99.420967 307.90448 96.057198 303.018311 C 92.693451 298.132141 88.48307 292.315308 86.700798 290.09198 C 83.559151 286.172913 83.322845 286.283203 78.953468 293.706055 C 76.474701 297.917053 69.830032 306.255249 64.187531 312.235291 C 53.928444 323.108093 53.928444 323.108093 62.241859 331.235413 C 66.814224 335.705383 73.388817 343.783997 76.852058 349.187805 C 80.315292 354.591553 83.748505 359.005737 84.481445 358.997009 Z M 749.269287 340.396851 C 746.026428 340.396851 741.915344 338.935547 740.133484 337.149597 C 738.351624 335.363525 736.432495 331.639099 735.868774 328.873047 C 735.305054 326.106995 733.870728 319.550598 732.681396 314.303101 C 731.492065 309.055725 727.863037 299.488647 724.616821 293.042908 C 721.370605 286.59729 714.822388 277.303284 710.065002 272.389771 C 705.307739 267.476257 696.488098 261.195068 690.465759 258.431458 C 684.443481 255.667908 678.431885 252.097351 677.106689 250.496826 C 675.781433 248.896301 674.992737 244.502075 675.353882 240.731873 C 675.942627 234.586853 677.371094 233.198425 689.14563 227.326965 C 696.369934 223.724426 705.216125 217.925232 708.803833 214.439697 C 712.391602 210.954285 718.316467 203.158386 721.970154 197.115662 C 725.623901 191.072937 730.578186 178.254883 732.979736 168.631226 C 735.381226 159.007568 738.779724 149.5047 740.532104 147.513855 C 742.284424 145.522949 746.216125 143.894043 749.269287 143.894043 C 752.322449 143.894043 756.34967 145.587646 758.218567 147.657654 C 760.087524 149.7276 762.501221 156.09668 763.582397 161.811218 C 764.663574 167.525635 767.313049 176.856506 769.469971 182.546448 C 771.626953 188.236389 776.292969 197.118408 779.838806 202.284302 C 783.384705 207.450134 789.332947 214.258118 793.057007 217.413147 C 796.781067 220.568115 804.006897 224.96228 809.11438 227.177856 C 814.221863 229.393494 819.561523 232.682007 820.980225 234.485657 C 822.398987 236.289307 823.559753 240.235229 823.559753 243.254395 C 823.559753 246.273621 821.934631 250.079773 819.948425 251.712463 C 817.962219 253.345276 811.949585 256.723755 806.587036 259.220337 C 801.224487 261.71698 793.125977 267.479309 788.590332 272.025574 C 784.054688 276.571838 777.494995 285.947754 774.013367 292.861023 C 770.531738 299.774231 766.215088 311.94635 764.420898 319.910034 C 762.626587 327.873779 759.81012 335.741272 758.161987 337.39325 C 756.513855 339.045227 752.512146 340.396851 749.269287 340.396851 Z M 394.325897 336.259949 C 406.707642 336.259949 406.707642 336.259949 406.707642 323.849243 C 406.707642 311.438538 406.707642 311.438538 394.325897 311.438538 C 381.944153 311.438538 381.944153 311.438538 381.944153 323.849243 C 381.944153 336.259949 381.944153 336.259949 394.325897 336.259949 Z M 496.245636 336.259949 C 507.283813 336.259949 507.375763 336.207458 508.697723 329.144226 C 509.430206 325.230591 509.432892 319.645752 508.703644 316.733521 C 507.486237 311.871582 506.467896 311.438538 496.251617 311.438538 C 485.125366 311.438538 485.125366 311.438538 485.125366 323.849243 C 485.125366 336.259949 485.125366 336.259949 496.245636 336.259949 Z M 749.277039 278.343323 C 750.192078 278.343323 753.276428 274.38739 756.131165 269.552429 C 758.985901 264.717468 765.499329 256.685852 770.605408 251.704468 C 779.889099 242.6474 779.889099 242.6474 769.750244 232.484741 C 764.173767 226.895325 757.516479 218.644958 754.956177 214.150757 C 752.395935 209.656555 749.836792 205.973938 749.269287 205.967224 C 748.701782 205.960449 745.736328 209.909241 742.679443 214.742188 C 739.622498 219.575195 732.914917 227.654541 727.773682 232.696411 C 718.425964 241.863342 718.425964 241.863342 728.67981 252.730652 C 734.319397 258.707703 740.886658 266.91571 743.273499 270.970703 C 745.6604 275.025696 748.362 278.343323 749.277039 278.343323 Z M 258.201263 199.742249 C 255.189117 199.742249 251.203857 198.578735 249.345093 197.156677 C 247.486359 195.734619 244.507126 188.055481 242.724594 180.091919 C 240.942062 172.128418 236.766708 160.027954 233.44606 153.202087 C 230.125381 146.376221 223.408661 136.70343 218.519989 131.707092 C 213.631317 126.710693 204.84845 120.401917 199.002487 117.6875 C 193.15654 114.973083 187.289246 111.442688 185.96405 109.842224 C 184.63884 108.241699 183.850113 103.846313 184.211288 100.074646 C 184.795624 93.973022 186.183273 92.588806 196.797928 87.518982 C 203.35939 84.385071 212.825974 77.713196 217.834732 72.692749 C 222.843536 67.672241 229.852798 57.784058 233.410889 50.719116 C 236.968979 43.654053 241.136948 31.852539 242.67308 24.493591 C 244.209183 17.134644 247.065613 9.34198 249.020737 7.176514 C 250.975845 5.011108 255.073532 3.23938 258.126678 3.23938 C 261.17981 3.23938 265.093414 4.868347 266.823547 6.859192 C 268.55365 8.850037 271.478882 17.321045 273.324036 25.683655 C 275.169189 34.046143 279.599762 46.381226 283.169769 53.09491 C 286.739746 59.808594 293.775787 69.103638 298.805359 73.750549 C 303.83493 78.397461 312.967621 84.423767 319.100189 87.142212 C 327.098053 90.6875 330.608337 93.514465 331.51651 97.141357 C 332.212891 99.922424 332.468262 103.900391 332.084015 105.981201 C 331.674744 108.197388 326.256226 112.335144 319.003601 115.969971 C 312.193634 119.382874 302.386932 126.375793 297.210938 131.509705 C 292.034943 136.643677 285.315491 145.951721 282.2789 152.194214 C 279.242279 158.436768 275.206818 170.059937 273.311218 178.023499 C 271.415619 185.987061 268.472626 194.131531 266.771271 196.122437 C 265.069916 198.113281 261.213379 199.742249 258.201263 199.742249 Z M 257.825897 137.663086 C 258.558838 137.648987 261.353271 134.158508 264.035767 129.906372 C 266.718231 125.654297 273.503021 117.438965 279.113098 111.650208 C 289.313202 101.125061 289.313202 101.125061 282.459076 95.884949 C 278.68927 93.002869 271.559448 84.864136 266.615021 77.798828 C 257.625092 64.952881 257.625092 64.952881 251.89386 73.630249 C 248.741653 78.402771 241.88385 86.661804 236.654282 91.983704 C 227.145981 101.659668 227.145981 101.659668 235.522842 109.84906 C 240.130142 114.35321 246.733261 122.459778 250.196503 127.863586 C 253.659729 133.267334 257.092987 137.677124 257.825897 137.663086 Z"/>
</svg>
