<?xml version="1.0" encoding="UTF-8"?>
<!-- Generated by Pixelmator Pro 3.6.8 -->
<svg width="894" height="818" viewBox="0 0 894 818" xmlns="http://www.w3.org/2000/svg">
    <path id="Shape-copy" fill="#ffffff" fill-rule="evenodd" stroke="none" d="M 448.9711 815.407288 C 443.300018 815.88092 437.111481 815.108215 432.149231 813.306885 C 427.831573 811.739502 419.981323 807.628601 414.704224 804.171509 C 409.427094 800.714417 398.436707 791.102173 390.281189 782.811035 C 382.125671 774.519775 370.908478 761.376404 365.354095 753.603455 C 359.799774 745.830566 350.5961 731.387512 344.90152 721.507813 C 339.206909 711.628174 331.251068 696.021667 327.221863 686.826721 C 323.192719 677.631775 317.302887 662.849365 314.133484 653.976868 C 310.96402 645.10437 306.409119 630.153992 304.011505 620.753784 C 301.613831 611.353577 298.421295 596.580811 296.917023 587.925293 C 295.412659 579.269775 293.709473 561.523682 293.132111 548.489624 C 292.527222 534.833374 292.950897 515.531921 294.131958 502.940674 C 295.259277 490.922943 298.035431 472.866791 300.301178 462.815918 C 302.566986 452.764984 306.846863 438.246674 309.812042 430.552917 C 312.777252 422.859161 318.731323 410.531586 323.043335 403.158325 C 327.355347 395.785004 335.416321 384.844269 340.956635 378.84552 C 346.496948 372.846771 353.509338 366.309235 356.539764 364.317749 C 362.049683 360.696777 362.049683 360.696777 362.688477 329.178711 C 363.273132 300.330933 363.668152 297.013489 367.3508 290.021179 C 369.563751 285.819458 370.721985 281.786194 369.924652 281.05835 C 369.127289 280.330566 364.157257 279.21344 358.880157 278.575928 C 353.603058 277.938416 340.650085 275.821716 330.095886 273.872192 C 319.541656 271.922668 303.056091 268.306458 293.461334 265.836304 C 283.866577 263.366089 274.417206 260.997559 272.462799 260.572998 C 269.443878 259.917053 268.634277 261.070374 267.081482 268.239319 C 266.076202 272.880432 261.566528 286.205139 257.059967 297.849792 C 248.866226 319.021851 248.866226 319.021851 255.002426 331.128632 C 258.37735 337.787354 262.516602 348.718292 264.200775 355.419678 C 266.190704 363.337708 267.268341 374.338837 267.278351 386.838379 C 267.286896 397.417267 266.254822 412.367676 264.984924 420.061432 C 263.715027 427.755188 259.580109 443.417175 255.796158 454.865875 C 252.012268 466.314514 244.581207 484.018921 239.2827 494.208954 C 233.984192 504.398956 224.38118 520.197815 217.942627 529.317505 C 211.504135 538.437134 197.594894 554.56781 187.033249 565.163391 C 176.471573 575.759033 160.566757 589.542725 151.689194 595.793884 C 142.8116 602.045105 129.472244 610.508484 122.046135 614.60144 C 114.620018 618.694397 102.419662 624.005737 94.934189 626.404358 C 86.532921 629.096436 77.229851 630.765503 70.625809 630.765503 C 63.34267 630.765503 57.525436 629.600037 52.403225 627.114624 C 48.264931 625.106628 41.697174 619.795288 37.808193 615.311707 C 33.919212 610.828064 27.281103 600.077942 23.056858 591.422424 C 18.832611 582.766968 13.341619 568.603455 10.854634 559.947998 C 8.367675 551.29248 4.994597 535.948669 3.35894 525.850586 C 1.38807 513.683105 0.385014 497.421265 0.385014 477.636719 C 0.385014 456.721558 1.346918 442.062134 3.597606 428.676422 C 5.364548 418.167847 9.186502 402.094757 12.090819 392.958405 C 14.995164 383.822052 20.84796 368.871704 25.097069 359.735352 C 29.346151 350.598999 36.122066 338.02536 40.154633 331.793915 C 44.187195 325.562408 51.270401 315.891632 55.895103 310.303223 C 60.519806 304.714844 68.762589 296.584412 74.212372 292.235596 C 79.662186 287.886841 88.438759 282.106445 93.715866 279.39032 C 98.992973 276.674194 106.632515 273.455505 110.692604 272.237671 C 117.969833 270.054871 118.165138 269.785339 124.458237 253.241882 C 127.969254 244.012024 132.446152 232.610657 134.406876 227.905457 C 136.36763 223.200317 139.887344 217.06897 142.22847 214.28009 C 144.569595 211.491394 146.191132 208.978638 145.831879 208.69635 C 145.472595 208.414063 135.758377 202.633423 124.244652 195.850403 C 112.730927 189.067505 97.030411 179.012207 89.354614 173.50531 C 81.67881 167.998535 67.998863 157.545227 58.954769 150.275879 C 49.910648 143.006531 33.911068 128.736511 23.400135 118.56488 C 12.889203 108.39325 3.079148 97.534546 1.599984 94.434387 C -0.514282 90.003174 -0.668938 87.872925 0.876746 84.472473 C 1.958116 82.093567 4.920437 78.782776 7.459649 77.115173 C 11.25163 74.624756 13.001163 74.432983 17.25272 76.041382 C 20.099674 77.118591 30.4284 85.719849 40.205475 95.155396 C 49.982521 104.591003 66.61084 119.25177 77.157288 127.734802 C 87.703697 136.217957 106.145439 149.71698 118.138893 157.732849 C 130.132339 165.748657 149.365463 177.493713 160.879181 183.833069 C 172.392914 190.172363 191.233505 199.605347 202.747238 204.795227 C 214.260956 209.985107 233.886597 217.934143 246.359787 222.459656 C 258.832947 226.985168 280.890717 233.72113 295.377045 237.428345 C 309.863312 241.13562 331.059052 245.797424 342.478607 247.787964 C 353.898132 249.778503 372.661713 252.371826 384.175446 253.550903 C 395.689148 254.72998 424.735107 255.694763 448.722015 255.694763 C 480.409363 255.694763 499.25116 254.826599 517.629822 252.519714 C 531.542236 250.773438 552.520569 247.398315 564.248352 245.01947 C 575.976074 242.640564 595.422241 237.988098 607.461975 234.680725 C 619.50177 231.373169 640.129822 224.63092 653.302124 219.697876 C 666.474365 214.764771 688.539795 205.313538 702.336304 198.69519 C 716.132813 192.076721 736.731567 181.081726 748.111145 174.261536 C 759.490784 167.441528 777.173462 155.916931 787.406006 148.651428 C 797.63855 141.385925 813.54364 129.160034 822.750488 121.482666 C 831.957458 113.80542 846.178589 100.929138 854.353088 92.868835 C 862.527588 84.808655 871.672363 77.284424 874.674988 76.148438 C 879.260681 74.413513 880.872742 74.568176 884.750793 77.115173 C 887.290039 78.782776 890.25238 82.093567 891.333801 84.472473 C 892.879578 87.873169 892.724365 90.007568 890.607727 94.456482 C 889.127075 97.568665 878.848816 108.851868 867.767151 119.530029 C 856.685547 130.208191 841.188904 144.101318 833.330383 150.403748 C 825.471802 156.706055 812.685852 166.450684 804.917175 172.058472 C 797.148438 177.666077 780.820984 188.209656 768.63385 195.488281 C 746.475586 208.722412 746.475586 208.722412 751.429932 216.116516 C 754.154846 220.183411 758.514404 229.178406 761.117737 236.105591 C 763.721069 243.032715 767.751099 253.5354 770.073242 259.444824 C 773.877197 269.124878 774.932434 270.353638 780.725403 271.848572 C 784.261902 272.76123 791.86554 275.942627 797.622375 278.918335 C 803.379211 281.894043 812.548279 287.886841 817.998169 292.235596 C 823.447937 296.584412 831.690613 304.714844 836.31543 310.303223 C 840.940125 315.891632 848.023315 325.562408 852.055847 331.793915 C 856.08844 338.02536 862.869995 350.598999 867.125916 359.735352 C 871.381897 368.871704 877.285217 384.115753 880.244385 393.611023 C 883.203613 403.106293 887.02002 419.236969 888.725098 429.45697 C 890.79425 441.858398 891.8255 457.344025 891.8255 476.016052 C 891.8255 493.127747 890.683838 511.803009 888.886108 524.102051 C 887.269348 535.161865 883.896301 551.29248 881.390442 559.947998 C 878.884399 568.603455 873.377869 582.766968 869.153687 591.422424 C 864.929321 600.077942 858.291321 610.828064 854.402283 615.311707 C 850.513367 619.795288 843.744019 625.204407 839.359375 627.33197 C 832.607056 630.608398 829.338135 631.072388 817.993896 630.365112 C 808.614441 629.780396 800.343506 627.864807 790.396484 623.973511 C 782.584351 620.917358 769.697144 614.503723 761.758118 609.721069 C 753.819153 604.938477 741.370178 596.568298 734.093933 591.120789 C 726.817566 585.673218 713.014038 573.244751 703.41925 563.501831 C 693.824524 553.758911 680.70636 538.350952 674.267883 529.261841 C 667.829346 520.172791 658.226318 504.398956 652.927856 494.208954 C 647.629272 484.018921 640.198242 466.314514 636.414368 454.865875 C 632.630371 443.417175 628.495483 427.755188 627.225586 420.061432 C 625.955688 412.367676 624.923584 397.417267 624.932129 386.838379 C 624.942139 374.338837 626.019775 363.337708 628.009705 355.419678 C 629.693909 348.718292 633.830688 337.792236 637.202576 331.139465 C 643.333313 319.043488 643.333313 319.043488 635.184692 297.860596 C 630.702942 286.210022 626.198914 272.896057 625.17572 268.274109 C 623.508362 260.74176 622.901062 259.971436 619.318909 260.843994 C 617.120911 261.379395 607.668335 263.732239 598.313293 266.07251 C 588.958252 268.412781 572.668823 271.922668 562.114624 273.872192 C 551.560425 275.821716 538.607422 277.938416 533.330322 278.575928 C 528.053223 279.21344 523.083191 280.330566 522.285889 281.05835 C 521.488525 281.786194 522.64679 285.819458 524.85968 290.021179 C 528.542358 297.013489 528.937378 300.330933 529.522034 329.178711 C 530.160828 360.696777 530.160828 360.696777 535.670715 364.317749 C 538.701172 366.309235 545.713562 372.846771 551.253845 378.84552 C 556.794189 384.844269 564.855164 395.785004 569.167175 403.158325 C 573.479187 410.531586 579.433228 422.859161 582.398438 430.552917 C 585.363647 438.246674 589.643494 452.764984 591.909302 462.815918 C 594.175049 472.866791 596.951233 490.922943 598.078552 502.940674 C 599.259583 515.531921 599.683289 534.833374 599.078369 548.489624 C 598.501038 561.523682 596.789917 579.269775 595.27594 587.925293 C 593.761902 596.580811 590.250488 612.418213 587.472717 623.11969 C 584.695007 633.821167 579.225891 651.132141 575.319214 661.588501 C 571.412476 672.044861 563.539978 690.042419 557.824646 701.583069 C 552.109375 713.123718 542.101318 730.594849 535.584412 740.407837 C 529.067566 750.220764 519.025391 763.92572 513.268555 770.86322 C 507.511749 777.80072 497.179321 788.298218 490.307739 794.19104 C 483.436127 800.083862 473.342865 807.099609 467.878296 809.781616 C 462.413757 812.463623 453.905518 814.995178 448.9711 815.407288 Z M 180.940964 788.137878 C 177.542007 788.137878 173.966064 786.551392 171.266907 783.845947 C 167.525787 780.096069 166.98494 777.987854 166.98494 767.154907 C 166.98494 756.32196 167.525787 754.213745 171.266907 750.463867 C 173.966064 747.758423 177.542007 746.171936 180.940964 746.171936 C 184.339905 746.171936 187.915848 747.758423 190.615021 750.463867 C 194.356125 754.213745 194.896973 756.32196 194.896973 767.154907 C 194.896973 777.987854 194.356125 780.096069 190.615021 783.845947 C 187.915848 786.551392 184.339905 788.137878 180.940964 788.137878 Z M 446.105255 565.324341 C 418.389465 574.547485 407.975739 577.533447 405.082458 577.910095 C 401.197571 578.415894 398.515564 577.381348 394.826172 573.954102 C 390.205231 569.661621 389.910767 568.633972 390.901733 560.259155 C 391.490967 555.279419 396.722809 518.15686 402.528107 477.764618 C 408.333374 437.372375 413.561401 399.406311 414.145966 393.395538 C 415.20874 382.466919 415.20874 382.466919 396.925507 382.466919 C 378.677185 382.466919 378.627228 382.478607 370.785004 388.602753 C 366.46347 391.977509 360.472382 397.801117 357.471466 401.544098 C 354.47052 405.287109 349.567719 412.510193 346.576385 417.595337 C 343.585083 422.680511 338.948883 432.39743 336.273712 439.188507 C 333.598572 445.979584 329.784698 458.617645 327.798492 467.273132 C 325.812225 475.928619 323.357819 490.651245 322.344147 499.990082 C 321.330444 509.32901 320.501099 525.222656 320.501099 535.309326 C 320.501099 545.396057 321.679047 562.655701 323.118774 573.664063 C 324.558472 584.672485 327.99585 602.613892 330.757416 613.533875 C 333.518982 624.453857 338.720917 641.257019 342.31723 650.874207 C 345.913574 660.491455 353.406708 677.473877 358.968567 688.612976 C 364.530457 699.752075 374.695679 717.281921 381.557892 727.568176 C 388.420105 737.854431 400.810211 753.407043 409.091431 762.129578 C 417.37265 770.852112 428.1073 780.264893 432.946106 783.046875 C 437.784943 785.828918 443.706543 788.105042 446.105255 788.105042 C 448.503937 788.105042 454.425537 785.828918 459.264404 783.046875 C 464.10321 780.264893 474.863556 770.825012 483.176239 762.069336 C 491.488922 753.313721 504.163391 737.302734 511.341736 726.48938 C 518.520081 715.676086 529.49762 696.206177 535.736328 683.222961 C 541.975098 670.239746 549.81073 651.656555 553.149048 641.927002 C 556.487305 632.19751 561.2005 615.279968 563.622803 604.33252 C 566.045105 593.385132 568.855591 576.787231 569.868225 567.448364 C 570.880859 558.109497 571.702942 542.765686 571.695068 533.351074 C 571.687195 523.93634 570.903809 509.151672 569.954102 500.496185 C 569.004517 491.840698 566.970276 478.857483 565.433716 471.644592 C 563.897095 464.431702 561.077148 453.809021 559.167175 448.038727 C 557.257202 442.268433 553.031799 432.221039 549.777466 425.711243 C 546.523193 419.201447 540.669739 409.63916 536.769836 404.4617 C 532.869934 399.284271 526.054199 392.217377 521.623657 388.757538 C 513.568237 382.466919 513.568237 382.466919 495.285004 382.466919 C 477.00174 382.466919 477.00174 382.466919 478.065186 393.395538 C 478.650085 399.406311 484.279846 440.126404 490.575775 483.884674 C 496.871704 527.642944 501.599823 565.193787 501.082733 567.331055 C 500.565674 569.468323 498.385803 572.869202 496.238556 574.888672 C 493.563873 577.404175 490.686554 578.350098 487.101044 577.892761 C 484.222626 577.525635 473.821045 574.547485 463.986389 571.27478 L 446.105255 565.324341 Z M 655.440918 788.137878 C 652.046875 788.137878 648.468994 786.549805 645.771423 783.845947 C 643.073853 781.142029 641.489441 777.555847 641.489441 774.153809 C 641.489441 770.125732 643.59491 766.493469 649.775818 759.858093 C 654.333313 754.965515 660.666504 749.713623 663.849426 748.187134 C 669.011047 745.711853 670.138 745.693787 674.273621 748.020508 C 676.823914 749.455322 680.081787 752.720764 681.513245 755.277039 C 683.834534 759.422424 683.816528 760.551941 681.346924 765.725586 C 679.824097 768.916016 674.584412 775.263916 669.703247 779.832153 C 663.083435 786.027527 659.459534 788.137878 655.440918 788.137878 Z M 725.426392 788.131348 C 723.876709 788.127747 720.253784 786.679565 717.375305 784.913208 C 714.496826 783.14679 709.217834 778.448425 705.644226 774.47229 C 702.070557 770.496277 698.647583 765.250366 698.037781 762.814819 C 697.333191 760.000977 697.986633 756.768372 699.8302 753.948181 C 701.425964 751.50708 704.652588 748.632507 707.00061 747.560181 C 710.206177 746.096191 712.464539 746.147766 716.066895 747.767273 C 718.705505 748.95343 723.872864 752.817322 727.549927 756.353699 C 731.227051 759.890076 735.412292 765.032043 736.850586 767.780396 C 738.288757 770.528687 739.00824 774.603271 738.449463 776.834961 C 737.890625 779.06665 735.365784 782.522766 732.838684 784.515259 C 730.311707 786.50769 726.976135 788.134949 725.426392 788.131348 Z M 146.050919 746.171936 C 135.24324 746.171936 133.139969 745.629822 129.398849 741.879944 C 126.699692 739.1745 125.116898 735.590149 125.116898 732.183289 C 125.116898 728.776367 126.699692 725.192078 129.398849 722.486572 C 133.139969 718.736694 135.24324 718.194641 146.050919 718.194641 C 156.858597 718.194641 158.961868 718.736694 162.702988 722.486572 C 165.402161 725.192078 166.98494 728.776367 166.98494 732.183289 C 166.98494 735.590149 165.402161 739.1745 162.702988 741.879944 C 158.961868 745.629822 156.858597 746.171936 146.050919 746.171936 Z M 215.830994 746.171936 C 205.023315 746.171936 202.920044 745.629822 199.178925 741.879944 C 196.479767 739.1745 194.896973 735.590149 194.896973 732.183289 C 194.896973 728.776367 196.479767 725.192078 199.178925 722.486572 C 202.920044 718.736694 205.023315 718.194641 215.830994 718.194641 C 226.638672 718.194641 228.741959 718.736694 232.483032 722.486572 C 235.182205 725.192078 236.765015 728.776367 236.765015 732.183289 C 236.765015 735.590149 235.182205 739.1745 232.483032 741.879944 C 228.741959 745.629822 226.638672 746.171936 215.830994 746.171936 Z M 418.394073 732.176758 C 416.844391 732.173157 413.208069 730.722473 410.313354 728.953064 C 407.41864 727.183655 400.883911 719.695068 395.791748 712.311768 C 390.699585 704.928467 383.557983 692.412354 379.921509 684.498108 C 376.284973 676.583862 371.144806 663.813721 368.498871 656.119995 C 365.852936 648.426208 363.29599 639.240417 362.816742 635.707031 C 362.104767 630.458374 362.7677 628.458496 366.439209 624.778442 C 369.226318 621.984802 372.877472 620.274048 376.052582 620.274048 C 378.868347 620.274048 382.799561 621.651062 384.788513 623.334045 C 386.881683 625.105164 390.615295 633.39093 393.65274 643.005615 C 396.539032 652.141968 402.124878 666.305481 406.065765 674.480103 C 410.006592 682.654663 416.506256 693.632019 420.50943 698.874146 C 424.512665 704.116211 428.8349 710.292053 430.114532 712.598145 C 431.394104 714.904297 431.982056 718.624207 431.421112 720.864563 C 430.860077 723.10498 428.333496 726.568176 425.806396 728.560608 C 423.279297 730.553101 419.943787 732.180359 418.394073 732.176758 Z M 669.602295 732.176758 C 668.052673 732.173157 664.429688 730.724976 661.551208 728.958557 C 658.672791 727.1922 653.393799 722.493774 649.820129 718.5177 C 646.24646 714.541626 642.823547 709.295715 642.213684 706.860168 C 641.509094 704.046387 642.162598 700.813782 644.006165 697.99353 C 645.601868 695.55249 648.828552 692.677856 651.176453 691.605591 C 654.38208 690.141602 656.640442 690.193176 660.242859 691.812622 C 662.881409 692.998779 668.048828 696.862671 671.725891 700.399109 C 675.403015 703.935425 679.588257 709.077454 681.02655 711.825745 C 682.464722 714.574097 683.184143 718.648621 682.625366 720.880371 C 682.066589 723.112061 679.541748 726.568176 677.014648 728.560608 C 674.48761 730.553101 671.152039 732.180359 669.602295 732.176758 Z M 711.264954 732.183289 C 707.870911 732.183289 704.293152 730.595215 701.595459 727.891296 C 698.897888 725.187378 697.313538 721.601196 697.313538 718.199158 C 697.313538 714.171143 699.419006 710.538818 705.599915 703.903442 C 710.15741 699.010925 716.490601 693.759033 719.673462 692.232544 C 724.835083 689.757202 725.962036 689.739197 730.097656 692.065918 C 732.64801 693.500732 735.905823 696.766174 737.33728 699.322449 C 739.658569 703.467773 739.640564 704.59729 737.170959 709.770996 C 735.648132 712.961426 730.408508 719.309326 725.527283 723.877502 C 718.907471 730.072937 715.283569 732.183289 711.264954 732.183289 Z M 180.940964 718.194641 C 177.542007 718.194641 173.966064 716.608154 171.266907 713.902649 C 167.525787 710.152771 166.98494 708.044617 166.98494 697.211609 C 166.98494 686.378662 167.525787 684.270508 171.266907 680.52063 C 173.966064 677.815186 177.542007 676.228638 180.940964 676.228638 C 184.339905 676.228638 187.915848 677.815186 190.615021 680.52063 C 194.356125 684.270508 194.896973 686.378662 194.896973 697.211609 C 194.896973 708.044617 194.356125 710.152771 190.615021 713.902649 C 187.915848 716.608154 184.339905 718.194641 180.940964 718.194641 Z M 73.326523 602.361633 C 78.304054 601.898743 86.694252 599.852356 91.971367 597.814209 C 97.248474 595.776001 107.596977 590.660217 114.96804 586.445679 C 122.339073 582.231201 134.906326 573.667114 142.895218 567.414307 C 150.884109 561.161621 164.08638 549.022705 172.233597 540.439209 C 180.380814 531.855591 191.853653 517.783203 197.728806 509.167267 C 203.603943 500.55127 212.094543 486.13623 216.596771 477.13382 C 221.098953 468.131348 226.997559 453.967834 229.704651 445.659363 C 232.411804 437.35083 235.979385 422.684296 237.632584 413.067108 C 239.666122 401.237915 240.319077 391.055969 239.651215 381.592621 C 239.108185 373.898865 237.384552 363.276215 235.820847 357.986786 C 234.257187 352.697327 231.162476 345.219055 228.943726 341.368408 C 225.330353 335.097473 223.239227 333.741943 208.894409 328.372467 C 197.168777 323.983337 192.53476 322.936279 191.593246 324.463287 C 190.885941 325.610382 187.784836 339.912994 184.701904 356.247009 C 181.618942 372.580933 176.375534 400.703003 173.049866 418.740479 C 169.724197 436.777954 166.18161 454.489838 165.177429 458.100128 C 164.173264 461.71048 161.423035 465.931 159.065826 467.479156 C 156.686295 469.041931 152.644714 469.962494 149.979324 469.548828 C 147.338959 469.139008 133.40329 464.264343 119.011147 458.716248 C 104.619003 453.168091 91.312813 447.136414 89.441841 445.312561 C 87.396202 443.318451 86.06546 439.715363 86.10379 436.274658 C 86.149818 432.142914 91.227974 422.29245 104.377914 400.827026 C 114.3936 384.477783 130.310638 358.308807 139.749084 342.673706 C 149.187546 327.038605 157.017975 312.985718 157.150055 311.445038 C 157.320648 309.454834 152.844299 306.896851 141.689667 302.610352 C 127.05777 296.98761 125.474869 296.721252 118.433327 298.697266 C 114.277618 299.863464 106.427361 303.726257 100.988304 307.28125 C 95.549248 310.836273 86.720665 318.388031 81.369209 324.062897 C 76.017754 329.737793 68.785591 338.708679 65.297729 343.998108 C 61.809868 349.287567 55.020828 361.996094 50.210964 372.239319 C 45.401073 382.482452 39.503586 397.649994 37.105427 405.944977 C 34.707241 414.239899 31.744308 427.891235 30.521088 436.281281 C 29.297865 444.671295 28.297045 463.409943 28.297045 477.922668 C 28.297045 495.529999 29.369123 510.656555 31.519218 523.385803 C 33.291405 533.877808 36.72057 548.75708 39.139542 556.450806 C 41.558544 564.144531 46.108925 575.554016 49.251484 581.805237 C 52.39407 588.056458 57.060268 595.428223 59.620857 598.187134 C 63.86166 602.756287 65.082809 603.128235 73.326523 602.361633 Z M 820.820313 602.697144 C 826.821289 602.77002 829.208679 601.82843 832.781494 597.979614 C 835.236511 595.334839 839.830078 588.036926 842.989319 581.761841 C 846.14856 575.486816 850.734497 563.683838 853.180115 555.533142 C 855.625916 547.382385 858.87323 534.025208 860.396362 525.850586 C 861.919495 517.676025 863.647339 501.040375 864.236206 488.882538 C 864.867065 475.854187 864.470764 459.34021 863.271057 448.665161 C 862.151611 438.703461 859.308044 422.943054 856.952026 413.64212 C 854.596191 404.341156 849.596191 389.588135 845.841064 380.857666 C 842.085876 372.127136 835.588196 358.971527 831.401672 351.622925 C 827.21521 344.274323 818.739563 332.787933 812.566895 326.097565 C 806.394165 319.407196 797.380981 311.25827 792.537415 307.9888 C 787.693848 304.71936 779.9375 300.781372 775.300964 299.237793 C 766.870972 296.431213 766.870972 296.431213 749.531555 302.950439 C 732.192261 309.469604 732.192261 309.469604 735.532227 314.930939 C 737.369263 317.934662 753.982666 345.178375 772.450928 375.472595 C 797.612366 416.74585 806.04718 431.987183 806.099976 436.274658 C 806.142456 439.722351 804.81842 443.314392 802.768677 445.312561 C 800.897705 447.136414 787.591492 453.176575 773.199341 458.735016 C 758.80719 464.293518 744.525513 469.159485 741.462097 469.548309 C 737.304626 470.075989 734.835083 469.195465 731.722473 466.075562 C 728.237854 462.582794 726.513489 456.447113 721.229065 428.738647 C 717.75116 410.502075 712.009216 379.844055 708.469238 360.60965 C 704.929199 341.375244 701.413513 324.940552 700.656433 324.088135 C 699.879883 323.213684 692.313538 325.118744 683.293701 328.459595 C 668.711121 333.860992 666.924438 335.034943 662.945007 341.829834 C 660.545654 345.926758 657.434998 353.008545 656.032471 357.567078 C 654.630005 362.125671 653.049255 372.937134 652.519836 381.592621 C 651.873413 392.161499 652.463196 402.531799 654.315796 413.16922 C 655.833069 421.880859 659.403931 436.153961 662.251099 444.887207 C 665.098389 453.620392 671.117859 468.131348 675.627808 477.13382 C 680.137695 486.13623 686.94458 498.223053 690.75415 503.993347 C 694.563782 509.763641 701.817261 519.599426 706.873169 525.850586 C 711.929077 532.101807 721.855469 542.779968 728.932007 549.579956 C 736.008484 556.379883 747.686035 566.337524 754.88208 571.708008 C 762.078125 577.078552 773.407593 584.452332 780.058533 588.094238 C 786.709534 591.736145 796.914856 596.491211 802.737061 598.66095 C 808.559265 600.830688 816.696716 602.647034 820.820313 602.697144 Z M 72.781845 559.073669 C 67.596008 559.073669 65.230247 558.020081 62.444092 554.469788 C 60.456932 551.937622 56.860706 543.613892 54.452461 535.972656 C 52.044216 528.331299 48.906075 514.862549 47.478844 506.042053 C 46.05159 497.221497 44.90564 483.316345 44.932312 475.141754 C 44.963032 465.718048 45.810528 459.184113 47.248085 457.287506 C 48.495106 455.642365 51.682701 453.470337 54.331612 452.460876 C 57.871059 451.11203 60.363365 451.209686 63.733143 452.829254 C 66.255081 454.041382 69.31118 457.000214 70.524445 459.40451 C 71.737709 461.808807 72.741997 469.377655 72.756126 476.224152 C 72.770264 483.070618 73.931572 495.266998 75.336761 503.327179 C 76.741974 511.387299 79.543968 522.703186 81.563446 528.473511 C 83.582924 534.243774 85.644218 541.325806 86.144119 544.211304 C 86.790588 547.942871 85.963593 550.845764 83.279808 554.265625 C 80.329552 558.025024 78.039948 559.073669 72.781845 559.073669 Z M 819.42865 559.073669 C 814.170532 559.073669 811.880981 558.025024 808.930664 554.265625 C 806.246948 550.845764 805.419922 547.942871 806.066345 544.211304 C 806.566223 541.325806 808.627502 534.243774 810.647034 528.473511 C 812.666443 522.703186 815.468506 511.387299 816.873779 503.327179 C 818.278931 495.266998 819.440247 483.070618 819.454407 476.224152 C 819.468506 469.377655 820.472778 461.808807 821.686035 459.40451 C 822.899353 457.000214 825.926758 454.055084 828.413757 452.859833 C 831.723877 451.268921 834.331055 451.174194 838.143494 452.506348 C 841.007813 453.507202 844.369385 456.232635 845.613647 458.562836 C 847.301697 461.724396 847.596558 468.248383 846.775635 484.270752 C 846.170532 496.079895 844.460632 510.856506 842.97583 517.107727 C 841.491028 523.358887 838.675781 533.348755 836.719604 539.307495 C 834.76355 545.266296 831.585876 552.151367 829.658203 554.607605 C 826.98291 558.016724 824.56189 559.073669 819.42865 559.073669 Z M 423.622955 542.966431 C 424.954224 542.455627 430.583466 540.604248 436.132294 538.852295 C 446.096039 535.70636 446.365204 535.713867 457.841125 539.453613 C 464.232086 541.536377 469.753387 542.947388 470.110687 542.589233 C 470.467957 542.23114 465.656677 506.370819 459.418945 462.899597 C 453.181213 419.428375 447.63382 383.416229 447.091431 382.872589 C 446.549042 382.328857 445.66449 382.325836 445.125763 382.865814 C 444.587067 383.405762 439.486023 416.388428 433.790131 456.160553 C 428.094208 495.932678 422.931885 531.943359 422.318207 536.184326 C 421.426086 542.349854 421.687531 543.708984 423.622955 542.966431 Z M 141.238312 433.377655 C 141.94957 431.824066 144.513138 419.614716 146.935181 406.245758 C 149.357208 392.876862 151.027878 381.626953 150.647781 381.245941 C 150.267685 380.86499 146.867111 385.50827 143.090912 391.564423 C 139.314728 397.620575 133.234543 407.562592 129.579391 413.657776 C 125.924255 419.752991 122.836128 425.960907 122.716904 427.453156 C 122.575668 429.220947 125.539452 431.217987 131.222656 433.184387 C 139.215881 435.950104 140.053299 435.966278 141.238312 433.377655 Z M 755.224426 435.689758 C 757.2677 435.039734 761.610535 433.389252 764.875305 432.021973 C 768.177979 430.638763 770.566956 428.493347 770.260742 427.185516 C 769.958008 425.892761 764.463135 416.285767 758.049744 405.8367 C 751.636475 395.387634 745.195862 385.264648 743.737366 383.341217 C 741.258362 380.072113 741.152222 380.300201 742.110596 386.838379 C 742.674377 390.685272 744.583618 401.701324 746.353149 411.318512 C 748.122803 420.93573 750.006775 430.619446 750.539978 432.838013 C 751.304932 436.021332 752.29248 436.622528 755.224426 435.689758 Z M 502.180695 354.489594 C 501.057068 302.344238 501.057068 302.344238 495.663666 295.630981 C 492.512054 291.708191 487.436279 287.939941 483.452179 286.565186 C 478.377533 284.814148 467.854919 284.367065 442.302307 284.816589 C 410.878387 285.369446 407.563019 285.725952 403.158813 289.025879 C 400.512299 291.008667 396.728455 294.800903 394.750244 297.452881 C 391.564423 301.723816 391.089233 305.257996 390.591614 328.382233 L 390.029785 354.489594 L 446.105255 354.489594 L 502.180695 354.489594 Z M 223.625671 303.12738 C 224.554626 302.866028 226.964874 298.381653 228.981842 293.162109 C 230.99881 287.942566 234.488144 278.531982 236.735947 272.249573 C 239.496185 264.534912 240.4263 259.24353 239.601227 255.948669 C 238.671478 252.235474 236.207626 250.08429 229.285995 246.942505 C 224.284439 244.67218 211.556946 239.477356 201.002731 235.398315 C 190.448486 231.319275 178.944641 227.65033 175.438599 227.244873 C 170.736313 226.701172 168.162842 227.411133 165.628815 229.95105 C 163.739456 231.844788 159.210663 241.110901 155.564789 250.542297 C 151.918945 259.973633 148.618637 269.354309 148.230774 271.388062 C 147.59346 274.729675 151.109406 276.45929 184.731155 289.344238 C 205.194244 297.186279 222.696777 303.388672 223.625671 303.12738 Z M 670.392883 303.143311 C 671.801453 302.623962 689.088257 296.063293 708.807922 288.564026 C 743.49884 275.371399 744.63324 274.787354 743.782837 270.557678 C 743.299316 268.153381 740.05603 258.71106 736.575684 249.574707 C 733.095215 240.438354 728.556213 231.519592 726.489014 229.755371 C 723.931946 227.57312 720.758911 226.758179 716.563843 227.206299 C 713.172241 227.568665 698.621887 232.40448 684.229736 237.952698 C 669.221741 243.738342 656.69751 249.646362 654.862305 251.806213 C 652.818848 254.210999 651.899597 257.490112 652.318909 260.879089 C 652.680054 263.798035 655.234314 272.087708 657.995056 279.300598 C 660.755737 286.513489 664.098328 295.041321 665.423096 298.251343 C 667.028687 302.141785 668.685669 303.772827 670.392883 303.143311 Z M 455.700012 227.65625 C 432.672577 228.036438 405.981689 227.646118 396.386932 226.788818 C 386.792175 225.931519 367.984009 223.567322 354.590973 221.535156 C 341.197968 219.50293 317.837341 214.718994 302.678528 210.904175 C 287.519714 207.089417 265.899017 200.784241 254.632645 196.892822 C 243.366211 193.001282 226.690536 186.641846 217.5755 182.760742 C 208.460464 178.879578 191.582428 170.975952 180.06871 165.19696 C 168.554993 159.41803 151.284424 149.952393 141.689667 144.162109 C 132.09491 138.371887 116.654617 128.25647 107.377899 121.683533 C 98.101212 115.110413 84.755753 105.131653 77.721367 99.508301 C 70.686981 93.884949 56.688801 81.792053 46.614315 72.635193 C 36.539825 63.478271 22.0431 49.078186 14.399351 40.635193 C 4.116809 29.277283 0.326452 23.779602 -0.171988 19.500244 C -0.693481 15.022705 0.202408 12.666016 3.79472 9.065186 C 7.342472 5.509216 9.746512 4.573547 14.004805 5.091614 C 18.470406 5.634827 24.761909 10.975037 45.742062 32.030273 C 60.134205 46.473816 80.544868 65.213501 91.099113 73.67395 C 101.653351 82.13446 121.675331 96.659363 135.592407 105.951721 C 149.509445 115.24408 173.452744 129.244995 188.799713 137.064941 C 204.146652 144.884766 227.693588 155.648315 241.126282 160.983826 C 254.55896 166.319336 276.539642 173.84491 289.972321 177.707397 C 303.405029 181.569885 324.208191 186.702942 336.20163 189.114258 C 348.195068 191.525635 367.82074 194.710388 379.814178 196.19165 C 391.807617 197.672852 413.788361 199.378845 428.660217 199.98291 C 444.595642 200.630127 467.162628 200.215027 483.61203 198.972107 C 498.963623 197.812134 522.821594 194.958008 536.6297 192.629578 C 550.437805 190.301147 571.240967 185.995667 582.859009 183.061768 C 594.477051 180.12793 613.010437 174.662415 624.044434 170.916382 C 635.07843 167.170227 652.348938 160.675293 662.423462 156.483093 C 672.498047 152.290955 692.123657 142.999695 706.036011 135.835999 C 719.948364 128.672302 742.714233 115.216309 756.626587 105.933777 C 770.53894 96.651306 790.55719 82.13446 801.111389 73.67395 C 811.665588 65.213501 832.076294 46.473816 846.468445 32.030273 C 867.448547 10.975037 873.740112 5.634827 878.205688 5.091614 C 882.463989 4.573547 884.868042 5.509216 888.415833 9.065186 C 892.027161 12.68512 892.905029 15.013733 892.374695 19.566833 C 891.856384 24.017273 887.97052 29.4823 876.136902 42.404175 C 867.580811 51.746887 851.647095 67.363708 840.728638 77.108154 C 829.810059 86.852539 811.71936 101.75946 800.527039 110.234619 C 789.334717 118.709717 770.757019 131.537109 759.243347 138.73999 C 747.729675 145.942871 727.394165 157.391785 714.053467 164.181946 C 700.712769 170.972168 682.525635 179.561523 673.637634 183.269287 C 664.749573 186.97699 648.581299 193.076721 637.70813 196.82428 C 626.8349 200.571838 608.150574 206.181396 596.187256 209.2901 C 584.223999 212.398743 566.572754 216.470093 556.962341 218.337402 C 547.35199 220.204712 530.056763 222.909912 518.528503 224.348755 C 507.000214 225.787659 478.727448 227.276001 455.700012 227.65625 Z M 557.753357 130.671143 C 554.354431 130.671143 550.778442 129.084656 548.079346 126.379211 C 544.338196 122.629333 543.797363 120.521179 543.797363 109.688171 C 543.797363 98.855164 544.338196 96.747009 548.079346 92.997131 C 550.778442 90.291626 554.354431 88.7052 557.753357 88.7052 C 561.152283 88.7052 564.728271 90.291626 567.427429 92.997131 C 571.168518 96.747009 571.709412 98.855164 571.709412 109.688171 C 571.709412 120.521179 571.168518 122.629333 567.427429 126.379211 C 564.728271 129.084656 561.152283 130.671143 557.753357 130.671143 Z M 306.540527 116.682495 C 303.146423 116.682495 299.568634 115.094421 296.871063 112.390564 C 294.173431 109.686584 292.589081 106.100403 292.589081 102.698425 C 292.589081 98.67041 294.69455 95.038025 300.875458 88.40271 C 305.432953 83.510132 311.766083 78.258179 314.949097 76.731812 C 320.110657 74.256409 321.237549 74.238403 325.37323 76.565125 C 327.923553 77.999939 331.181396 81.265381 332.612854 83.821655 C 334.934143 87.96698 334.916138 89.096558 332.446594 94.270264 C 330.923737 97.460571 325.684052 103.808594 320.802856 108.376709 C 314.183044 114.572083 310.559174 116.682495 306.540527 116.682495 Z M 376.526031 116.675964 C 374.976349 116.672363 371.353333 115.224182 368.474915 113.457764 C 365.596497 111.691406 360.317474 106.993042 356.743805 103.016907 C 353.170105 99.040833 349.747223 93.794983 349.137329 91.359436 C 348.4328 88.545654 349.086273 85.313049 350.929871 82.492798 C 352.525574 80.051697 355.752197 77.177063 358.100159 76.104797 C 361.305847 74.640747 363.564148 74.692383 367.166534 76.311829 C 369.805115 77.497986 374.972443 81.362 378.649597 84.898315 C 382.326691 88.434631 386.511993 93.57666 387.950165 96.325012 C 389.388397 99.073303 390.10791 103.147827 389.549072 105.379578 C 388.990265 107.611267 386.465454 111.067383 383.938354 113.059814 C 381.411255 115.052246 378.075745 116.679504 376.526031 116.675964 Z M 522.863342 88.7052 C 512.055664 88.7052 509.952393 88.163147 506.211304 84.413208 C 503.512115 81.707764 501.929321 78.123413 501.929321 74.716553 C 501.929321 71.309631 503.512115 67.725281 506.211304 65.019836 C 509.952393 61.269958 512.055664 60.727844 522.863342 60.727844 C 533.671021 60.727844 535.774292 61.269958 539.515381 65.019836 C 542.214539 67.725281 543.797363 71.309631 543.797363 74.716553 C 543.797363 78.123413 542.214539 81.707764 539.515381 84.413208 C 535.774292 88.163147 533.671021 88.7052 522.863342 88.7052 Z M 592.643433 88.7052 C 581.835754 88.7052 579.732483 88.163147 575.991394 84.413208 C 573.292175 81.707764 571.709412 78.123413 571.709412 74.716553 C 571.709412 71.309631 573.292175 67.725281 575.991394 65.019836 C 579.732483 61.269958 581.835754 60.727844 592.643433 60.727844 C 603.451111 60.727844 605.554382 61.269958 609.295471 65.019836 C 611.994629 67.725281 613.577454 71.309631 613.577454 74.716553 C 613.577454 78.123413 611.994629 81.707764 609.295471 84.413208 C 605.554382 88.163147 603.451111 88.7052 592.643433 88.7052 Z M 320.701965 60.721375 C 319.152283 60.717712 315.529266 59.269592 312.650848 57.503174 C 309.77243 55.736755 304.493408 51.038391 300.919769 47.062256 C 297.346039 43.086243 293.923157 37.840393 293.313263 35.404785 C 292.608734 32.591003 293.262238 29.358398 295.105804 26.538208 C 296.701508 24.097107 299.928162 21.222473 302.276093 20.150208 C 305.481781 18.686157 307.740082 18.737793 311.342468 20.357239 C 313.981049 21.543396 319.148376 25.407349 322.825531 28.943665 C 326.502625 32.480042 330.687927 37.622009 332.126099 40.370422 C 333.564331 43.118652 334.283844 47.193237 333.725006 49.424927 C 333.166199 51.656677 330.641388 55.112732 328.114288 57.105225 C 325.587189 59.097656 322.251678 60.724854 320.701965 60.721375 Z M 363.416992 60.375488 C 358.596649 60.939514 356.373138 60.122498 352.695129 56.435913 C 349.017059 52.749207 348.201996 50.520569 348.76474 45.688965 C 349.298065 41.109802 351.928131 37.133972 359.335236 29.709534 C 366.74234 22.285095 370.708954 19.648926 375.277344 19.114319 C 380.097656 18.550293 382.321198 19.367249 385.999207 23.053833 C 389.677246 26.74054 390.49234 28.969177 389.929596 33.800842 C 389.396271 38.380005 386.766205 42.355835 379.3591 49.780212 C 371.951996 57.204651 367.985382 59.840881 363.416992 60.375488 Z M 557.753357 60.727844 C 554.354431 60.727844 550.778442 59.141418 548.079346 56.435913 C 544.338196 52.686035 543.797363 50.577881 543.797363 39.744873 C 543.797363 28.911865 544.338196 26.803772 548.079346 23.053833 C 550.778442 20.348389 554.354431 18.761902 557.753357 18.761902 C 561.152283 18.761902 564.728271 20.348389 567.427429 23.053833 C 571.168518 26.803772 571.709412 28.911865 571.709412 39.744873 C 571.709412 50.577881 571.168518 52.686035 567.427429 56.435913 C 564.728271 59.141418 561.152283 60.727844 557.753357 60.727844 Z"/>
</svg>
