<?xml version="1.0" encoding="UTF-8"?>
<!-- Generated by Pixelmator Pro 3.6.8 -->
<svg width="804" height="855" viewBox="0 0 804 855" xmlns="http://www.w3.org/2000/svg">
    <path id="Shape-copy" fill="#ffffff" fill-rule="evenodd" stroke="none" d="M 297.294159 312.858215 C 304.084869 289.315735 308.521698 277.478699 311.534912 271.365234 C 314.548004 265.25177 320.540009 255.574097 324.850433 249.859558 C 329.160889 244.14502 345.93808 224.703674 362.133057 206.655518 C 391.578644 173.84198 391.578644 173.84198 384.659851 168.139221 C 378.610382 163.152893 377.827179 161.597839 378.42627 155.762085 C 378.937836 150.780334 388.916321 134.438232 417.787262 91.298401 C 447.216248 47.325439 457.748352 32.976196 461.838959 31.28186 C 466.483093 29.358643 468.494293 29.654419 476.614563 33.457458 C 485.934143 37.823242 486.036926 37.829529 488.659668 34.189331 C 490.114655 32.169312 493.693359 26.630249 496.612488 21.87915 C 499.917633 16.500244 505.220215 11.307678 510.668335 8.11438 C 516.298157 4.815186 523.013428 2.689331 529.505737 2.151062 C 535.054688 1.690613 542.935669 2.315735 547.019287 3.538757 C 551.102905 4.762756 557.979492 9.022644 562.30072 13.005676 C 566.622009 16.98877 571.751221 23.787048 573.699097 28.112976 C 575.88324 32.964478 577.198853 39.902954 577.13147 46.217224 C 577.061401 52.785767 575.494568 59.774902 572.759888 65.718262 C 570.415527 70.81311 568.136902 76.231873 567.696228 77.760681 C 567.173706 79.572632 569.769836 82.051331 575.15863 84.885498 C 580.0802 87.473633 584.285583 91.315613 585.556946 94.38501 C 587.412659 98.864685 586.739075 102.049927 580.402283 118.755615 C 576.393066 129.325317 565.029846 158.814331 555.150757 184.286804 C 545.271545 209.760193 535.362244 232.545898 533.129883 234.922363 C 529.983826 238.272217 527.613037 239.069153 522.586792 238.466675 C 519.020447 238.039734 514.840393 237.125122 513.297729 236.434021 C 511.151398 235.472351 508.236816 239.714172 500.88208 254.502136 C 491.271118 273.827637 491.271118 273.827637 499.522888 288.307129 C 504.061401 296.271423 510.358948 308.994995 513.517578 316.582581 C 516.676208 324.169678 521.303345 338.359192 523.800232 348.114685 C 526.794556 359.813751 528.719849 373.735077 529.455994 389.010132 C 530.57196 412.168579 530.57196 412.168579 537.281067 418.711731 C 540.971069 422.310791 545.010315 428.66037 546.257263 432.822113 C 547.615417 437.355194 548.524231 451.728363 548.524231 468.675171 C 548.524231 485.47049 547.612244 500.005554 546.279297 504.454987 C 545.044617 508.575989 541.326843 514.65509 538.017578 517.964661 C 532.142029 523.84021 531.889404 524.777405 527.245178 557.929688 C 524.629578 576.601196 521.985107 596.582642 521.368591 602.332886 C 520.247681 612.788086 520.247681 612.788086 542.259827 614.169006 C 555.840088 615.020691 574.917175 614.698242 592.062134 613.326782 C 607.34668 612.10376 629.685303 610.613342 641.703491 610.014526 C 656.069458 609.29895 667.027405 609.702881 673.692322 611.19458 C 679.268005 612.442078 689.696899 616.398438 696.867737 619.985718 C 704.038635 623.573059 714.314941 630.813232 719.704163 636.074524 C 725.093323 641.336304 732.143799 650.218384 735.371826 655.813049 C 738.599854 661.407715 742.89978 671.283508 744.927185 677.759277 C 748.144958 688.038086 748.610352 694.746338 748.591248 730.560547 C 748.575317 760.187073 747.833496 774.351685 745.921692 781.534912 C 744.465576 787.005615 740.993042 796.17627 738.205139 801.914307 C 735.256165 807.982971 727.92865 817.577454 720.686218 824.852478 C 711.775757 833.803284 704.363586 839.192627 694.613525 843.810303 C 686.3172 847.739075 675.557495 851.070801 667.095459 852.330994 C 656.060608 853.97467 646.412292 853.790588 620.222717 851.437195 C 602.085022 849.807068 575.823303 848.484497 561.863403 848.498047 C 547.903564 848.511658 522.308838 849.745117 504.986389 851.239075 C 480.322876 853.366333 437.604706 853.963806 308.055389 853.993652 C 142.619904 854.031677 142.619904 854.031677 138.285507 849.697144 C 135.901581 847.313477 133.439926 842.102783 132.815109 838.11792 C 132.190353 834.133484 127.51886 800.026367 122.434128 762.324219 C 117.349335 724.62207 112.686829 690.635254 112.072929 686.796936 C 110.956848 679.819092 110.956848 679.819092 100.868279 692.35498 C 95.31958 699.250061 87.266594 707.550415 82.972725 710.800293 C 78.678864 714.050171 71.542145 717.724304 67.11338 718.965027 C 62.684608 720.205688 55.423569 721.165527 50.977779 721.098145 C 46.53199 721.031189 39.73423 719.936157 35.871647 718.665588 C 32.009117 717.394592 25.731628 714.296265 21.921793 711.780029 C 18.111902 709.263794 12.473703 703.399109 9.392431 698.74707 C 6.31116 694.095032 2.881325 686.914063 1.770556 682.789001 C 0.659844 678.664368 0.08682 670.647583 0.497181 664.974182 C 0.907542 659.300842 2.879911 651.371765 4.88021 647.353394 C 6.880566 643.335083 27.559652 615.192566 50.833832 584.813843 C 74.108009 554.435608 92.855606 529.366089 92.49511 529.104736 C 92.134674 528.843262 88.088112 527.553223 83.502724 526.238403 C 78.242775 524.730347 72.633354 521.192871 68.304489 516.65387 C 64.530838 512.697021 60.932743 506.737793 60.308666 503.411499 C 59.684643 500.085175 59.43734 482.295227 59.759159 463.878845 C 60.344284 430.394104 60.344284 430.394104 65.687233 423.395447 C 68.625862 419.546265 74.461777 414.838593 78.65596 412.933899 C 82.850151 411.029205 90.241859 409.452454 95.081947 409.430267 C 103.882156 409.389557 103.882156 409.389557 103.882156 384.455353 C 103.882156 359.52066 103.882156 359.52066 132.958038 323.05426 C 152.626099 298.386475 162.305313 284.738342 162.872635 280.873779 C 163.711227 275.159241 163.711227 275.159241 152.786606 284.60083 C 146.778076 289.793396 136.804794 297.302734 130.623764 301.287598 C 124.442734 305.272461 114.210052 310.855835 107.88456 313.694519 C 101.559021 316.533264 93.469902 319.328552 89.908783 319.906616 C 83.720627 320.910767 82.599686 320.133667 64.590546 302.362305 C 48.784683 286.764709 45.620411 282.681213 44.96088 277.03186 C 44.281281 271.210571 45.020306 269.56958 50.406792 264.938782 C 53.834476 261.991516 61.132835 255.97937 66.625389 251.577454 C 72.117943 247.176453 80.200157 238.989563 84.585907 233.385376 C 88.971588 227.78125 93.11235 221.736511 93.787598 219.953491 C 94.885643 217.053284 93.616737 216.711304 81.76403 216.711304 C 70.165138 216.711304 67.945862 216.144104 63.965446 212.163757 C 59.454865 207.65332 59.417946 207.329468 59.417946 172.247131 C 59.417946 137.164795 59.454865 136.840942 63.965446 132.330444 C 68.512894 127.782898 68.512894 127.782898 191.942581 127.782898 C 315.372223 127.782898 315.372223 127.782898 320.787659 133.197998 C 326.203217 138.614014 326.203217 138.614014 326.203217 172.075256 C 326.203217 205.536499 326.203217 205.536499 321.108337 210.950684 C 318.306152 213.928711 308.301758 221.466064 298.876251 227.70166 C 281.738983 239.039307 281.738983 239.039307 281.738983 263.344849 C 281.738983 287.65033 281.738983 287.65033 289.516632 300.254517 L 297.294159 312.858215 Z M 490.392151 609.478516 C 496.923218 561.378601 499.281342 543.036865 499.846161 537.687378 C 500.873047 527.960815 500.873047 527.960815 458.002319 527.960815 C 415.131622 527.960815 415.131622 527.960815 415.131622 536.888062 C 415.131622 541.797974 413.845245 550.146729 412.273102 555.440674 C 410.700867 560.734985 406.819672 568.021729 403.648285 571.633911 C 400.476898 575.246094 394.468262 580.004883 390.295898 582.209473 C 384.488983 585.277954 379.376587 586.238159 368.497894 586.303772 C 354.286102 586.389282 354.286102 586.389282 348.118469 595.56897 C 344.726349 600.617249 339.115509 606.647949 335.649872 608.970093 C 332.184357 611.29187 325.93158 614.112915 321.754822 615.238708 C 317.578156 616.36499 309.803345 616.77478 304.47757 616.150146 C 294.794342 615.014404 294.794342 615.014404 291.215424 621.972778 C 289.246948 625.800232 285.267365 631.128906 282.371765 633.814758 C 279.476288 636.50061 274.352936 640.088806 270.986481 641.78772 C 267.620026 643.487061 260.851044 645.352844 255.944244 645.934082 C 250.065308 646.630615 243.91362 645.958008 237.905869 643.962402 C 232.869247 642.289795 225.585983 637.834045 221.632095 634.006592 C 217.695831 630.196289 212.953781 623.744019 211.09433 619.668213 C 209.234756 615.592407 207.693939 609.756226 207.670197 606.699463 C 207.626999 601.141479 207.626999 601.141479 190.750168 601.024292 C 173.873459 600.907166 173.873459 600.907166 155.268845 623.979248 L 136.664246 647.050842 L 148.188736 732.477905 C 154.527222 779.462402 160.129868 819.363647 160.639053 821.146667 C 161.508224 824.190735 168.75293 824.388855 279.172119 824.388855 C 396.779449 824.388855 396.779449 824.388855 391.249695 817.441345 C 388.208344 813.620178 383.608887 806.254272 381.028778 801.072998 C 378.448669 795.891785 375.061859 786.75415 373.502502 780.767761 C 371.391327 772.662292 370.667419 759.90979 370.667419 730.828735 C 370.667419 701.737305 371.391113 688.996582 373.504211 680.883423 C 375.064453 674.893433 379.024567 664.933044 382.304413 658.749451 C 385.584259 652.565857 392.864014 642.910339 398.481628 637.292603 C 404.099243 631.675354 413.993927 624.267822 420.46994 620.832031 C 426.945831 617.39624 436.522644 613.446167 441.751617 612.053955 C 446.980591 610.661743 460.063751 609.512451 470.825531 609.500671 L 490.392151 609.478516 Z M 476.269897 823.399658 C 486.969147 822.830627 503.643219 821.592651 513.323425 820.648193 C 523.003601 819.703796 544.013 818.90863 560.010742 818.881042 C 576.008606 818.853455 603.937744 820.142517 622.075378 821.745972 C 647.045471 823.95282 657.470154 824.181702 665.007019 822.688599 C 670.481812 821.603943 678.746948 818.833069 683.374146 816.53125 C 688.001282 814.229431 695.436279 808.703552 699.89624 804.250977 C 704.356262 799.798401 709.696838 792.839539 711.764343 788.786804 C 713.831909 784.73407 715.220398 781.115112 714.849792 780.74469 C 714.47937 780.374268 710.461121 782.545349 705.920349 785.569519 C 701.3797 788.594116 693.268799 792.725098 687.895996 794.749695 C 682.523315 796.774231 672.518921 799.274597 665.663879 800.305908 C 656.410583 801.697632 645.326904 801.467896 622.631287 799.412598 C 605.818237 797.890076 578.30603 796.644409 561.492981 796.644409 C 544.679932 796.644409 517.167725 797.916321 500.354675 799.470886 C 483.541626 801.025085 464.783295 801.813477 458.669495 801.222717 C 452.555695 800.632019 443.384918 798.818665 438.29007 797.193054 C 433.195221 795.567871 426.108704 792.716064 422.542328 790.855713 C 418.975952 788.995361 413.334595 785.684387 410.006012 783.497925 C 403.954163 779.522095 403.954163 779.522095 405.869598 784.559937 C 406.923157 787.330811 410.353943 793.175171 413.493805 797.547241 C 416.633636 801.919312 422.965912 808.199219 427.565704 811.502441 C 432.165405 814.805664 440.628632 819.066467 446.372803 820.971191 C 454.963348 823.819397 460.269226 824.250427 476.269897 823.399658 Z M 476.269897 771.456421 C 485.950104 770.888794 501.790558 769.665283 511.470734 768.737549 C 521.15094 767.810364 543.66095 767.040527 561.492981 767.026489 C 579.324951 767.012939 607.670898 768.233276 624.483948 769.738525 C 645.787537 771.645935 657.971436 771.944458 664.681152 770.723267 C 669.976624 769.759338 678.390198 766.903015 683.377991 764.375488 C 688.365723 761.847961 696.688171 755.138794 701.872375 749.466797 C 707.647278 743.147949 712.852722 735.029846 715.311951 728.506592 C 718.599243 719.787354 719.193054 714.982422 718.592468 701.962585 C 718.011963 689.37738 716.799866 683.899902 712.774841 675.672729 C 709.760254 669.511353 703.573059 661.517578 697.576538 656.037354 C 691.463379 650.449951 683.250977 645.199951 676.815796 642.765137 C 667.362244 639.187805 663.677795 638.84314 643.937012 639.688538 C 631.709412 640.212769 607.531921 641.684143 590.209473 642.959229 C 562.499146 644.998657 553.81543 644.876587 517.955078 641.941528 C 495.537781 640.106445 471.777191 638.647766 465.15387 638.699768 C 457.573883 638.759033 449.197144 640.264771 442.548126 642.762451 C 436.696899 644.961121 427.907318 650.397461 422.843903 654.949585 C 417.509888 659.745483 411.106934 668.175232 407.469666 675.190613 C 401.706635 686.305725 401.236542 688.508057 401.236542 704.388794 C 401.236542 716.570007 402.218292 724.109619 404.612061 730.313538 C 406.468567 735.124817 411.775787 743.275024 416.405792 748.424622 C 421.035767 753.574219 428.628662 760.017456 433.278778 762.742615 C 437.929016 765.467773 445.544159 768.775574 450.201508 770.09314 C 455.856995 771.693481 464.515076 772.14624 476.269897 771.456421 Z M 503.192047 742.871155 C 500.503967 742.871155 496.302185 740.839783 493.786072 738.323608 C 490.703796 735.241516 489.238647 731.703064 489.238647 727.341858 C 489.238647 722.598022 490.520721 719.899536 494.120239 717.067993 C 496.805054 714.956177 501.297974 713.228333 504.104584 713.228333 C 506.911316 713.228333 510.964844 714.6875 513.11261 716.47052 C 515.260315 718.25354 517.534424 722.389038 518.166199 725.659729 C 519.127625 730.636536 518.396362 732.525391 513.682678 737.238953 C 510.271759 740.649841 506.134247 742.871155 503.192047 742.871155 Z M 578.38031 742.75354 C 576.734558 742.689331 573.566711 741.902283 571.340637 741.005371 C 569.114563 740.108398 566.404968 737.71521 565.319458 735.686584 C 564.233887 733.658447 563.345642 730.045349 563.345642 727.657593 C 563.345642 725.269836 564.640076 721.46814 566.222168 719.20929 C 567.804199 716.950867 571.139038 714.590698 573.632813 713.964722 C 576.126648 713.338684 580.236145 713.345947 582.765076 713.98053 C 585.293945 714.615601 588.646484 717.616699 590.215088 720.649902 C 591.907288 723.922363 592.589722 728.066895 591.893188 730.841858 C 591.24762 733.414612 588.616394 737.17334 586.046021 739.19519 C 583.475769 741.217041 580.026184 742.818237 578.38031 742.75354 Z M 651.406067 742.871155 C 648.717957 742.871155 644.516235 740.839783 642.000122 738.323608 C 638.917847 735.241516 637.452698 731.703064 637.452698 727.341858 C 637.452698 722.598022 638.734741 719.899536 642.33429 717.067993 C 645.019104 714.956177 649.512024 713.228333 652.318604 713.228333 C 655.125366 713.228333 659.178833 714.6875 661.32666 716.47052 C 663.474365 718.25354 665.748474 722.389038 666.380249 725.659729 C 667.341675 730.636536 666.610352 732.525391 661.896729 737.238953 C 658.485779 740.649841 654.348267 742.871155 651.406067 742.871155 Z M 458.727844 698.406921 C 456.039734 698.406921 451.837982 696.37561 449.321869 693.859375 C 446.239594 690.777344 444.774414 687.238892 444.774414 682.877686 C 444.774414 678.133789 446.056519 675.435303 449.656006 672.603821 C 452.340851 670.491943 456.833771 668.76416 459.640381 668.76416 C 462.447113 668.76416 466.50061 670.223267 468.648438 672.006287 C 470.796112 673.789307 473.070251 677.924805 473.702026 681.195496 C 474.663391 686.172302 473.932129 688.061157 469.218445 692.774719 C 465.807556 696.185608 461.670013 698.406921 458.727844 698.406921 Z M 563.558899 698.289307 C 561.913147 698.225098 558.7453 697.43811 556.519226 696.541138 C 554.293152 695.644165 551.583557 693.250977 550.498047 691.222412 C 549.412476 689.194214 548.524231 685.581116 548.524231 683.193359 C 548.524231 680.805603 549.818665 677.003906 551.400757 674.745056 C 552.982788 672.486694 556.317627 670.126465 558.811462 669.500488 C 561.305237 668.874512 565.414734 668.881714 567.943665 669.516357 C 570.496399 670.157227 573.859802 673.219421 575.505066 676.401001 C 577.151978 679.585693 577.989197 684.041931 577.389526 686.43103 C 576.796082 688.795715 574.114685 692.457642 571.430847 694.568604 C 568.747192 696.679565 565.204773 698.354004 563.558899 698.289307 Z M 637.665955 698.289307 C 636.020203 698.225098 632.852295 697.43811 630.626221 696.541138 C 628.400208 695.644165 625.690613 693.250977 624.605042 691.222412 C 623.51947 689.194214 622.631287 685.581116 622.631287 683.193359 C 622.631287 680.805603 623.925659 677.003906 625.507751 674.745056 C 627.089844 672.486694 630.424622 670.126465 632.918457 669.500488 C 635.412292 668.874512 639.52179 668.881714 642.050659 669.516357 C 644.603394 670.157227 647.966797 673.219421 649.612122 676.401001 C 651.258972 679.585693 652.096191 684.041931 651.496521 686.43103 C 650.903137 688.795715 648.22168 692.457642 645.537903 694.568604 C 642.854187 696.679565 639.311768 698.354004 637.665955 698.289307 Z M 147.420029 507.353394 C 84.822746 589.265991 58.730373 623.41748 49.051659 636.092163 C 37.336632 651.433289 31.105564 661.283752 30.411772 665.559021 C 29.754786 669.607239 30.47566 674.312195 32.361862 678.287109 C 34.007607 681.755005 37.642113 686.011292 40.438541 687.744995 C 43.234909 689.479187 48.525959 690.9198 52.196426 690.946899 C 56.18317 690.976318 61.268642 689.318115 64.827896 686.827698 C 68.10479 684.534912 89.104172 659.7323 111.493233 631.710632 C 146.632996 587.730347 152.036163 580.128357 150.998001 576.130371 C 150.336487 573.582886 149.26088 557.065796 148.607697 539.426025 L 147.420029 507.353394 Z M 251.228195 616.889221 C 254.127747 616.889221 258.27005 614.705933 261.502045 611.473633 C 266.917603 606.058105 266.917603 606.058105 266.917603 549.324951 C 266.917603 492.591705 266.917603 492.591705 271.465027 488.044128 C 273.98114 485.527924 278.182892 483.496582 280.871002 483.496582 C 283.770569 483.496582 287.912842 485.679901 291.144836 488.91214 C 296.560394 494.327667 296.560394 494.327667 296.560394 536.239502 C 296.560394 578.151245 296.560394 578.151245 301.107849 582.698853 C 303.609009 585.200134 307.731079 587.246399 310.267975 587.246399 C 312.804901 587.246399 317.219696 585.23584 320.078644 582.778931 C 325.276855 578.311401 325.276855 578.311401 326.203217 534.441528 C 327.118561 491.090485 327.181335 490.529144 331.503296 487.033661 C 333.908936 485.088287 337.933167 483.496582 340.445984 483.496582 C 343.025635 483.496582 347.372833 485.854492 350.43045 488.91214 C 355.846008 494.327667 355.846008 494.327667 355.846008 521.418091 C 355.846008 547.710571 355.980011 548.642822 360.393463 553.05603 C 362.894623 555.557373 367.016693 557.603638 369.553589 557.603638 C 372.090515 557.603638 376.50531 555.592651 379.364258 553.134766 C 384.562469 548.666382 384.562469 548.666382 385.188141 498.017639 C 385.667023 459.259827 385.232025 445.643829 383.335449 440.019318 C 381.771698 435.381287 378.534058 431.108307 374.561951 428.440094 C 368.266754 424.210968 368.266754 424.210968 282.20816 424.210968 C 206.394791 424.210968 195.389664 424.571472 189.766739 427.239655 C 186.25621 428.905518 182.170135 432.615845 180.686539 435.484894 C 178.484573 439.74295 177.989166 451.961761 177.989166 502.015656 C 177.989166 563.329895 177.989166 563.329895 182.536621 567.877441 C 185.052719 570.393677 189.254486 572.424988 191.942581 572.424988 C 194.842133 572.424988 198.984421 570.241699 202.216431 567.00946 C 207.631973 561.593872 207.631973 561.593872 207.631973 527.092773 C 207.631973 492.931854 207.676865 492.546478 212.179428 488.044128 C 214.695526 485.527924 218.897293 483.496582 221.585388 483.496582 C 224.48494 483.496582 228.627228 485.679901 231.859238 488.91214 C 237.27478 494.327667 237.27478 494.327667 237.27478 551.060913 C 237.27478 607.794067 237.27478 607.794067 241.822235 612.341675 C 244.338333 614.85791 248.5401 616.889221 251.228195 616.889221 Z M 652.274048 364.210266 C 661.117676 367.312683 664.556213 371.690155 670.383789 382.56604 C 674.739807 390.695923 682.332642 401.38678 687.256897 406.324249 C 692.345215 411.426331 702.102966 418.224609 709.861938 422.073792 C 720.042847 427.123871 723.96936 430.140808 725.305176 433.938873 L 727.096436 439.032379 L 725.305176 444.125885 C 723.971191 447.918976 720.052307 450.935913 709.951172 455.947083 C 702.491577 459.647003 692.319763 466.682281 687.346985 471.580383 C 682.374268 476.478027 675.277588 486.373749 671.576782 493.570496 C 667.875854 500.766815 663.176941 508.114197 661.134766 509.897217 C 659.092468 511.680237 655.105225 513.139404 652.274048 513.139404 C 649.442932 513.139404 645.455688 511.680237 643.413391 509.897217 C 641.371155 508.114197 636.672302 500.766815 632.971375 493.570496 C 629.270569 486.373749 622.173889 476.478027 617.201111 471.580383 C 612.228394 466.682281 602.05658 459.647003 594.596985 455.947083 C 584.49585 450.935913 580.576965 447.918976 579.242981 444.125885 C 578.089844 440.846588 578.089844 437.21814 579.242981 433.938873 C 580.578796 430.140808 584.50531 427.123871 594.686218 422.073792 C 602.44519 418.224609 612.202942 411.426331 617.29126 406.324249 C 622.215454 401.38678 629.80835 390.695923 634.164368 382.56604 C 639.991943 371.690155 643.43042 367.312683 647.179199 365.997803 L 652.274048 364.210266 Z M 89.987091 439.95871 C 89.186775 481.465698 89.383141 494.632996 89.907143 495.998535 C 90.610435 497.831299 94.381882 498.338806 104.314003 497.936676 C 117.768173 497.391663 117.768173 497.391663 133.057266 477.245148 C 147.387512 458.362 148.346359 456.529205 148.346359 448.018494 C 148.346359 438.938293 148.346359 438.938293 119.166725 439.448517 L 89.987091 439.95871 Z M 517.955078 497.391663 L 517.955078 439.95871 L 466.543365 439.466156 L 415.131622 438.973572 L 415.131622 468.675171 L 415.131622 498.376801 L 466.543365 497.884216 L 517.955078 497.391663 Z M 677.797974 439.102936 L 652.274048 413.119354 L 639.546326 426.076324 L 626.818542 439.033264 L 639.08313 451.830139 C 645.828613 458.868561 651.764526 464.495819 652.274048 464.335236 C 652.78363 464.174652 658.734924 458.431641 665.499146 451.573212 L 677.797974 439.102936 Z M 296.560394 394.568176 C 296.560394 369.489655 296.560394 369.489655 277.570465 338.028076 L 258.580536 306.566101 L 221.527039 306.090271 L 184.473541 305.614441 L 159.462418 337.064697 C 134.451294 368.514465 134.451294 368.514465 133.92746 388.95224 C 133.403625 409.389557 133.403625 409.389557 148.409286 409.389557 C 161.691467 409.389557 164.136002 408.839569 169.692215 404.601837 C 173.144669 401.968475 179.891144 398.633545 184.684433 397.191132 C 191.29837 395.2005 205.834824 394.568176 244.979935 394.568176 L 296.560394 394.568176 Z M 500.354675 409.389557 C 500.354675 389.664185 499.085724 376.661072 497.534851 367.7677 C 495.983978 358.873871 492.997467 346.467804 490.898285 340.197815 C 488.798981 333.927856 484.703064 323.796082 481.796173 317.682129 C 478.889252 311.568237 472.971405 301.1474 468.645264 294.523682 C 464.319122 287.900024 460.42923 280.260437 460.000977 277.54657 C 459.464447 274.146973 463.035889 264.6828 471.48761 247.106812 C 478.233521 233.07782 483.111389 221.029114 482.327179 220.331665 C 481.543091 219.633301 467.031525 211.8526 450.079376 203.040588 L 419.25705 187.019653 L 396.541656 212.518372 C 384.048187 226.542786 367.307617 245.455811 359.340454 254.548218 C 350.933777 264.1427 342.140228 276.582214 338.386139 284.19104 C 334.828491 291.40271 330.644135 302.721436 329.087708 309.345093 C 327.058289 317.981567 326.250244 331.736389 326.23056 357.977814 L 326.203217 394.568176 L 347.972137 394.578583 C 359.945099 394.583984 372.680084 395.405396 376.272247 396.403198 C 379.86441 397.401459 386.533997 400.666718 391.093658 403.659668 C 399.383881 409.10144 399.383881 409.10144 449.869293 409.24527 L 500.354675 409.389557 Z M 621.915955 290.818359 C 625.083008 281.812805 629.391418 278.75061 643.04541 271.99939 C 656.736145 265.230103 663.063354 260.726868 671.727173 251.585571 C 678.677856 244.252686 686.31427 233.274109 692.106567 222.28833 C 699.182678 208.868225 702.572998 204.300781 706.464844 202.947449 L 711.559692 201.174377 L 716.654541 202.947449 C 720.556885 204.304382 723.903076 208.833862 730.950378 222.294678 C 737.476563 234.760437 743.735535 243.491882 752.480225 252.328308 C 761.92627 261.872986 768.650574 266.63855 781.237305 272.707703 C 794.053284 278.887207 798.054565 281.748535 799.434448 285.723511 L 801.20343 290.818359 L 799.434448 295.913208 C 798.054565 299.888123 794.053284 302.749451 781.237305 308.929443 C 768.669678 314.989075 761.906799 319.778137 752.458557 329.308838 C 743.779785 338.062927 737.735168 346.448822 732.126709 357.514648 C 727.737 366.175995 722.471863 374.721558 720.426392 376.504578 C 718.380798 378.287598 714.390808 379.746765 711.559692 379.746765 C 708.728516 379.746765 704.738586 378.287598 702.692993 376.504578 C 700.647522 374.721558 695.35553 366.183685 690.933289 357.53183 C 685.942383 347.767761 678.667236 337.349182 671.751953 330.061951 C 663.074158 320.917969 656.727539 316.4021 643.04541 309.637268 C 629.391418 302.886047 625.083008 299.823914 623.697937 295.885132 L 621.915955 290.818359 Z M 711.559692 329.724548 C 712.251587 329.724548 716.618347 324.830505 721.263489 318.849121 C 725.908508 312.867249 734.332886 304.321716 739.98407 299.859192 C 745.635254 295.395752 750.259033 291.327637 750.259033 290.818359 C 750.259033 290.309021 745.635254 286.240906 739.98407 281.777527 C 734.332886 277.315002 725.908508 268.768982 721.263489 262.787598 C 716.618347 256.806213 712.251587 251.91217 711.559692 251.91217 C 710.867737 251.91217 706.501038 256.806213 701.855896 262.787598 C 697.210815 268.768982 688.786499 277.315002 683.135315 281.777527 C 677.48407 286.240906 672.860291 290.309021 672.860291 290.818359 C 672.860291 291.327637 677.48407 295.395752 683.135315 299.859192 C 688.786499 304.321716 697.210815 312.867249 701.855896 318.849121 C 706.501038 324.830505 710.867737 329.724548 711.559692 329.724548 Z M 96.422325 286.134216 C 98.996773 285.489197 105.94838 282.019043 111.870293 278.423157 C 117.792206 274.826355 127.445473 267.432861 133.322037 261.992432 C 139.198608 256.552002 146.357544 248.707947 149.230743 244.562073 C 152.104019 240.416138 154.122574 236.719849 153.716461 236.348083 C 153.310333 235.976257 147.023346 232.691528 139.745285 229.047729 C 126.512581 222.423157 126.512581 222.423157 119.36586 234.681763 C 115.435196 241.423889 108.467537 251.141418 103.882156 256.276062 C 99.296776 261.410767 92.628716 268.300354 89.064255 271.585083 C 82.583344 277.55835 82.583344 277.55835 87.162392 282.432434 C 90.667084 286.163147 92.839714 287.031555 96.422325 286.134216 Z M 252.096191 275.996948 L 252.096191 246.354126 L 222.453384 246.354126 L 192.810577 246.354126 L 192.810577 261.175537 L 192.810577 275.996948 L 222.453384 275.996948 L 252.096191 275.996948 Z M 296.560394 157.42572 L 133.524963 157.42572 L 133.524963 175.012573 C 133.524963 192.598511 133.524963 192.598511 157.146576 204.558594 C 180.768188 216.517761 180.768188 216.517761 221.435104 216.614502 C 262.102051 216.711304 262.102051 216.711304 279.331207 205.350098 C 296.560394 193.989807 296.560394 193.989807 296.560394 175.707336 L 296.560394 157.42572 Z M 515.536682 202.213806 C 516.244446 201.526245 520.71521 190.959351 525.471619 178.731506 C 530.227966 166.503662 537.445313 147.7453 541.51001 137.046265 C 545.574707 126.34729 549.302368 115.925964 549.793457 113.887817 C 550.284668 111.849731 546.053589 118.73938 540.391296 129.198669 C 534.729004 139.657043 524.19635 159.409546 516.985474 173.092041 C 503.874695 197.969299 503.874695 197.969299 509.062164 200.716614 C 511.915375 202.228271 514.828857 202.901306 515.536682 202.213806 Z M 96.471451 187.068542 C 103.882156 187.068542 103.882156 187.068542 103.882156 172.247131 C 103.882156 157.42572 103.882156 157.42572 96.471451 157.42572 C 89.060753 157.42572 89.060753 157.42572 89.060753 172.247131 C 89.060753 187.068542 89.060753 187.068542 96.471451 187.068542 Z M 477.011261 182.752563 C 477.928436 182.476624 488.960693 162.701477 501.527313 138.806702 C 514.093933 114.91095 524.390076 94.489929 524.407593 93.424255 C 524.42511 92.359558 518.883484 88.638794 512.092896 85.15509 C 501.731079 79.841309 499.476074 79.258728 498.064636 81.533875 C 497.139648 83.024719 486.849518 102.586365 475.197693 125.003906 C 463.545868 147.421448 453.809723 167.00116 453.561981 168.515503 C 453.285614 170.204468 457.408661 173.585083 464.227509 177.260559 C 470.341339 180.556091 476.093964 183.027527 477.011261 182.752563 Z M 424.749054 155.455444 C 425.453308 155.520569 435.751923 136.761353 447.634857 113.769348 C 459.517914 90.777344 468.912933 71.639038 468.512726 71.238342 C 468.112671 70.83844 462.055634 79.019897 455.052917 89.42041 C 448.050079 99.820923 436.656982 116.66687 429.734772 126.856567 C 422.812592 137.046265 416.607849 146.837036 415.946564 148.61377 C 415.089905 150.9151 415.998016 152.346252 419.106537 153.591003 C 421.505737 154.551697 424.0448 155.391235 424.749054 155.455444 Z M 538.480957 64.702393 C 539.580566 64.752136 542.438477 60.610779 544.832031 55.500549 C 549.011169 46.578186 549.062622 45.954895 546.128235 39.801636 C 544.171387 35.698242 541.29425 32.947266 538.127502 32.153015 C 535.407715 31.470032 531.032715 31.667236 528.405151 32.591736 C 525.777527 33.515381 521.726135 37.093201 519.401917 40.542542 C 517.077759 43.990967 515.176086 48.343994 515.176086 50.214783 C 515.176086 52.483582 518.724731 55.448059 525.828979 59.115417 C 531.687988 62.139587 537.381531 64.653564 538.480957 64.702393 Z"/>
</svg>
