<?xml version="1.0" encoding="UTF-8"?>
<!-- Generated by Pixelmator Pro 3.6.8 -->
<svg width="16334" height="5484" viewBox="0 0 16334 5484" xmlns="http://www.w3.org/2000/svg">
    <path id="Shape-copy-6" fill="#ff6f3c" fill-rule="evenodd" stroke="none" d="M 2461.26001 4373.974609 C 2436.817627 4373.546875 2393.987549 4366.073242 2366.080566 4357.367188 C 2338.173584 4348.661133 2303.182617 4330.117188 2288.323486 4316.157715 C 2273.464355 4302.197266 2250.534668 4263.813965 2237.368896 4230.861816 C 2224.202881 4197.907715 2212.026367 4147.362305 2210.310547 4118.538574 C 2208.594727 4089.7146 2204.542969 4063.510742 2201.308594 4060.307861 C 2198.072998 4057.10498 2195.452881 3891.242432 2195.485596 3691.723877 C 2195.516846 3492.205322 2199.415039 3334.982422 2204.144775 3342.339355 C 2208.876221 3349.696289 2208.343018 3201.695557 2212.883789 3198.492676 C 2217.424561 3195.289551 2246.428955 2876.476318 2247.478027 2831.638916 C 2248.525879 2786.801514 2279.692627 2634.12915 2280.42334 2606.240723 C 2281.661621 2558.997803 2280.002686 2556.104736 2256.117432 2563.885498 C 2242.017578 2568.477295 2126.539795 2595.51001 2084.905518 2603.282227 C 2043.270996 2611.054443 1985.621704 2624.814453 1956.797852 2633.861816 C 1927.973877 2642.907959 1891.288208 2653.123779 1875.27478 2656.562744 C 1859.26123 2660.001709 1810.937988 2674.478516 1767.890503 2688.736084 C 1703.17981 2710.166016 1688.563843 2719.745117 1683.512695 2744.032715 C 1680.153442 2760.189697 1668.767456 2831.055908 1658.21167 2901.515869 C 1646.881104 2977.140381 1637.69873 3122.6604 1635.797974 3256.723389 C 1634.026611 3381.628174 1628.145142 3490.907227 1622.727295 3499.565186 C 1614.837158 3512.175293 1603.276245 3512.722656 1564.624512 3502.314697 C 1535.109619 3494.367676 1502.869507 3473.944336 1481.603027 3449.720703 C 1462.479004 3427.941162 1441.256592 3392.638672 1434.441162 3371.272705 C 1427.625854 3349.905273 1413.127808 3277.790771 1402.222412 3211.015869 C 1386.705078 3116.008545 1392.994507 2841.377197 1390.995605 2839.045654 C 1388.996826 2836.712646 1368.313232 2846.577637 1345.032227 2860.966064 C 1309.161255 2883.135254 1300.369751 2884.670654 1287.405762 2871.028564 C 1278.993774 2862.176025 1261.081055 2832.867188 1247.599609 2805.898438 C 1234.119507 2778.931152 1223.090332 2736.264648 1223.090332 2711.083008 C 1223.090332 2668.123535 1226.145386 2664.063477 1272.586426 2645.276367 C 1299.80957 2634.26416 1346.923096 2617.785889 1377.285278 2608.657471 C 1422.033081 2595.202881 1433.744629 2586.074463 1439.129761 2560.449463 C 1442.784912 2543.063965 1450.609619 2519.879639 1456.520874 2508.931641 C 1462.430664 2497.982178 1571.057495 1942.455566 1573.626343 1923.239258 C 1578.297852 1888.300781 1578.297852 1888.300781 1444.367188 1884.473633 C 1370.705811 1882.368164 1248.772461 1887.092285 1173.406494 1894.972412 C 1098.039185 1902.852783 1029.320923 1915.057617 1020.698669 1922.093262 C 1012.077759 1929.12915 959.027527 2099.969971 902.812622 2301.739014 C 846.596375 2503.508057 772.591003 2777.543701 738.354858 2910.706787 C 704.120117 3043.871338 659.093628 3235.158447 638.296326 3335.79126 C 605.922546 3492.441406 600.686584 3540.866943 601.897827 3672.426514 C 603.313782 3826.089844 603.313782 3826.089844 569.708862 3833.470703 C 545.84082 3838.712402 522.045227 3832.996094 487.581604 3813.736816 C 460.892975 3798.825195 422.866699 3766.492676 403.078766 3741.888184 C 367.098267 3697.15332 349.523834 3695.303711 349.629028 3524.584961 C 349.685883 3430.689209 357.311615 3421.498291 372.921326 3338.246338 C 380.443268 3298.127441 401.156708 3182.624268 407.171692 3148.996582 C 413.185272 3115.367432 434.639404 3027.584717 454.84671 2953.923584 C 475.054047 2880.262207 493.553955 2806.890869 495.957977 2790.877441 C 498.361969 2774.864014 508.515381 2735.558105 518.519531 2703.53125 C 528.523682 2671.504395 544.625305 2611.234863 554.301025 2569.600586 C 563.976746 2527.966064 584.346191 2454.594727 599.567749 2406.554443 C 614.787964 2358.513916 632.749023 2298.244629 639.481995 2272.623779 C 646.213501 2247.002686 664.650879 2181.493164 680.453918 2127.046875 C 696.258362 2072.600586 712.884583 2012.935303 717.403992 1994.456787 C 725.61969 1960.858887 725.61969 1960.858887 670.109985 1969.182617 C 639.580078 1973.761719 577.256409 1989.570557 531.611511 2004.312988 C 485.966614 2019.056885 396.213623 2045.680176 332.159821 2063.476318 C 268.105988 2081.272461 191.021317 2095.604248 160.861008 2095.324219 C 128.764435 2095.025635 90.125435 2085.562988 67.691811 2072.505127 C 44.335537 2058.912842 23.929184 2034.496094 15.46042 2010.009521 C 7.81479 1987.907227 1.26383 1945.304688 0.902731 1915.336182 C 0.48761 1880.980713 6.892139 1854.200928 18.238321 1842.856201 C 28.134424 1832.95874 58.269119 1819.286865 85.203682 1812.471436 C 112.138252 1805.656006 152.518784 1792.73877 174.936768 1783.765381 C 197.356186 1774.791992 270.726074 1753.5979 337.98288 1736.66626 C 405.239685 1719.73584 515.295227 1693.220459 582.552063 1677.744385 C 649.808838 1662.268311 731.040466 1647.581299 763.067383 1645.107666 C 812.554993 1641.284912 1066.158691 1596.606689 1223.090332 1596.871094 C 1438.235596 1597.233643 1532.770996 1602.060059 1607.41333 1616.492676 C 1661.859619 1627.02002 1735.229492 1646.574951 1770.459351 1659.948242 C 1815.117676 1676.900146 1840.440063 1694.736084 1854.083618 1718.848633 C 1868.996704 1745.20166 1871.151978 1762.557373 1863.138062 1791.752197 C 1857.353394 1812.82666 1849.932373 1865.410645 1846.646973 1908.606201 C 1843.360107 1951.801514 1821.805054 2061.858398 1798.745972 2153.175293 C 1775.686768 2244.493408 1749.845459 2358.513916 1741.319824 2406.554443 C 1732.794189 2454.594727 1730.233765 2498.490967 1735.630371 2504.10083 C 1741.217529 2509.909668 1779.656006 2505.9646 1824.915649 2494.938232 C 1868.627075 2484.287354 1920.112183 2474.456543 1939.328613 2473.091797 C 1958.545044 2471.725586 1977.258179 2466.576416 1980.916016 2461.650391 C 1984.57251 2456.7229 2214.19458 2418.516113 2236.990723 2418.403809 C 2259.786865 2418.291504 2288.61084 2410.762451 2301.044434 2401.669678 C 2317.605225 2389.560059 2323.651611 2371.170898 2323.651611 2332.905762 C 2323.651611 2304.175781 2579.033691 1189.240234 2583.757813 1160.416504 C 2592.344727 1108.008789 2592.344727 1108.008789 2649.726807 1111.080566 C 2681.287354 1112.770996 2730.088135 1125.278809 2758.175781 1138.874023 C 2786.261963 1152.470703 2819.55835 1179.912598 2832.166992 1199.855469 C 2850.834717 1229.383301 2853.960938 1249.491211 2849.006348 1308.152832 C 2845.659912 1347.770996 2816.791748 1482.017578 2784.854492 1606.47583 C 2752.916992 1730.935547 2718.234619 1876.705811 2707.782471 1930.409912 C 2697.329102 1984.114258 2680.194092 2054.258301 2669.703613 2086.285156 C 2659.211914 2118.312256 2620.628418 2312.518066 2620.628418 2336.449951 C 2620.628418 2379.962402 2620.628418 2379.962402 2763.293701 2387.352295 C 2841.760254 2391.416748 2939.4104 2397.892334 2980.295654 2401.742188 C 3032.391846 2406.646729 3095.557129 2406.602783 3113.7771 2408.652832 C 3145.694336 2412.242432 3147.684814 2409.407715 3168.405273 2330.854492 C 3180.231934 2286.01709 3209.213623 2183.821777 3232.810303 2103.754395 C 3256.406738 2023.687256 3278.244629 1949.185791 3281.3396 1938.197754 C 3286.271484 1920.683105 3279.981934 1919.032471 3230.393555 1924.831299 C 3184.324951 1930.216553 3168.173584 1926.978027 3143.411377 1907.38916 C 3126.687012 1894.157959 3102.352539 1858.24707 3089.334473 1827.586426 C 3076.317871 1796.925537 3062.136963 1750.21167 3057.820801 1723.778809 C 3050.314453 1677.811279 3051.400635 1675.472656 3082.782227 1670.053467 C 3100.825684 1666.937012 3149.655029 1648.64624 3191.289551 1629.406982 C 3232.924072 1610.166504 3316.7771 1576.07373 3377.62793 1553.645996 C 3438.47876 1531.218018 3540.674072 1499.200928 3604.728027 1482.498047 C 3668.781738 1465.795166 3763.115234 1444.32251 3814.358643 1434.781738 C 3865.602051 1425.241211 3964.16626 1411.805176 4033.38916 1404.922852 C 4124.285156 1395.886963 4185.760254 1395.992188 4254.666016 1405.29834 C 4307.14502 1412.386475 4369.950684 1422.568359 4394.236328 1427.925293 C 4418.520996 1433.281982 4467.211426 1455.131348 4502.437012 1476.480225 C 4542.720703 1500.895508 4581.979492 1537.795898 4608.247559 1575.93457 C 4638.352051 1619.647461 4650.359375 1649.909912 4651.262207 1684.362305 C 4652.066895 1715.055664 4646.330566 1736.063477 4635.229004 1743.083496 C 4625.722168 1749.094238 4608.534668 1754.094238 4597.034668 1754.192383 C 4579.254395 1754.343018 4577.32373 1747.989502 4584.125 1711.730469 C 4590.863281 1675.8125 4503.328125 1657.498779 4448.950195 1653.879395 C 4394.572266 1650.259766 4287.191895 1653.031982 4210.327637 1660.042236 C 4133.463379 1667.050781 4010.304443 1685.449951 3936.643311 1700.928711 C 3862.981934 1716.40918 3751.307129 1743.665039 3688.47876 1761.498047 C 3576.265137 1793.348633 3574.409912 1794.447754 3583.52832 1823.642578 C 3588.634766 1839.98877 3592.479004 1879.566162 3592.071045 1911.593018 C 3591.614502 1947.536621 3561.107422 2072.347412 3512.366211 2237.685303 C 3468.934814 2385.009277 3427.830566 2517.330811 3421.025146 2531.733398 C 3414.218262 2546.134766 3410.840576 2560.079834 3413.519043 2562.719727 C 3416.197266 2565.359619 3502.241211 2569.297607 3604.728027 2571.471436 C 3778.01709 2575.14624 3794.694336 2577.462158 3842.878418 2604.539063 C 3871.375244 2620.55249 3904.673096 2650.791016 3916.873779 2671.734619 C 3939.055664 2709.814941 3939.055664 2709.814941 3908.512939 2749.859863 C 3888.359619 2776.28125 3865.166992 2792.001953 3840.340576 2796.070557 C 3819.645752 2799.461182 3763.406738 2807.422607 3715.366455 2813.764404 C 3667.325928 2820.10498 3588.714355 2832.716553 3540.674072 2841.789551 C 3492.633789 2850.862549 3423.231689 2861.833252 3386.447998 2866.170654 C 3319.566406 2874.055176 3319.566406 2874.055176 3302.734131 2934.370117 C 3293.476318 2967.542969 3277.6604 3026.12915 3267.588135 3064.562012 C 3257.515625 3102.994873 3241.468018 3172.776367 3231.92749 3219.635498 C 3222.388184 3266.49292 3214.652832 3347.724609 3214.741211 3400.150635 C 3214.827881 3452.575439 3218.202881 3507.809326 3222.241699 3522.893066 C 3229.185059 3548.833984 3233.741455 3550.062256 3306.51709 3545.609619 C 3364.466309 3542.063965 3419.376221 3526.433105 3529.027832 3482.268066 C 3609.095215 3450.019287 3740.114502 3404.030518 3820.181641 3380.069824 C 3900.249023 3356.109375 3981.853027 3331.656982 4001.524414 3325.730225 C 4021.194336 3319.803467 4066.867676 3314.954102 4103.017578 3314.954102 C 4156.083496 3314.954102 4171.068848 3319.294434 4180.802734 3337.480225 C 4187.433594 3349.869873 4192.858398 3368.425293 4192.858398 3378.713623 C 4192.858398 3389.002197 4181.067383 3413.561035 4166.654785 3433.289307 C 4152.242188 3453.017578 4141.595215 3473.271973 4142.994141 3478.298828 C 4144.393066 3483.324219 4137.500977 3490.520752 4127.680176 3494.289551 C 4117.85791 3498.05835 4101.617188 3509.347656 4091.588867 3519.375977 C 4081.560547 3529.402832 3994.119141 3577.828613 3897.271973 3626.984863 C 3800.426514 3676.142578 3695.950928 3725.418457 3665.102539 3736.487305 C 3634.255615 3747.554932 3579.227783 3762.133789 3542.817871 3768.882568 C 3495.012207 3777.745117 3450.733398 3777.388184 3383.450928 3767.597168 C 3326.189941 3759.265137 3274.154541 3743.874268 3248.437012 3727.666016 C 3225.421875 3713.161133 3177.475342 3668.606445 3141.888672 3628.655273 C 3106.302002 3588.704102 3052.209717 3514.031982 3021.684082 3462.714844 C 2966.182861 3369.411865 2966.182861 3369.411865 2966.052246 3251.925293 C 2965.979736 3187.307129 2974.732666 3083.821045 2985.504395 3021.953613 C 2996.276367 2960.087646 3018.769531 2863.134033 3035.490967 2806.499756 C 3052.212402 2749.866943 3075.608643 2666.845459 3087.482178 2622.008301 C 3099.354248 2577.170898 3112.12793 2526.685303 3115.868164 2509.818848 C 3122.575684 2479.560303 3121.920166 2479.212158 3066.720459 2483.76001 C 3022.935059 2487.365234 2936.980957 2488.077393 2911.782227 2488.077393 C 2884.203613 2488.077393 2756.597656 2502.808594 2702.151367 2506.422363 C 2647.705078 2510.036133 2598.979492 2517.070557 2593.870117 2522.053467 C 2588.760742 2527.036377 2574.255615 2598.731445 2561.636963 2681.376221 C 2549.02002 2764.020996 2525.605225 2941.694336 2509.604736 3076.208008 C 2493.605469 3210.72168 2478.068115 3346.980957 2475.078613 3379.008057 C 2472.087402 3411.034912 2467.054688 3544.674316 2463.894287 3675.984863 C 2460.365967 3822.578125 2462.107422 3901.245117 2468.406738 3879.79248 C 2474.049316 3860.576172 2482.586182 3818.650146 2487.378662 3786.623291 C 2496.093262 3728.392578 2496.093262 3728.392578 2505.616943 3769.154053 C 2510.855713 3791.573486 2538.219727 3938.806641 2539.105225 3978.784668 C 2540.135986 4025.413574 2550.751465 4180.852539 2550.751465 4241.100586 C 2550.751465 4337.480957 2548.044678 4352.089844 2528.225342 4362.698242 C 2515.835693 4369.329102 2485.701172 4374.402832 2461.26001 4373.974609 Z"/>
    <path id="Shape-copy-5" fill="#ff6f3c" fill-rule="evenodd" stroke="none" d="M 15306.164063 4373.029297 C 15295.213867 4372.73291 15277.298828 4368.477539 15266.348633 4363.57373 C 15255.398438 4358.668457 15228.30957 4350.084961 15206.151367 4344.498047 C 15183.991211 4338.911133 15154.402344 4321.951172 15140.396484 4306.809082 C 15126.389648 4291.665527 15104.326172 4257.756836 15099.716797 4229.507324 C 15064.850586 4015.829834 15175.517578 3574.994385 15355.459961 2961.57373 C 15363.892578 2932.830078 15540.478516 2394.511963 15545.010742 2378.087646 C 15553.24707 2348.226074 15553.24707 2348.226074 15525.098633 2381.496094 C 15509.613281 2399.794922 15325.863281 2660.266113 15233.493164 2758.624023 C 15153.30957 2844.005615 14944.078125 3003.091553 14834.757813 3010.158447 C 14794.334961 3012.771973 14763.513672 3003.327393 14731.816406 2987.281006 C 14706.963867 2974.697754 14663.03125 2944.646729 14634.19043 2920.500732 C 14605.352539 2896.354736 14575.65625 2862.000977 14568.200195 2844.160156 C 14560.74707 2826.318115 14554.65918 2781.342285 14554.676758 2744.211914 C 14554.691406 2707.083008 14639.427734 2271.265869 14678.657227 2134.218018 C 14716.15918 2003.202881 14833.742188 1642.247314 14848.896484 1606.662842 C 14864.052734 1571.078125 14917.15918 1441.925781 14938.084961 1392.654541 C 14959.013672 1343.383301 14980.962891 1299.841309 14986.865234 1295.89502 C 14992.765625 1291.948242 15017.040039 1285.779297 15040.804688 1282.186523 C 15075.21582 1276.983398 15089.407227 1279.662598 15110.481445 1295.336914 C 15125.038086 1306.163574 15138.416016 1324.932617 15140.211914 1337.047852 C 15142.321289 1351.287598 15144.087891 1385.943848 15131.97168 1407.585449 C 15108.459961 1449.578369 15040.133789 1627.565674 15026.104492 1671.363037 C 15012.075195 1715.160156 14989.234375 1789.066895 14975.348633 1835.601807 C 14961.46582 1882.136719 14940.160156 1960.523438 14928.006836 2009.794434 C 14915.854492 2059.065674 14891.579102 2152.179199 14874.0625 2216.712891 C 14856.546875 2281.246582 14831.012695 2386.508057 14817.321289 2450.628662 C 14803.632813 2514.749268 14786.196289 2600.805664 14778.573242 2641.865234 C 14769.907227 2688.554443 14766.957031 2743.837646 14770.699219 2789.446777 C 14776.055664 2854.733643 14778.660156 2861.857666 14795.561523 2857.437256 C 14805.948242 2854.72168 14829.804688 2840.782227 14848.580078 2826.461426 C 14867.355469 2812.140625 14941.402344 2736.752686 15013.125 2658.93335 C 15084.851563 2581.112793 15181.163086 2467.38208 15227.150391 2406.198486 C 15273.138672 2345.014648 15371.625 2202.865723 15446.011719 2090.3125 C 15524.90625 1970.934082 15635.186523 1807.566406 15703.060547 1708.820068 C 15766.139648 1617.049316 15858.958984 1483.822754 15909.326172 1412.761719 C 15959.695313 1341.700684 16003.601563 1274.459473 16006.896484 1263.336914 C 16010.191406 1252.215332 16033.044922 1212.439941 16057.681641 1174.950195 C 16102.474609 1106.785645 16102.474609 1106.785645 16173.886719 1112.030273 C 16213.162109 1114.914551 16260.902344 1124.677734 16279.970703 1133.727539 C 16299.888672 1143.179688 16319.730469 1162.461426 16326.599609 1179.037598 C 16334.949219 1199.196777 16335.597656 1216.238281 16328.753906 1235.575195 C 16323.365234 1250.798828 16301.601563 1292.229004 16280.392578 1327.64209 C 16259.181641 1363.056641 16236.964844 1405.608398 16231.023438 1422.203857 C 16225.080078 1438.799316 16186.125 1521.805908 16144.453125 1606.662842 C 16102.783203 1691.519775 16065.535156 1769.906494 16061.681641 1780.855469 C 16057.828125 1791.804443 16053.457031 1805.241943 16051.970703 1810.717041 C 16050.486328 1816.192139 16024.072266 1881.009033 15993.27832 1954.755371 C 15962.480469 2028.501709 15924.297852 2127.04541 15908.421875 2173.740479 C 15892.548828 2220.435791 15859.707031 2312.392334 15835.445313 2378.087646 C 15811.179688 2443.782959 15781.313477 2522.169678 15769.075195 2552.280518 C 15756.834961 2582.391113 15734.144531 2645.099854 15718.652344 2691.634521 C 15703.160156 2738.169434 15665.764648 2856.868652 15635.553711 2955.412109 C 15605.339844 3053.955811 15553.869141 3227.32959 15521.173828 3340.687256 C 15488.476563 3454.044922 15447.275391 3610.818359 15429.615234 3689.072754 C 15411.956055 3767.326904 15394.351563 3833.592041 15390.495117 3836.32959 C 15386.640625 3839.067139 15376.152344 3899.536621 15367.19043 3970.706787 C 15358.227539 4041.877197 15350.910156 4146.02002 15350.927734 4202.134277 C 15350.944336 4263.496582 15354.924805 4304.161621 15360.911133 4304.161621 C 15366.385742 4304.161621 15370.864258 4317.07666 15370.864258 4332.862793 C 15370.864258 4354.211426 15365.126953 4363.099609 15348.46875 4367.56543 C 15336.150391 4370.865234 15317.114258 4373.324707 15306.164063 4373.029297 Z M 14022.115234 3994.30127 C 14005.692383 3993.740967 13983.295898 3991.387451 13972.345703 3989.072754 C 13961.395508 3986.756836 13942.484375 3982.743164 13930.316406 3980.152832 C 13918.151367 3977.562256 13888.807617 3970.044678 13888.012695 3953.77832 C 13859.487305 3370.375 13884.461914 3028.619141 13889.917969 2916.959961 C 13892.290039 2868.415527 13885.552734 2868.553955 13849.319336 2874.542969 C 13829.390625 2877.838379 13707.822266 2891.832275 13579.167969 2905.642822 C 13450.513672 2919.453369 13336.124023 2932.787598 13324.969727 2935.276123 C 13308.298828 2938.994141 13301.462891 2955.368408 13286.576172 3027.236328 C 13276.615234 3075.327637 13257.78125 3148.268311 13244.726563 3189.327881 C 13231.669922 3230.387939 13208.337891 3342.368896 13192.875 3438.174805 C 13164.762695 3612.367676 13164.762695 3612.367676 13100.374023 3612.367676 C 13058.222656 3612.367676 13021.357422 3605.76709 12993.626953 3593.254395 C 12970.329102 3582.742676 12952.650391 3569.304199 12954.338867 3563.392822 C 12956.02832 3557.481445 13100.757813 3003.812256 13102.796875 2977.805908 C 13106.427734 2931.475342 13105.861328 2930.402344 13074.648438 2924.546875 C 13057.129883 2921.260254 13025.523438 2902.14209 13004.415039 2882.062012 C 12983.306641 2861.981689 12955.664063 2824.124756 12942.985352 2797.935303 C 12930.307617 2771.746826 12922.825195 2747.428223 12926.356445 2743.895996 C 12929.889648 2740.36377 12944.958984 2744.619141 12959.845703 2753.353027 C 12974.733398 2762.085693 13004.830078 2770.541504 13026.728516 2772.144043 C 13048.625977 2773.745605 13088.94043 2771.342041 13116.3125 2766.802734 C 13143.686523 2762.263184 13169.499023 2753.571777 13173.676758 2747.487793 C 13177.853516 2741.404053 13367.103516 2067.492188 13373.057617 2052.850586 C 13380.576172 2034.370605 13393.587891 2024.409424 13415.599609 2020.279297 C 13433.041016 2017.007324 13459.495117 2018.962158 13474.387695 2024.624512 C 13489.279297 2030.286621 13503.791992 2043.82373 13506.637695 2054.707275 C 13509.483398 2065.590576 13517.18457 2074.494629 13523.748047 2074.494629 C 13530.314453 2074.494629 13546.098633 2056.928467 13558.823242 2035.458008 C 13571.546875 2013.987793 13590.570313 1981.512451 13601.097656 1963.29248 C 13611.625 1945.071289 13628.033203 1918.965576 13637.55957 1905.278809 C 13647.085938 1891.592285 13664.553711 1861.54126 13676.375977 1838.497314 C 13688.199219 1815.453613 13717.895508 1772.83252 13735.569336 1739.727783 C 13846.03418 1532.815674 13974.822266 1450.967041 13981.713867 1441.540527 C 13992.154297 1427.263428 14003.760742 1425.519775 14051.21875 1431.097168 C 14082.555664 1434.780029 14124.657227 1444.671875 14144.78418 1453.078857 C 14164.910156 1461.486084 14193.515625 1479.991455 14208.351563 1494.201904 C 14225.90918 1511.018311 14238.886719 1537.768311 14245.520508 1570.816895 C 14251.126953 1598.744141 14255.092773 1695.501465 14256.03125 1785.83252 C 14256.97168 1876.16333 14250.682617 1985.316895 14248.070313 2029.702393 C 14245.47168 2073.843506 14234.242188 2140.688232 14230.862305 2179.010254 C 14227.481445 2217.33252 14220.583008 2273.322998 14215.530273 2303.433594 C 14210.480469 2333.544434 14201.755859 2394.013672 14196.145508 2437.811035 C 14190.53418 2481.608154 14183.138672 2549.916016 14179.712891 2589.607422 C 14173.479492 2661.772949 14173.479492 2661.772949 14207.951172 2661.772949 C 14226.908203 2661.772949 14266.522461 2667.670898 14296.507813 2671.375732 C 14356.087891 2678.736572 14368.615234 2682.483887 14390.639648 2684.324707 C 14412.666016 2686.164307 14435.557617 2690.680908 14441.509766 2694.358887 C 14447.460938 2698.038086 14450.833984 2728.917969 14447.052734 2731.906982 C 14443.271484 2734.894775 14286.341797 2756.767334 14206.261719 2801.127197 C 14191.282227 2809.424805 14173.009766 2815.767578 14169.063477 2823.523438 C 14152.575195 2855.931885 14140.15918 2886.475098 14136.93457 2950.435303 C 14114.142578 3402.341064 14113.150391 3499.121582 14106.722656 3915.960449 C 14106.368164 3939.015381 14104.120117 3960.931641 14101.021484 3969.001953 C 14097.925781 3977.072754 14085.625 3986.296387 14073.685547 3989.498047 C 14061.746094 3992.699707 14038.538086 3994.861328 14022.115234 3994.30127 Z M 10861.893555 3745.84668 C 10826.236328 3745.353516 10781.384766 3740.647461 10762.222656 3735.388672 C 10743.061523 3730.131104 10676.253906 3698.59375 10651.503906 3679.751709 C 10623.003906 3658.054199 10601.767578 3639.910645 10589.09375 3613.202148 C 10579.517578 3593.022461 10568.323242 3560.725586 10565.950195 3541.186035 C 10551.958008 3425.989014 10637.726563 2925.301514 10642.685547 2900.666016 C 10647.643555 2876.030273 10734.933594 2455.230225 10739.955078 2427.857178 C 10744.977539 2400.483887 10770.132813 2292.981689 10795.854492 2188.964111 C 10821.578125 2084.946777 10949.796875 1592.170654 10956.666992 1586.470703 C 10963.536133 1580.769531 10998.917969 1575.598389 11035.291992 1574.977295 C 11072.920898 1574.336914 11111.916016 1579.4646 11125.760742 1586.874268 C 11139.144531 1594.035889 11152.513672 1607.520752 11155.47168 1616.840332 C 11158.428711 1626.158691 11153.896484 1675.833252 11145.398438 1727.227051 C 11136.900391 1778.621094 11093.264648 1997.850342 11085.413086 2019.748291 C 11077.5625 2041.646484 11062.108398 2106.595703 11051.073242 2164.07959 C 11040.037109 2221.563477 10980.072266 2477.128174 10965.760742 2537.349609 C 10951.451172 2597.571045 10931.391602 2684.915283 10921.183594 2731.450195 C 10910.975586 2777.984863 10898.150391 2849.652344 10892.681641 2890.711914 C 10887.213867 2931.771729 10875.758789 3016.87793 10867.229492 3079.835449 C 10858.698242 3142.793213 10847.646484 3252.534912 10842.668945 3323.705322 C 10837.211914 3401.748047 10846.323242 3452.380371 10851.807617 3458.08252 C 10857.488281 3463.990234 10866.379883 3465.82251 10871.71582 3468.036377 C 11009.490234 3525.206787 11838.546875 1522.15332 11934.783203 1523.667236 C 11991.169922 1524.554199 12044.919922 1528.619873 12054.229492 1532.702637 C 12063.539063 1536.785156 12076.03418 1539.387939 12081.995117 1538.487549 C 12087.956055 1537.587158 12100.019531 1544.79126 12108.804688 1554.497314 C 12117.587891 1564.20459 12129.498047 1593.22168 12135.271484 1618.97998 C 12142.585938 1651.622803 12142.665039 1717.930664 12135.530273 1837.804688 C 12129.899414 1932.399414 12114.397461 2132.973633 12101.080078 2283.525879 C 12087.764648 2434.078125 12071.669922 2646.842285 12065.314453 2756.334717 C 12058.959961 2865.827393 12056.37207 3024.840088 12059.563477 3109.697266 C 12062.755859 3194.553955 12070.071289 3290.856934 12075.822266 3323.705322 C 12081.572266 3356.553711 12093.719727 3409.368896 12102.814453 3441.075195 C 12114.191406 3480.735107 12123.55957 3489.948975 12132.581055 3493.645264 C 12142.918945 3497.880859 12150.322266 3498.776367 12164.410156 3498.5979 C 12175.203125 3498.460449 12184.210938 3493.545654 12188.325195 3493.959961 C 12498.444336 3525.160645 12688.651367 1705.321777 12563.873047 1268.231445 C 12550.295898 1220.670898 12537.363281 1201.469238 12547.469727 1184.692383 C 12556.979492 1168.908691 12626.923828 1151.329102 12645.993164 1149.659668 C 12666.818359 1147.836914 12692.164063 1145.69873 12713.181641 1148.784668 C 12738.257813 1152.466309 12744.698242 1150.473633 12762.951172 1168.692383 C 12770.476563 1176.205566 12780.744141 1181.994141 12797.823242 1204.334473 C 12814.902344 1226.67334 12840.414063 1280.424316 12854.518555 1323.780762 C 12873.711914 1382.782227 12881.816406 1433.902588 12886.740234 1527.031738 C 12890.96582 1606.893555 12892.074219 1737.684082 12882.397461 1865.463379 C 12874.103516 1974.956055 12870.416992 2095.838623 12862.489258 2183.987305 C 12855.851563 2257.80542 12838.290039 2364.557861 12832.582031 2421.016113 C 12826.871094 2477.474609 12808.664063 2587.216309 12792.125 2664.885986 C 12775.584961 2742.555908 12750.394531 2846.417725 12736.145508 2895.688965 C 12721.897461 2944.960205 12695.657227 3030.066162 12677.834961 3084.8125 C 12660.012695 3139.558594 12622.342773 3235.863037 12594.125 3298.820557 C 12565.907227 3361.77832 12522.422852 3446.054688 12497.491211 3486.10083 C 12471.37207 3528.054932 12431.548828 3575.207031 12403.522461 3597.358887 C 12376.771484 3618.504883 12330.070313 3645.090576 12299.743164 3656.437012 C 12269.416016 3667.783203 12225.31543 3677.067627 12201.742188 3677.067627 C 12178.167969 3677.067627 12133.625977 3668.378662 12102.759766 3657.758789 C 12071.893555 3647.13916 12010.338867 3629.988525 11966.40332 3606.661621 C 11943.453125 3594.476807 11933.816406 3591.766113 11877.056641 3517.805664 C 11865.826172 3503.173828 11840.576172 3448.626953 11827.287109 3388.405273 C 11805.416992 3289.307861 11812.356445 3251.256592 11812.356445 3035.043213 C 11812.356445 2903.652588 11818.886719 2715.52417 11826.870117 2616.980713 C 11834.851563 2518.437012 11867.755859 2121.012451 11871.939453 2054.586914 C 11879.146484 1940.117432 11879.146484 1940.117432 11855.307617 1974.956055 C 11842.196289 1994.117676 11798.40332 2076.983154 11757.990234 2159.102539 C 11717.577148 2241.221924 11675.660156 2330.806885 11664.841797 2358.179932 C 11654.022461 2385.553223 11639.488281 2421.386719 11632.541016 2437.811035 C 11625.594727 2454.235107 11606.524414 2501.266846 11590.162109 2542.32666 C 11573.800781 2583.38623 11542.125 2660.675781 11519.772461 2714.080566 C 11497.420898 2767.485596 11456.060547 2866.005859 11427.860352 2933.013428 C 11399.660156 3000.022217 11355.450195 3099.662842 11329.614258 3154.438477 C 11303.779297 3209.212646 11257.022461 3305.539795 11225.710938 3368.497803 C 11194.399414 3431.455566 11154.583008 3505.245605 11137.228516 3532.474121 C 11119.874023 3559.702637 11088.847656 3603.270264 11068.279297 3629.292236 C 11047.709961 3655.312988 11007.446289 3692.384766 10978.804688 3711.674316 C 10931.869141 3743.283203 10920.327148 3746.656006 10861.893555 3745.84668 Z M 13852.899414 2696.441406 C 13873.995117 2689.351563 13897.193359 2683.769531 13902.668945 2677.109619 C 13908.143555 2670.451172 13917.121094 2675.147217 13926.445313 2652.605225 C 13986.182617 2508.169678 14048.280273 2127.197266 14045.308594 1652.500244 C 14045.25 1643.040771 14049.969727 1608.063721 14025.473633 1597.331055 C 14015.597656 1593.00415 14009.793945 1594.156006 13981.677734 1622.419922 C 13960.12207 1644.088135 13912.887695 1702.038574 13876.714844 1751.197998 C 13840.541992 1800.357422 13782.43457 1889.849854 13747.586914 1950.071289 C 13712.741211 2010.292725 13662.837891 2102.116943 13636.694336 2154.125732 C 13610.550781 2206.134277 13534.088867 2366.143555 13524.285156 2388.041504 C 13514.479492 2409.939697 13498.268555 2445.774414 13488.258789 2467.672607 C 13478.249023 2489.570557 13456.112305 2541.082275 13439.067383 2582.14209 C 13422.020508 2623.20166 13400.010742 2677.834961 13390.15625 2703.549561 C 13373.68457 2746.531494 13372.946289 2754.609375 13388.605469 2755.048096 C 13526.164063 2758.902344 13687.836914 2751.914307 13852.899414 2696.441406 Z"/>
    <path id="Shape-copy-4" fill="#ff6f3c" fill-rule="evenodd" stroke="none" d="M 8905.697266 5483.983398 C 8886.770508 5483.651855 8849.517578 5478.660645 8822.916992 5472.89209 C 8796.317383 5467.124023 8753.535156 5452.577637 8727.850586 5440.565918 C 8702.165039 5428.554199 8650.439453 5393.18457 8612.905273 5361.966309 C 8575.37207 5330.748047 8505.383789 5263.182617 8457.379883 5211.821777 C 8409.374023 5160.461426 8356.768555 5108.620605 8340.479492 5096.62207 C 8319.161133 5080.916016 8302.143555 5074.817871 8279.729492 5074.852051 C 8262.606445 5074.87793 8212.71582 5085.313965 8168.861816 5098.043945 C 8125.007813 5110.773438 8053.247559 5127.700195 8009.393555 5135.658691 C 7965.539551 5143.617676 7882.731445 5153.860352 7825.375977 5158.42041 C 7752.149902 5164.242676 7704.174805 5164.360352 7664.28418 5158.814941 C 7633.039063 5154.472656 7569.915039 5137.107422 7524.007813 5120.226563 C 7478.100586 5103.346191 7403.072754 5072.851074 7357.27832 5052.460449 C 7311.484375 5032.070313 7239.143555 4997.486328 7196.520508 4975.606934 C 7153.897461 4953.728027 7091.260254 4915.330566 7057.32666 4890.279297 C 7023.393066 4865.228516 6968.811035 4818.810547 6936.033691 4787.128906 C 6903.255859 4755.447266 6856.141602 4701.498535 6831.334961 4667.242676 C 6806.52832 4632.986816 6771.140137 4576.60791 6752.693848 4541.955566 C 6734.248047 4507.304199 6705.495117 4438.008789 6688.800293 4387.965332 C 6672.10498 4337.922852 6655.122559 4274.781738 6651.061523 4247.652832 C 6647.000488 4220.524414 6639.146484 4155.641602 6633.60791 4103.470703 C 6627.133789 4042.495361 6623.536133 3908.324707 6623.536133 3727.837402 C 6623.536133 3507.476807 6626.533203 3419.30249 6637.463867 3318.055664 C 6645.124512 3247.102051 6657.981445 3142.950439 6666.036621 3086.60498 C 6674.092285 3030.259766 6687.630371 2944.888428 6696.121582 2896.891357 C 6704.61377 2848.894043 6719.84375 2770.351807 6729.967285 2722.354736 C 6740.089844 2674.357422 6756.67334 2599.229736 6766.817871 2555.406738 C 6776.962891 2511.583496 6799.432617 2419.626221 6816.75 2351.056885 C 6834.067871 2282.487549 6863.59375 2173.874512 6882.36377 2109.694336 C 6901.133789 2045.513916 6936.353516 1932.58252 6960.629883 1858.733154 C 6984.905273 1784.883789 7023.687988 1676.652344 7046.811035 1618.220947 C 7069.935059 1559.789551 7105.839844 1472.710205 7126.599121 1424.712891 C 7147.358398 1376.71582 7186.904297 1291.344727 7214.477539 1234.999023 C 7242.052246 1178.653809 7295.208496 1073.983398 7332.603516 1002.399902 C 7369.997559 930.814453 7427.004395 828.369141 7459.283203 774.743164 C 7491.562012 721.115723 7541.949219 641.384277 7571.253906 597.561035 C 7600.559082 553.737793 7648.628906 485.440918 7678.07666 445.790039 C 7707.524902 406.13916 7755.675293 349.601074 7785.077148 320.149414 C 7814.478516 290.697266 7853.912109 259.539063 7872.706055 250.90918 C 7891.500488 242.279785 8006.397461 202.419434 8128.031738 162.331055 C 8249.666016 122.243164 8398.313477 76.567383 8458.358398 60.828613 C 8562.147461 33.625977 8573.371094 32.214355 8685.881836 32.214355 C 8788.451172 32.214355 8811.428711 34.531738 8858.231445 49.596191 C 8887.933594 59.153809 8936.011719 78.862793 8965.072266 93.391602 C 9000.591797 111.149414 9035.916992 137.787109 9072.850586 174.662598 C 9108.970703 210.726563 9135.216797 245.208496 9149.472656 275.327637 C 9161.396484 300.525879 9174.941406 341.503418 9179.573242 366.390137 C 9184.204102 391.278809 9186.050781 428.211914 9183.677734 448.465332 C 9181.302734 468.716797 9171.003906 499.451172 9160.789063 516.762207 C 9150.573242 534.071777 9131.912109 558.023438 9119.317383 569.98584 C 9106.725586 581.94873 9085.520508 605.29248 9072.198242 621.858887 C 9058.874023 638.427246 9046.335938 658.243652 9044.333008 665.89502 C 9041.34668 677.303711 9060.987305 690.113281 9153.424805 737.052734 C 9215.427734 768.537109 9290.077148 812.619629 9319.313477 835.014648 C 9352.069336 860.103516 9392.22168 901.714355 9423.933594 943.43457 C 9452.237305 980.669922 9490.27832 1040.163086 9508.46875 1075.639648 C 9526.660156 1111.116699 9555.848633 1181.119629 9573.334961 1231.205078 C 9590.821289 1281.290039 9613.81543 1356.416016 9624.431641 1398.153076 C 9635.048828 1439.890137 9648.422852 1501.35791 9654.151367 1534.746826 C 9659.882813 1568.135742 9671.408203 1646.677979 9679.763672 1709.283447 C 9691.545898 1797.541016 9694.942383 1865.730713 9694.884766 2012.825439 C 9694.834961 2136.172607 9689.548828 2264.922363 9679.773438 2380.870117 C 9671.50293 2478.952393 9659.706055 2600.178467 9653.560547 2650.263428 C 9647.413086 2700.348633 9637.553711 2772.060059 9631.650391 2809.623047 C 9625.748047 2847.186035 9608.722656 2925.728271 9593.819336 2984.159668 C 9578.913086 3042.591064 9549.678711 3148.9104 9528.849609 3220.423584 C 9508.020508 3291.938721 9473.186523 3399.504883 9451.44043 3459.462891 C 9429.693359 3519.420898 9390.075195 3621.408691 9363.398438 3686.100342 C 9336.72168 3750.792969 9281.113281 3872.019775 9239.822266 3955.493896 C 9198.533203 4038.967773 9134.132813 4158.487305 9096.710938 4221.092773 C 9059.289063 4283.69873 8995.509766 4382.729492 8954.979492 4441.161133 C 8914.448242 4499.592285 8867.234375 4571.304688 8850.058594 4600.520508 C 8832.883789 4629.736328 8810.985352 4675.138672 8801.393555 4701.414063 C 8789.578125 4733.78418 8784.006836 4765.591797 8784.114258 4800.06543 C 8784.219727 4833.643066 8790.308594 4868.020508 8802.017578 4901.17041 C 8811.777344 4928.79541 8833.686523 4976.604004 8850.708008 5007.410156 C 8867.728516 5038.216309 8908.15625 5100.984863 8940.543945 5146.895996 C 8972.932617 5192.807129 9017.584961 5257.520996 9039.770508 5290.705078 C 9068.378906 5333.493652 9080.110352 5358.405273 9080.110352 5376.370117 C 9080.110352 5395.191406 9072.739258 5409.597656 9051.420898 5432.43457 C 9029.980469 5455.405762 9012.296875 5465.874512 8981.423828 5473.87793 C 8958.703125 5479.767578 8924.625977 5484.314941 8905.697266 5483.983398 Z M 7763.607422 4927.762695 C 7785.847168 4925.794434 7827.498047 4912.811523 7860.597168 4897.528809 C 7892.502441 4882.79834 7946.228027 4854.337402 7979.985352 4834.28418 C 8013.743652 4814.22998 8063.40918 4779.661133 8090.353027 4757.463379 C 8117.297363 4735.265625 8145.97168 4706.239746 8154.074219 4692.960449 C 8164.337402 4676.140137 8168.813965 4654.950195 8168.833496 4623.094238 C 8168.849121 4597.947266 8160.472168 4529.650391 8150.217773 4471.323242 C 8139.963867 4412.996582 8117.61377 4295.271484 8100.550781 4209.709961 C 8083.489258 4124.149414 8059.209961 4001.215088 8046.598633 3936.522461 C 8033.986816 3871.830078 8018.703125 3789.874023 8012.634277 3754.397461 C 8006.564453 3718.92041 7999.430664 3668.433105 7996.780273 3642.202148 C 7993.953125 3614.229492 7995.455566 3582.851074 8000.413086 3566.315918 C 8005.509766 3549.321289 8024.804199 3522.644531 8048.997559 3499.150879 C 8071.068359 3477.715332 8107.09082 3447.498291 8129.045898 3432.002686 C 8151.000977 3416.504883 8185.606934 3397.507568 8205.949219 3389.783936 C 8226.291992 3382.060059 8260.350586 3373.43042 8281.635742 3370.608643 C 8304.349609 3367.598145 8335.320313 3369.197021 8356.606445 3374.479004 C 8376.555664 3379.42749 8405.90918 3392.422119 8421.833984 3403.354736 C 8437.759766 3414.2854 8458.987305 3437.204834 8469.003906 3454.286621 C 8479.020508 3471.366211 8492.157227 3507.461914 8498.198242 3534.498047 C 8504.236328 3561.53418 8511.355469 3604.143555 8514.015625 3629.186279 C 8516.675781 3654.229004 8522.211914 3692.623535 8526.320313 3714.509277 C 8530.426758 3736.394043 8539.036133 3780.786621 8545.451172 3813.1604 C 8551.867188 3845.533203 8565.710938 3898.449219 8576.211914 3930.752441 C 8586.713867 3963.054688 8598.549805 3991.487549 8602.513672 3993.935059 C 8606.477539 3996.383301 8619.126953 3988.323242 8630.623047 3976.023438 C 8642.121094 3963.723389 8670.790039 3916.509033 8694.334961 3871.102783 C 8717.878906 3825.696533 8758.350586 3740.737549 8784.273438 3682.306152 C 8810.195313 3623.874512 8849.892578 3529.966309 8872.488281 3473.621094 C 8895.083984 3417.275635 8928.834961 3327.367432 8947.491211 3273.824951 C 8966.145508 3220.282715 8993.086914 3131.49707 9007.360352 3076.522705 C 9021.631836 3021.550293 9042.004883 2933.885498 9052.633789 2881.714355 C 9063.261719 2829.542969 9078.777344 2740.757324 9087.117188 2684.411865 C 9095.454102 2628.06665 9107.773438 2544.403564 9114.492188 2498.492432 C 9122.658203 2442.695557 9128.19043 2333.245117 9131.175781 2168.390625 C 9134.104492 2006.657959 9132.480469 1877.356201 9126.455078 1792.757568 C 9121.40332 1721.803955 9114.095703 1634.726318 9110.214844 1599.249512 C 9106.336914 1563.772705 9098.15918 1505.335693 9092.046875 1469.390137 C 9085.931641 1433.44458 9071.94043 1371.976563 9060.956055 1332.796387 C 9049.969727 1293.615723 9030.841797 1236.173828 9018.452148 1205.148926 C 9006.060547 1174.12207 8980.654297 1127.356934 8961.994141 1101.225098 C 8943.333984 1075.093262 8911.873047 1037.133789 8892.082031 1016.867188 C 8872.290039 996.603027 8834.536133 965.416992 8808.1875 947.566406 C 8781.837891 929.713867 8735.706055 903.503906 8705.671875 889.32373 C 8675.638672 875.143555 8626.69043 859.414063 8596.899414 854.369629 C 8565.234375 849.007813 8463.801758 844.989258 8352.71582 844.694824 C 8219.550781 844.34082 8155.098633 846.994141 8137.302246 853.561523 C 8123.335938 858.717773 8098.181641 877.498047 8081.40332 895.298828 C 8064.625 913.099121 8026.65918 965.226074 7997.03418 1011.137207 C 7967.40918 1057.04834 7919.167969 1135.588379 7889.832031 1185.673828 C 7860.496094 1235.758789 7811.582031 1322.736328 7781.134766 1378.959473 C 7750.6875 1435.182373 7707.930664 1518.847168 7686.119141 1564.878662 C 7664.308594 1610.912109 7626.868164 1698.0896 7602.918945 1758.609131 C 7578.96875 1819.128418 7539.217773 1926.357422 7514.58252 1996.897949 C 7489.948242 2067.438477 7447.373535 2197.203369 7419.973145 2285.262939 C 7392.572754 2373.324219 7355.460449 2500.167236 7337.502441 2567.137695 C 7319.544434 2634.108154 7292.197754 2745.09082 7276.73291 2813.765625 C 7261.267578 2882.44043 7242.330566 2976.191406 7234.648438 3022.102295 C 7226.967773 3068.013428 7217.032227 3137.164551 7212.569824 3175.770508 C 7208.107422 3214.376465 7201.182129 3275.844482 7197.180664 3312.364258 C 7193.177734 3348.884277 7185.719238 3428.830811 7180.605469 3490.024414 C 7175.491211 3551.218262 7171.308594 3692.934082 7171.311523 3804.949219 C 7171.313477 3943.506104 7175.516113 4049.64209 7184.456055 4136.956543 C 7191.682617 4207.544434 7205.499023 4304.868164 7215.158203 4353.230469 C 7224.817383 4401.591797 7242.310059 4465.064941 7254.031738 4494.280762 C 7265.751953 4523.496582 7292.189453 4575.913086 7312.78125 4610.763184 C 7333.372559 4645.611816 7374.645996 4699.821777 7404.500977 4731.229492 C 7434.35498 4762.636719 7479.769043 4803.300293 7505.422363 4821.592773 C 7531.074219 4839.884766 7568.004883 4863.756836 7587.490723 4874.63916 C 7606.975586 4885.522461 7645.803223 4902.703613 7673.772949 4912.819336 C 7711.367188 4926.415039 7734.79248 4930.312012 7763.607422 4927.762695 Z M 5586.583008 4854.557129 C 5568.012695 4854.458008 5532.773438 4846.140625 5508.271484 4836.074219 C 5483.770996 4826.007324 5445.693848 4805.806641 5423.655762 4791.18457 C 5401.617188 4776.5625 5365.053711 4746.461914 5342.402344 4724.296875 C 5319.750977 4702.130371 5288.630371 4662.468262 5273.245605 4636.15918 C 5253.972168 4603.200195 5245.272461 4579.118164 5245.272461 4558.721191 C 5245.272461 4537.532227 5250.490234 4523.905273 5263.631836 4510.772461 C 5273.729492 4500.680664 5285.825684 4479.183594 5290.51123 4462.998535 C 5295.197266 4446.814453 5302.210938 4351.615723 5306.09668 4251.447266 C 5309.982422 4151.278809 5318.34082 3971.999268 5324.67041 3853.04834 C 5331.000488 3734.097656 5341.237793 3571.892334 5347.419922 3492.592285 C 5353.602051 3413.29248 5363.844238 3295.479004 5370.180664 3230.787354 C 5376.516602 3166.095947 5386.750488 3070.479492 5392.922363 3018.308105 C 5399.09375 2966.136719 5409.291504 2884.180176 5415.583008 2836.182861 C 5421.875 2788.185791 5432.373047 2709.643555 5438.913086 2661.64624 C 5445.452637 2613.64917 5455.815918 2535.960938 5461.943359 2489.006836 C 5468.071777 2442.052734 5478.055176 2365.21875 5484.128418 2318.264404 C 5490.203125 2271.310303 5503.95166 2171.425293 5514.681641 2096.299561 C 5525.411133 2021.173584 5539.193359 1928.112061 5545.30957 1889.494873 C 5551.424805 1850.879639 5561.649414 1785.99707 5568.03125 1745.3125 C 5574.413574 1704.627686 5584.773438 1640.606689 5591.052734 1603.043701 C 5597.332031 1565.480957 5607.72998 1505.720947 5614.158203 1470.244141 C 5620.586914 1434.767334 5631.097656 1380.130371 5637.516113 1348.827637 C 5643.93457 1317.524902 5656.072266 1268.084473 5664.488281 1238.961914 C 5675.768555 1199.924316 5687.150879 1178.653809 5707.804688 1158.013184 C 5725.490234 1140.34082 5746.879395 1127.716309 5765.818848 1123.775879 C 5782.319336 1120.342773 5840.620117 1117.499023 5895.37793 1117.45459 C 5975.438477 1117.391602 6000.519531 1120.035156 6023.442383 1130.947754 C 6039.120605 1138.412109 6072.479492 1164.023438 6097.572266 1187.861816 C 6122.665527 1211.700195 6150.465332 1246.06543 6159.350098 1264.225098 C 6173.732422 1293.621582 6175.505371 1310.284668 6175.505371 1415.996094 C 6175.505371 1481.310303 6171.188477 1577.432373 6165.912109 1629.60376 C 6160.63623 1681.774902 6151.474609 1755.19458 6145.553223 1792.757568 C 6139.631836 1830.320557 6129.662109 1888.374023 6123.397949 1921.762939 C 6117.134277 1955.151611 6103.349121 2026.86499 6092.765137 2081.122314 C 6082.182129 2135.379639 6066.567871 2218.19043 6058.068848 2265.144775 C 6049.569336 2312.098877 6035.92041 2387.224609 6027.739258 2432.092773 C 6019.557617 2476.960693 6003.925293 2564.892334 5993.001953 2627.497803 C 5982.078613 2690.103271 5968.269531 2769.497803 5962.31543 2803.931641 C 5956.361328 2838.365479 5946.318848 2896.416992 5939.997559 2932.937012 C 5933.677734 2969.456787 5923.375 3031.7771 5917.10498 3071.427979 C 5910.834473 3111.078857 5898.709473 3189.619141 5890.161133 3245.9646 C 5881.612305 3302.309814 5872.645996 3391.527344 5870.23584 3444.228516 C 5865.853027 3540.046875 5865.853027 3540.046875 5893.486816 3549.160156 C 5912.11084 3555.301758 5922.589355 3564.114746 5925.621094 3576.187012 C 5928.095215 3586.039307 5926.05957 3625.898682 5921.098633 3664.763184 C 5916.136719 3703.627441 5902.426758 3778.111572 5890.631836 3830.282715 C 5878.836914 3882.454102 5858.783203 3967.825195 5846.066895 4019.996582 C 5833.350586 4072.167725 5810.85498 4174.613281 5796.077148 4247.652832 C 5781.299316 4320.692871 5762.143555 4423.138184 5753.508789 4475.30957 C 5744.874023 4527.480469 5731.216309 4602.607422 5723.15625 4642.257324 C 5715.097168 4681.907227 5701.720215 4736.896484 5693.430176 4764.456055 C 5680.908691 4806.079102 5673.445313 4817.963867 5649.351563 4834.650391 C 5628.431641 4849.137207 5610.93457 4854.687012 5586.583008 4854.557129 Z M 5915.625977 876.496094 C 5870.038086 880.245605 5867.563477 879.519531 5845.499512 855.916504 C 5831.29541 840.720703 5815.666016 809.419922 5804.254883 773.316895 C 5794.148926 741.343262 5780.362305 684.449707 5773.616699 646.886719 C 5766.871094 609.32373 5758.031738 530.781738 5753.972168 472.350098 C 5749.913086 413.918457 5746.562012 334.327637 5746.525879 295.48291 C 5746.48877 256.637695 5750.309082 209.574219 5755.015137 190.899414 C 5760.935059 167.403809 5771.82666 150.144531 5790.373535 134.867188 C 5805.115234 122.724609 5851.668457 98.458496 5893.825195 80.943359 C 5935.98291 63.430176 5994.39502 40.933105 6023.630859 30.952637 C 6052.866699 20.972168 6099.445801 9.055664 6127.140137 4.472168 C 6168.805176 -2.421387 6187.420898 -1.652344 6235.032715 8.933594 C 6266.679688 15.968262 6313.493164 32.171875 6339.063965 44.94043 C 6364.633301 57.708984 6404.219727 85.680664 6427.03418 107.099121 C 6457.004883 135.237793 6474.217773 159.728027 6489.071777 195.368164 C 6508.205078 241.275391 6509.629883 252.317383 6509.629883 354.727539 C 6509.629883 458.957031 6508.547363 466.962402 6489.098633 506.498535 C 6477.806152 529.453125 6453.922852 565.458008 6436.023926 586.509766 C 6418.125 607.560059 6384.582031 641.008301 6361.482422 660.84082 C 6338.383301 680.671875 6293.92334 714.005371 6262.682617 734.911133 C 6231.441895 755.818359 6177.290039 786.556152 6142.346191 803.215332 C 6107.402832 819.876465 6052.727539 842.304688 6020.846191 853.05957 C 5988.96582 863.8125 5941.616211 874.35791 5915.625977 876.496094 Z M 8184.771484 762.951172 C 8194.816406 760.874023 8232.079102 750.262207 8267.581055 739.37207 C 8303.082031 728.480469 8365.493164 710.983398 8406.273438 700.490234 C 8447.052734 689.996582 8520.523438 674.725098 8569.539063 666.550781 C 8618.553711 658.378906 8680.870117 649.476563 8708.017578 646.768066 C 8735.165039 644.05957 8775.667969 636.806152 8798.022461 630.645996 C 8837.443359 619.787598 8838.581055 618.71875 8835.709961 595.225098 C 8834.082031 581.902344 8818.564453 546.862793 8801.226563 517.358887 C 8783.889648 487.85498 8754.386719 443.463379 8735.666992 418.708008 C 8716.946289 393.952148 8687.81543 360.324707 8670.933594 343.976563 C 8649.286133 323.01709 8633.615234 314.255859 8617.773438 314.255859 C 8605.418945 314.255859 8585.642578 320.347656 8573.827148 327.791504 C 8562.012695 335.237305 8490.78418 403.249023 8415.541992 478.930664 C 8340.297852 554.612305 8255.444336 642.842285 8226.975586 674.99707 C 8198.507813 707.152344 8173.256836 740.946777 8170.862305 750.095215 C 8167.11084 764.431152 8169.032715 766.206055 8184.771484 762.951172 Z"/>
</svg>
