<?xml version="1.0" encoding="UTF-8"?>
<!-- Generated by Pixelmator Pro 3.6.8 -->
<svg width="1166" height="1166" viewBox="0 0 1166 1166" xmlns="http://www.w3.org/2000/svg">
    <g id="Group-copy-5">
        <path id="Shape-copy" fill="#ffffff" fill-rule="evenodd" stroke="none" d="M 344.599701 637.736023 C 344.599701 433.190125 344.599701 433.190125 349.242859 428.161499 C 351.7966 425.395813 403.813446 394.161987 464.835907 358.753113 C 537.804077 316.412537 577.749207 294.37323 581.521057 294.37323 C 585.297302 294.37323 624.935303 316.281738 697.569763 358.515259 C 758.242249 393.793335 810.204956 424.377136 813.042419 426.479187 C 818.201477 430.301147 818.201477 430.301147 818.78302 547.463501 L 819.364624 664.625854 L 852.559692 664.625854 C 885.754822 664.625854 885.754822 664.625854 893.766541 672.656372 C 901.77832 680.686768 901.77832 680.686768 901.77832 703.71344 C 901.77832 726.740112 901.77832 726.740112 894.714539 734.466431 C 887.650818 742.192749 887.650818 742.192749 684.805847 743.22699 C 481.960785 744.26123 481.960785 744.26123 480.152344 753.569214 C 479.157684 758.688721 476.895111 764.506226 475.124329 766.49707 C 472.530853 769.412903 468.455414 770.117432 454.167877 770.119751 C 436.430969 770.12262 436.430969 770.12262 414.762909 798.495972 C 402.84549 814.101318 387.832245 833.535645 381.400146 841.683472 C 372.207703 853.327759 366.948944 857.878174 356.822937 862.949951 C 343.976837 869.384277 343.845276 869.402466 310.220276 869.402466 C 278.78479 869.402466 276.208313 869.694946 272.194 873.718628 C 269.049713 876.8703 268.249573 879.479065 269.228333 883.387817 C 269.965546 886.332031 272.811798 894.274048 275.553314 901.036743 C 278.294861 907.799561 281.622528 916.339111 282.948181 920.013611 C 284.273773 923.68811 284.780487 929.002502 284.074158 931.823364 C 283.367828 934.644165 280.402374 938.04248 277.484283 939.375183 C 274.461212 940.755798 262.454468 941.798279 249.575867 941.798279 C 226.973099 941.798279 226.973099 941.798279 227.018417 947.486511 C 227.04335 950.61499 228.760483 956.918579 230.834305 961.494446 C 232.908112 966.070313 237.752609 972.969238 241.599838 976.8255 C 245.447083 980.681763 252.727249 985.669067 257.777985 987.908508 C 262.828735 990.147888 272.799133 992.449829 279.934418 993.023926 C 287.069733 993.598022 298.734436 992.953003 305.856049 991.590576 C 312.977631 990.228149 326.233459 985.455139 335.313385 980.983948 C 344.393311 976.512756 358.718597 967.030396 367.147247 959.911987 C 375.575928 952.793579 392.183502 936.265137 404.052887 923.18219 C 415.922333 910.099243 435.956421 888.690796 448.57312 875.607788 C 461.18985 862.52478 478.013 846.902344 485.957977 840.891235 C 493.902924 834.880005 508.761017 825.791504 518.975952 820.69458 C 529.190918 815.597534 545.415283 809.46051 555.030151 807.056702 C 570.250061 803.251587 576.524109 802.825073 603.52533 803.760376 C 628.99176 804.642456 637.842712 805.819275 653.009705 810.339905 C 663.16864 813.367798 678.536438 819.524658 687.160278 824.02179 C 695.784119 828.518921 708.601379 837.078735 715.643066 843.043701 C 722.684753 849.008667 733.388 860.175171 739.427979 867.858276 C 745.468018 875.54126 754.712219 890.006409 759.970703 900.003052 C 765.229187 909.999634 772.824646 928.042786 776.849426 940.098877 C 780.874207 952.154968 784.756592 966.328979 785.47699 971.596802 C 786.513672 979.177979 786.015198 982.028992 783.085693 985.27356 C 781.050232 987.528076 776.920349 989.37262 773.908142 989.37262 C 770.895996 989.37262 766.916931 988.209106 765.065735 986.787048 C 763.214539 985.36499 759.202087 975.358887 756.14917 964.551208 C 753.096252 953.74353 747.171143 936.900452 742.9823 927.122009 C 738.793457 917.343628 730.977966 902.726868 725.614624 894.640381 C 720.251282 886.553833 709.848938 874.413879 702.498352 867.662598 C 695.147705 860.911377 682.870728 852.088867 675.216064 848.057129 C 667.561523 844.025269 654.34906 838.711548 645.855164 836.248779 C 635.020752 833.107483 622.222107 831.440491 602.971313 830.663391 C 581.573486 829.799561 572.484985 830.303406 561.698792 832.951416 C 554.091125 834.819092 540.437622 839.914673 531.357727 844.274902 C 522.277771 848.635132 507.880554 857.763184 499.363892 864.559448 C 490.84726 871.355713 472.738953 888.915283 459.12323 903.580688 C 445.507477 918.246033 424.152405 940.835571 411.66748 953.779602 C 399.182556 966.723694 382.931519 981.917908 375.554047 987.544556 C 368.176605 993.171204 354.711426 1001.485901 345.6315 1006.021667 C 336.551575 1010.557434 322.622101 1015.631836 314.677124 1017.298035 C 306.732178 1018.964294 293.731354 1020.282471 285.786407 1020.227356 C 277.841431 1020.172241 266.466339 1018.811401 260.508392 1017.203369 C 254.55043 1015.595215 245.986404 1012.392944 241.477234 1010.087158 C 236.968048 1007.781372 229.839874 1002.875427 225.636841 999.185059 C 221.433807 995.49469 215.35228 988.306152 212.12236 983.210571 C 208.892426 978.11499 204.909805 969.272339 203.27211 963.560303 C 201.634415 957.848267 199.779053 950.61499 199.149109 947.486511 C 198.003723 941.798279 198.003723 941.798279 173.394623 941.798279 C 150.619339 941.798279 148.370178 941.440186 143.211807 936.992737 C 137.638092 932.187256 137.638092 932.187256 139.119614 894.072388 C 140.601151 855.95752 140.601151 855.95752 150.25322 838.125 C 155.561874 828.317139 182.627518 780.875488 210.399109 732.699158 C 238.1707 684.522827 262.547272 643.447632 264.569244 641.420959 C 267.830322 638.152283 272.557953 637.736023 306.422638 637.736023 L 344.599701 637.736023 Z M 454.95462 742.192749 C 463.631744 697.307373 466.781677 679.845337 467.552673 674.429932 C 468.954437 664.58374 468.954437 664.58374 374.585327 665.121948 L 280.216187 665.660095 L 250.634827 716.932617 C 234.365097 745.132568 208.911057 789.358398 194.070328 815.212402 C 167.087158 862.219543 167.087158 862.219543 165.77272 885.24646 C 165.049789 897.911255 165.029831 909.766235 165.728378 911.590881 C 166.834 914.478821 172.225769 914.908386 207.368668 914.908386 C 237.787521 914.908386 247.98317 914.270264 248.72995 912.319702 C 249.275024 910.895874 247.776596 904.185791 245.400085 897.408325 C 242.37619 888.784668 241.455948 882.57666 242.334396 876.727051 C 243.024796 872.1297 247.512131 861.238586 252.306274 852.524536 C 257.100433 843.810486 272.572784 816.625122 286.689301 792.11261 C 305.678894 759.138306 313.731323 746.982666 317.643677 745.384827 C 320.836823 744.08075 349.081665 743.020752 388.943146 742.708984 L 454.95462 742.192749 Z M 330.496277 770.116821 C 307.04126 810.788818 297.659241 827.077881 294.515045 832.554688 C 288.79834 842.512634 288.79834 842.512634 314.119476 842.504883 C 335.37796 842.498413 340.474915 841.86499 345.886932 838.55719 C 349.432404 836.390198 355.66745 830.576172 359.742615 825.637085 C 363.81778 820.697998 374.605743 806.883545 383.715851 794.938232 C 392.825989 782.992981 400.288239 772.521484 400.298615 771.668213 C 400.309052 770.814941 384.607758 770.116821 365.406921 770.116821 L 330.496277 770.116821 Z M 1009.696411 786.532227 C 1007.65863 786.459534 991.133179 780.517639 972.973328 773.328003 C 954.813477 766.138367 937.865906 758.708008 935.312195 756.81604 C 932.420837 754.67395 930.669006 751.192261 930.669006 747.587891 C 930.669006 744.404419 932.505432 740.133911 934.75 738.0979 C 937.736572 735.388794 940.918579 734.68457 946.615845 735.471924 C 950.897522 736.063599 967.865845 741.903198 984.323242 748.448608 C 1000.780701 754.99408 1015.915588 761.919617 1017.956421 763.838745 C 1019.997192 765.757813 1022.181213 769.299194 1022.809814 771.708374 C 1023.588684 774.69397 1022.272766 777.772583 1018.677124 781.376587 C 1015.775574 784.284912 1011.734314 786.60498 1009.696411 786.532227 Z M 978.132385 718.211792 C 959.404968 718.138794 942.689697 717.565674 940.987183 716.93811 C 939.284668 716.310669 936.266602 714.378296 934.280396 712.643982 C 932.294128 710.909668 930.669006 706.986694 930.669006 703.926392 C 930.669006 700.86615 932.367249 696.821777 934.442871 694.938965 C 937.684875 691.998108 943.930176 691.515747 978.763245 691.515747 C 1019.309753 691.515747 1019.309753 691.515747 1022.794861 696.847168 C 1025.420654 700.864075 1025.805542 703.530701 1024.355835 707.662598 C 1023.297607 710.678772 1020.125671 714.316101 1017.307007 715.745605 C 1013.773376 717.537659 1001.610413 718.303345 978.132385 718.211792 Z M 874.951172 716.337158 L 874.951172 691.515747 L 683.318726 691.515747 L 491.68634 691.515747 L 489.692322 703.926392 L 487.698303 716.337158 L 681.324707 716.337158 L 874.951172 716.337158 Z M 943.886536 672.89032 C 940.309814 672.895569 935.996887 671.235352 934.084351 669.117065 C 932.205933 667.03656 930.669006 663.416443 930.669006 661.072388 C 930.669006 658.728271 932.294128 654.925049 934.280396 652.620789 C 936.266602 650.316528 953.678406 642.218384 972.973328 634.624878 C 1000.652527 623.73175 1009.130066 621.190674 1013.150146 622.582153 C 1015.952576 623.552063 1019.647949 626.850464 1021.362305 629.911865 C 1024.230103 635.033142 1024.145142 635.926575 1020.298218 641.091003 C 1017.19519 645.256897 1007.629089 650.078613 983.195374 659.792542 C 965.088318 666.991211 947.399353 672.885193 943.886536 672.89032 Z M 790.34259 443.724365 C 600.773193 333.310425 582.170471 323.229675 578.423279 324.681274 C 575.93457 325.645386 528.358032 352.962097 472.697632 385.38501 L 371.496948 444.335876 L 371.461884 541.03595 L 371.426819 637.736023 L 431.271912 637.736023 C 489.407166 637.736023 491.241425 637.860718 495.471649 642.10083 C 498.969788 645.607178 499.578583 648.018311 498.566895 654.359863 C 497.540955 660.790894 497.976898 662.429321 500.919067 663.199951 C 502.905396 663.720337 567.369385 664.253906 644.172363 664.385925 C 720.975342 664.517944 785.28302 664.060913 787.078369 663.370361 C 789.997864 662.247437 790.34259 650.583191 790.34259 552.919617 L 790.34259 443.724365 Z M 531.90387 598.404968 C 519.205322 598.386719 508.734863 597.351135 505.761353 595.819397 C 503.033234 594.414124 498.858459 590.641785 496.484009 587.436462 C 493.149536 582.935242 491.994324 577.802002 491.40918 564.886414 C 490.992493 555.68927 491.70166 544.651062 492.985168 540.357117 C 494.268677 536.063171 498.15918 530.154297 501.630768 527.226379 C 507.536224 522.245605 509.340546 521.902771 529.649902 521.902771 C 546.405823 521.902771 552.716614 522.707764 557.317139 525.431641 C 560.595215 527.37262 564.76947 532.112732 566.593384 535.965332 C 569.133545 541.330872 569.744995 547.803528 569.206238 563.625549 C 568.50293 584.281067 568.50293 584.281067 560.794617 591.358215 C 553.086365 598.435425 553.086365 598.435425 531.90387 598.404968 Z M 632.061829 598.352661 C 618.222046 598.295959 610.05603 597.30011 606.190063 595.19751 C 603.083069 593.507751 599.136353 589.402649 597.419617 586.075012 C 595.269531 581.907471 594.298218 573.846375 594.298218 560.169128 C 594.298218 546.598877 595.274414 538.421265 597.381897 534.336304 C 599.077942 531.04895 602.534729 526.906555 605.063782 525.130981 C 608.576416 522.664856 615.204712 521.902771 633.140869 521.902771 C 656.619751 521.902771 656.619751 521.902771 663.636047 528.935486 C 670.652344 535.968201 670.652344 535.968201 670.652344 557.996521 C 670.652344 573.640869 669.745178 581.783264 667.521973 586.092468 C 665.800293 589.429626 661.667603 593.572021 658.338196 595.297791 C 654.09436 597.497437 646.239197 598.410706 632.061829 598.352661 Z M 530.2229 571.545593 C 542.707642 571.545593 542.707642 571.545593 542.707642 559.031677 C 542.707642 546.517761 542.707642 546.517761 530.841797 547.138062 C 518.975952 547.758423 518.975952 547.758423 518.357056 559.651978 C 517.738159 571.545593 517.738159 571.545593 530.2229 571.545593 Z M 632.475281 571.545593 C 643.825256 571.545593 643.825256 571.545593 643.825256 560.393311 C 643.825256 550.077454 643.418457 549.138794 638.401306 547.876587 C 635.418152 547.12616 630.310669 547.099182 627.051331 547.816711 C 621.414673 549.057617 621.125366 549.668762 621.125366 560.333496 C 621.125366 571.545593 621.125366 571.545593 632.475281 571.545593 Z M 220.856796 557.066467 C 217.844666 557.066467 213.773926 555.88916 211.810715 554.450256 C 209.728653 552.924316 207.014175 545.955688 205.296585 537.727295 C 203.677032 529.968506 200.063293 518.60968 197.266052 512.485413 C 194.468811 506.361145 187.704208 496.525024 182.233597 490.627319 C 176.593628 484.546997 167.684998 477.776672 161.658051 474.990356 C 155.812103 472.287659 149.944794 468.766907 148.619598 467.166443 C 147.294403 465.565918 146.505661 461.170532 146.866852 457.398865 C 147.44751 451.335327 148.957336 449.798157 159.905304 444.123962 C 166.715256 440.594421 176.182205 433.83252 180.942963 429.097534 C 185.703705 424.362488 192.420441 414.684387 195.869019 407.590698 C 199.317596 400.497009 203.59761 388.177429 205.380142 380.213928 C 207.162659 372.250366 210.141907 364.571228 212.000656 363.14917 C 213.859406 361.727112 217.844666 360.563599 220.856796 360.563599 C 223.868958 360.563599 227.748978 362.192566 229.47908 364.183411 C 231.209213 366.174316 234.13443 374.645264 235.979584 383.007874 C 237.824722 391.370361 242.25531 403.705444 245.825317 410.419128 C 249.395309 417.132813 256.431335 426.427856 261.460907 431.074768 C 266.490479 435.721741 275.569244 441.72406 281.635956 444.41333 C 288.419403 447.420288 293.201324 450.992432 294.055847 453.691101 C 294.820099 456.104675 294.876801 460.350037 294.181885 463.125244 C 293.259644 466.808289 289.328003 469.871582 279.625397 474.466553 C 271.105103 478.501587 263.264526 484.248535 257.78775 490.472961 C 253.088181 495.814087 246.984406 504.641296 244.223785 510.089111 C 241.463181 515.536926 237.72406 526.706543 235.914627 534.910522 C 234.105209 543.114502 231.209213 551.45575 229.47908 553.446655 C 227.748978 555.4375 223.868958 557.066467 220.856796 557.066467 Z M 531.045837 498.909912 C 522.137451 498.777893 513.030151 498.206909 510.807495 497.641052 C 508.584778 497.075073 504.71814 495.266907 502.214874 493.622925 C 499.711609 491.978882 496.190521 487.522461 494.390259 483.719849 C 492.235626 479.168701 491.117035 471.058228 491.117035 459.987305 C 491.117035 450.029236 492.32901 440.261292 494.088257 436.040955 C 495.722504 432.120605 500.133484 427.034546 503.890503 424.738647 C 509.445801 421.34375 514.305298 420.562683 529.912476 420.556396 C 543.215271 420.551086 550.999512 421.531494 555.283142 423.751831 C 558.681946 425.513489 563.275513 429.934814 565.491028 433.576965 C 568.73999 438.917847 569.519348 444.000427 569.519348 459.849243 C 569.519348 475.434448 568.717529 480.817505 565.643433 485.870483 C 563.511658 489.374451 558.499512 493.795776 554.505249 495.695618 C 549.451111 498.099548 542.318115 499.076843 531.045837 498.909912 Z M 632.025635 499.068848 C 623.192993 499.024353 613.101685 497.737732 609.600403 496.209717 C 606.099182 494.681702 601.223877 490.869385 598.766418 487.737915 C 594.806458 482.691895 594.298218 479.484558 594.298218 459.539978 C 594.298218 437.035583 594.298218 437.035583 601.358948 429.309265 C 608.419678 421.582947 608.419678 421.582947 629.026917 420.87793 C 644.812012 420.338013 651.269592 420.950806 656.62262 423.496948 C 660.466248 425.325134 665.195313 429.509155 667.131714 432.794861 C 669.845947 437.400513 670.652344 443.724854 670.652344 460.406555 C 670.652344 479.470886 670.120239 482.722351 666.178589 487.745056 C 663.718018 490.880432 658.640381 494.729187 654.894958 496.297791 C 651.00824 497.925598 641.191467 499.115051 632.025635 499.068848 Z M 220.481445 494.997009 C 221.214371 494.98822 223.800125 491.497742 226.227554 487.240295 C 228.654999 482.982849 235.400314 474.733032 241.217133 468.907288 C 251.793167 458.315063 251.793167 458.315063 244.983139 453.108704 C 241.23764 450.245117 235.420959 443.90448 232.057205 439.018311 C 228.693451 434.132141 224.483078 428.315308 222.70079 426.09198 C 219.559143 422.172913 219.322845 422.283203 214.953461 429.706055 C 212.474701 433.917053 205.830032 442.255249 200.187531 448.235291 C 189.928452 459.108093 189.928452 459.108093 198.241852 467.235413 C 202.814224 471.705383 209.388824 479.783997 212.852051 485.187805 C 216.315292 490.591553 219.748505 495.005737 220.481445 494.997009 Z M 885.269287 476.396851 C 882.026428 476.396851 877.915344 474.935547 876.133484 473.149597 C 874.351624 471.363525 872.432495 467.639099 871.868774 464.873047 C 871.305054 462.106995 869.870728 455.550598 868.681396 450.303101 C 867.492065 445.055725 863.863037 435.488647 860.616821 429.042908 C 857.370605 422.59729 850.822388 413.303284 846.065002 408.389771 C 841.307739 403.476257 832.488098 397.195068 826.465759 394.431458 C 820.443481 391.667908 814.431885 388.097351 813.106689 386.496826 C 811.781433 384.896301 810.992737 380.502075 811.353882 376.731873 C 811.942627 370.586853 813.371094 369.198425 825.14563 363.326965 C 832.369934 359.724426 841.216125 353.925232 844.803833 350.439697 C 848.391602 346.954285 854.316467 339.158386 857.970154 333.115662 C 861.623901 327.072937 866.578186 314.254883 868.979736 304.631226 C 871.381226 295.007568 874.779724 285.5047 876.532104 283.513855 C 878.284424 281.522949 882.216125 279.894043 885.269287 279.894043 C 888.322449 279.894043 892.34967 281.587646 894.218567 283.657654 C 896.087524 285.7276 898.501221 292.09668 899.582397 297.811218 C 900.663574 303.525635 903.313049 312.856506 905.469971 318.546448 C 907.626953 324.236389 912.292969 333.118408 915.838806 338.284302 C 919.384705 343.450134 925.332947 350.258118 929.057007 353.413147 C 932.781067 356.568115 940.006897 360.96228 945.11438 363.177856 C 950.221863 365.393494 955.561523 368.682007 956.980225 370.485657 C 958.398987 372.289307 959.559753 376.235229 959.559753 379.254395 C 959.559753 382.273621 957.934631 386.079773 955.948425 387.712463 C 953.962219 389.345276 947.949585 392.723755 942.587036 395.220337 C 937.224487 397.71698 929.125977 403.479309 924.590332 408.025574 C 920.054688 412.571838 913.494995 421.947754 910.013367 428.861023 C 906.531738 435.774231 902.215088 447.94635 900.420898 455.910034 C 898.626587 463.873779 895.81012 471.741272 894.161987 473.39325 C 892.513855 475.045227 888.512146 476.396851 885.269287 476.396851 Z M 530.325867 472.259949 C 542.707642 472.259949 542.707642 472.259949 542.707642 459.849243 C 542.707642 447.438538 542.707642 447.438538 530.325867 447.438538 C 517.944153 447.438538 517.944153 447.438538 517.944153 459.849243 C 517.944153 472.259949 517.944153 472.259949 530.325867 472.259949 Z M 632.245605 472.259949 C 643.283813 472.259949 643.375793 472.207458 644.697693 465.144226 C 645.430176 461.230591 645.432922 455.645752 644.703613 452.733521 C 643.486206 447.871582 642.467896 447.438538 632.251587 447.438538 C 621.125366 447.438538 621.125366 447.438538 621.125366 459.849243 C 621.125366 472.259949 621.125366 472.259949 632.245605 472.259949 Z M 885.277039 414.343323 C 886.192078 414.343323 889.276428 410.38739 892.131165 405.552429 C 894.985901 400.717468 901.499329 392.685852 906.605408 387.704468 C 915.889099 378.6474 915.889099 378.6474 905.750244 368.484741 C 900.173767 362.895325 893.516479 354.644958 890.956177 350.150757 C 888.395935 345.656555 885.836792 341.973938 885.269287 341.967224 C 884.701782 341.960449 881.736328 345.909241 878.679443 350.742188 C 875.622498 355.575195 868.914917 363.654541 863.773682 368.696411 C 854.425964 377.863342 854.425964 377.863342 864.67981 388.730652 C 870.319397 394.707703 876.886658 402.91571 879.273499 406.970703 C 881.6604 411.025696 884.362 414.343323 885.277039 414.343323 Z M 394.201263 335.742249 C 391.189117 335.742249 387.203857 334.578735 385.345093 333.156677 C 383.486359 331.734619 380.507111 324.055481 378.724579 316.091919 C 376.942078 308.128418 372.766693 296.027954 369.446075 289.202087 C 366.125397 282.376221 359.408661 272.70343 354.519989 267.707092 C 349.631317 262.710693 340.84845 256.401917 335.002502 253.6875 C 329.156555 250.973083 323.289246 247.442688 321.96405 245.842224 C 320.638824 244.241699 319.850128 239.846313 320.211273 236.074646 C 320.795624 229.973022 322.183289 228.588806 332.797913 223.518982 C 339.359375 220.385071 348.825958 213.713196 353.834747 208.692749 C 358.843536 203.672241 365.852783 193.784058 369.410889 186.719116 C 372.968994 179.654053 377.136932 167.852539 378.673065 160.493591 C 380.209167 153.134644 383.065613 145.34198 385.020721 143.176514 C 386.975861 141.011108 391.073517 139.23938 394.126678 139.23938 C 397.17981 139.23938 401.093414 140.868286 402.823547 142.859192 C 404.55365 144.850037 407.478882 153.321045 409.324036 161.683655 C 411.169189 170.046143 415.599762 182.381226 419.169769 189.09491 C 422.739746 195.808594 429.775787 205.103638 434.805359 209.750549 C 439.83493 214.397461 448.967621 220.423767 455.100189 223.142212 C 463.098053 226.6875 466.608337 229.514465 467.51651 233.141357 C 468.212891 235.922424 468.468262 239.900391 468.084015 241.981201 C 467.674744 244.197388 462.256226 248.335144 455.003601 251.969971 C 448.193634 255.382874 438.386932 262.375793 433.210938 267.509705 C 428.034943 272.643677 421.315491 281.951721 418.2789 288.194214 C 415.242279 294.436768 411.206818 306.059937 409.311218 314.023499 C 407.415619 321.987061 404.472626 330.131531 402.771271 332.122437 C 401.069916 334.113281 397.213379 335.742249 394.201263 335.742249 Z M 393.825897 273.663086 C 394.558838 273.648987 397.353271 270.158508 400.035767 265.906372 C 402.718231 261.654297 409.503021 253.438965 415.113098 247.650208 C 425.313202 237.125061 425.313202 237.125061 418.459076 231.884949 C 414.68927 229.002869 407.559448 220.864136 402.615021 213.798828 C 393.625092 200.952881 393.625092 200.952881 387.89386 209.630249 C 384.741638 214.402771 377.88385 222.661804 372.654297 227.983704 C 363.145996 237.659668 363.145996 237.659668 371.522858 245.84906 C 376.130127 250.35321 382.733246 258.459778 386.196503 263.863586 C 389.659729 269.267334 393.092987 273.677124 393.825897 273.663086 Z"/>
    </g>
</svg>
