<?xml version="1.0" encoding="UTF-8"?>
<!-- Generated by Pixelmator Pro 3.6.8 -->
<svg width="1166" height="1166" viewBox="0 0 1166 1166" xmlns="http://www.w3.org/2000/svg">
    <g id="Group-copy">
        <path id="Shape" fill="#ffffff" fill-rule="evenodd" stroke="none" d="M 480.294159 467.858215 C 487.084869 444.315735 491.521698 432.478699 494.534912 426.365234 C 497.548004 420.25177 503.540009 410.574097 507.850433 404.859558 C 512.160889 399.14502 528.93811 379.703674 545.133057 361.655518 C 574.578674 328.84198 574.578674 328.84198 567.659851 323.139221 C 561.610352 318.152893 560.827209 316.597839 561.42627 310.762085 C 561.937866 305.780334 571.916321 289.438232 600.787292 246.298401 C 630.216248 202.325439 640.748352 187.976196 644.838989 186.28186 C 649.483093 184.358643 651.494324 184.654419 659.614563 188.457458 C 668.934143 192.823242 669.036926 192.829529 671.659668 189.189331 C 673.114685 187.169312 676.693359 181.630249 679.612488 176.87915 C 682.917664 171.500244 688.220215 166.307678 693.668335 163.11438 C 699.298157 159.815186 706.013428 157.689331 712.505737 157.151062 C 718.054688 156.690613 725.935669 157.315735 730.019287 158.538757 C 734.102905 159.762756 740.979492 164.022644 745.30072 168.005676 C 749.622009 171.98877 754.751221 178.787048 756.699097 183.112976 C 758.88324 187.964478 760.198853 194.902954 760.13147 201.217224 C 760.061401 207.785767 758.494568 214.774902 755.759888 220.718262 C 753.415527 225.81311 751.136902 231.231873 750.696228 232.760681 C 750.173706 234.572632 752.769836 237.051331 758.15863 239.885498 C 763.0802 242.473633 767.285583 246.315613 768.556946 249.38501 C 770.412659 253.864685 769.739075 257.049927 763.402283 273.755615 C 759.393066 284.325317 748.029846 313.814331 738.150757 339.286804 C 728.271545 364.760193 718.362244 387.545898 716.129883 389.922363 C 712.983826 393.272217 710.613037 394.069153 705.586792 393.466675 C 702.020447 393.039734 697.840393 392.125122 696.297729 391.434021 C 694.151428 390.472351 691.236816 394.714172 683.88208 409.502136 C 674.271118 428.827637 674.271118 428.827637 682.522888 443.307129 C 687.061401 451.271423 693.358948 463.994995 696.517578 471.582581 C 699.676208 479.169678 704.303345 493.359192 706.800232 503.114685 C 709.794556 514.813782 711.719849 528.735046 712.455994 544.010132 C 713.57196 567.168579 713.57196 567.168579 720.281067 573.711731 C 723.971069 577.310791 728.010315 583.6604 729.257263 587.822083 C 730.615417 592.355225 731.524231 606.728333 731.524231 623.675171 C 731.524231 640.470459 730.612244 655.005554 729.279297 659.454956 C 728.044617 663.575989 724.326843 669.65509 721.017578 672.964661 C 715.142029 678.84021 714.889404 679.777405 710.245178 712.929688 C 707.629578 731.601196 704.985107 751.582642 704.368591 757.332886 C 703.247681 767.788086 703.247681 767.788086 725.259827 769.169006 C 738.840088 770.020691 757.917175 769.698242 775.062134 768.326782 C 790.34668 767.10376 812.685303 765.613403 824.703491 765.014526 C 839.069458 764.29895 850.027405 764.702881 856.692322 766.19458 C 862.268005 767.442078 872.696899 771.398438 879.867737 774.985718 C 887.038635 778.573059 897.314941 785.813232 902.704163 791.074524 C 908.093323 796.336304 915.143799 805.218384 918.371826 810.813049 C 921.599854 816.407715 925.89978 826.283508 927.927185 832.759277 C 931.144958 843.038086 931.610352 849.746338 931.591248 885.560547 C 931.575317 915.187012 930.833496 929.351685 928.921692 936.534912 C 927.465576 942.005615 923.993042 951.17627 921.205139 956.914307 C 918.256165 962.983032 910.92865 972.577454 903.686218 979.852478 C 894.775757 988.803284 887.363586 994.192627 877.613525 998.810303 C 869.3172 1002.739075 858.557495 1006.070801 850.095459 1007.330933 C 839.060608 1008.97467 829.412292 1008.790588 803.222717 1006.437195 C 785.085022 1004.807068 758.823303 1003.484497 744.863403 1003.498047 C 730.903564 1003.511597 705.308838 1004.745117 687.986389 1006.239075 C 663.322876 1008.366333 620.604675 1008.963806 491.055389 1008.993652 C 325.619904 1009.031677 325.619904 1009.031677 321.285492 1004.697144 C 318.901581 1002.313477 316.439941 997.102783 315.815125 993.11792 C 315.190369 989.133484 310.51886 955.026367 305.434113 917.324219 C 300.349335 879.62207 295.686829 845.635254 295.072937 841.796936 C 293.956848 834.819092 293.956848 834.819092 283.868286 847.35498 C 278.31958 854.25 270.266602 862.550415 265.972717 865.800293 C 261.678864 869.050171 254.542145 872.724365 250.113373 873.965027 C 245.684616 875.205688 238.423569 876.165527 233.977783 876.098145 C 229.531998 876.031189 222.734238 874.936157 218.871643 873.665588 C 215.009109 872.394592 208.731628 869.296265 204.921799 866.780029 C 201.111908 864.263794 195.473709 858.399109 192.392426 853.74707 C 189.311157 849.095032 185.881317 841.914063 184.770554 837.789001 C 183.659851 833.664368 183.086823 825.647583 183.497177 819.974182 C 183.907547 814.300781 185.879913 806.371765 187.880203 802.353394 C 189.880569 798.335083 210.559647 770.192627 233.833832 739.813843 C 257.108002 709.435608 275.855591 684.366089 275.495117 684.104736 C 275.134674 683.843262 271.088104 682.553223 266.502716 681.238403 C 261.242767 679.730347 255.633362 676.192871 251.304489 671.65387 C 247.530838 667.697021 243.932739 661.737793 243.30867 658.411499 C 242.684647 655.085205 242.437332 637.295227 242.759155 618.878845 C 243.344284 585.394104 243.344284 585.394104 248.687241 578.395447 C 251.625854 574.546265 257.461761 569.838562 261.655975 567.933899 C 265.850159 566.029175 273.241852 564.452454 278.08194 564.430298 C 286.882141 564.389587 286.882141 564.389587 286.882141 539.455322 C 286.882141 514.520691 286.882141 514.520691 315.958038 478.05426 C 335.626099 453.386475 345.305328 439.738342 345.87262 435.873779 C 346.711212 430.159241 346.711212 430.159241 335.786621 439.60083 C 329.778076 444.793396 319.80481 452.302734 313.623779 456.287598 C 307.442749 460.272461 297.210052 465.855835 290.884552 468.694519 C 284.559021 471.533264 276.46991 474.328552 272.908783 474.906616 C 266.720642 475.910767 265.59967 475.133667 247.590546 457.362305 C 231.784683 441.764709 228.620407 437.681213 227.960876 432.03186 C 227.281281 426.210571 228.020309 424.56958 233.406784 419.938782 C 236.834473 416.991516 244.132843 410.97937 249.625397 406.577454 C 255.11795 402.176453 263.200165 393.989563 267.585907 388.385376 C 271.971588 382.78125 276.112335 376.736511 276.787598 374.953491 C 277.885651 372.053284 276.61673 371.711304 264.764038 371.711304 C 253.165131 371.711304 250.945862 371.144104 246.965454 367.163757 C 242.454865 362.65332 242.417953 362.329468 242.417953 327.247131 C 242.417953 292.164795 242.454865 291.840942 246.965454 287.330444 C 251.512894 282.782898 251.512894 282.782898 374.942596 282.782898 C 498.372223 282.782898 498.372223 282.782898 503.787659 288.197998 C 509.203217 293.614014 509.203217 293.614014 509.203217 327.075256 C 509.203217 360.536499 509.203217 360.536499 504.108337 365.950684 C 501.306152 368.928711 491.301758 376.466064 481.876251 382.70166 C 464.738983 394.039307 464.738983 394.039307 464.738983 418.344849 C 464.738983 442.65033 464.738983 442.65033 472.516632 455.254517 L 480.294159 467.858215 Z M 673.392151 764.478516 C 679.923218 716.378601 682.281372 698.036865 682.846191 692.687378 C 683.873047 682.960815 683.873047 682.960815 641.002319 682.960815 C 598.131592 682.960815 598.131592 682.960815 598.131592 691.888062 C 598.131592 696.797974 596.845215 705.146729 595.273132 710.440674 C 593.700867 715.734985 589.819702 723.021729 586.648315 726.633911 C 583.476868 730.246094 577.468262 735.004883 573.295898 737.209473 C 567.488953 740.277954 562.376587 741.238159 551.497864 741.303772 C 537.286072 741.389282 537.286072 741.389282 531.118469 750.56897 C 527.726318 755.617249 522.115479 761.647949 518.649902 763.970093 C 515.184387 766.29187 508.93158 769.112915 504.754822 770.238708 C 500.578156 771.36499 492.803345 771.77478 487.47757 771.150146 C 477.794342 770.014404 477.794342 770.014404 474.215424 776.972778 C 472.246948 780.800232 468.267365 786.128906 465.371765 788.814819 C 462.476288 791.50061 457.352936 795.088806 453.986481 796.78772 C 450.620026 798.487061 443.851044 800.352844 438.944244 800.934082 C 433.065308 801.630615 426.913605 800.958008 420.905884 798.962402 C 415.869263 797.289795 408.585999 792.834045 404.63208 789.006592 C 400.695831 785.196289 395.953796 778.744019 394.09433 774.668213 C 392.234741 770.592407 390.693939 764.756226 390.670197 761.699463 C 390.627014 756.141479 390.627014 756.141479 373.750183 756.024292 C 356.873474 755.907166 356.873474 755.907166 338.26886 778.979248 L 319.664246 802.050781 L 331.188721 887.477905 C 337.527222 934.462402 343.129852 974.363647 343.639069 976.146667 C 344.50824 979.190735 351.75293 979.388855 462.172119 979.388855 C 579.77948 979.388855 579.77948 979.388855 574.249695 972.441345 C 571.208374 968.620178 566.608887 961.254272 564.028809 956.072998 C 561.448669 950.891724 558.06189 941.75415 556.502502 935.767761 C 554.391357 927.662292 553.667419 914.90979 553.667419 885.828735 C 553.667419 856.737305 554.391113 843.996582 556.504211 835.883423 C 558.064453 829.893433 562.024597 819.932983 565.304443 813.749451 C 568.584229 807.565918 575.864014 797.910339 581.481628 792.292603 C 587.099243 786.675293 596.993958 779.267822 603.46991 775.832031 C 609.945801 772.39624 619.522644 768.446167 624.751648 767.053955 C 629.980591 765.661743 643.063721 764.512451 653.8255 764.500671 L 673.392151 764.478516 Z M 659.269897 978.399658 C 669.969177 977.830627 686.64325 976.592651 696.323425 975.648193 C 706.003601 974.703796 727.013 973.90863 743.010742 973.881042 C 759.008606 973.853455 786.937744 975.142517 805.075378 976.745972 C 830.045471 978.95282 840.470154 979.181702 848.007019 977.688599 C 853.481812 976.603943 861.746948 973.833069 866.374146 971.53125 C 871.001282 969.229431 878.436279 963.703552 882.89624 959.250977 C 887.356262 954.798401 892.696838 947.839539 894.764343 943.786804 C 896.831909 939.734131 898.220398 936.115112 897.849792 935.74469 C 897.47937 935.374268 893.461121 937.545349 888.920349 940.569519 C 884.3797 943.594116 876.268799 947.725098 870.895996 949.749634 C 865.523315 951.774231 855.518921 954.274597 848.663879 955.305908 C 839.410583 956.697632 828.326904 956.467896 805.631287 954.412598 C 788.818237 952.890076 761.30603 951.644409 744.492981 951.644409 C 727.679932 951.644409 700.167725 952.916321 683.354675 954.470947 C 666.541626 956.025085 647.783325 956.813477 641.669495 956.222717 C 635.555664 955.632019 626.384949 953.818665 621.290039 952.193054 C 616.19519 950.567871 609.108704 947.716064 605.542297 945.855713 C 601.975952 943.995361 596.334595 940.684387 593.005981 938.497925 C 586.954163 934.522095 586.954163 934.522095 588.869629 939.559937 C 589.923157 942.330811 593.353943 948.175171 596.493774 952.547241 C 599.633667 956.919312 605.965942 963.199219 610.565735 966.502441 C 615.165405 969.805664 623.628662 974.066467 629.372803 975.971191 C 637.963379 978.819397 643.269226 979.250427 659.269897 978.399658 Z M 659.269897 926.456421 C 668.950073 925.888794 684.790588 924.665283 694.470764 923.737549 C 704.15094 922.810303 726.66095 922.040527 744.492981 922.026489 C 762.324951 922.012939 790.670898 923.233276 807.483948 924.738525 C 828.787537 926.645935 840.971436 926.944458 847.681152 925.723267 C 852.976624 924.759338 861.390198 921.903015 866.377991 919.375488 C 871.365723 916.847961 879.688171 910.138794 884.872375 904.466797 C 890.647278 898.147949 895.852722 890.029846 898.311951 883.506592 C 901.599243 874.787354 902.193054 869.982422 901.592468 856.962524 C 901.011963 844.377441 899.799866 838.899902 895.774841 830.672729 C 892.760254 824.511353 886.573059 816.517578 880.576538 811.037354 C 874.463379 805.449951 866.250977 800.199951 859.815796 797.765137 C 850.362244 794.187805 846.677795 793.84314 826.937012 794.688477 C 814.709412 795.212769 790.531921 796.684082 773.209473 797.959229 C 745.499146 799.998657 736.81543 799.876587 700.955078 796.941528 C 678.537781 795.106445 654.777222 793.647705 648.15387 793.699768 C 640.573853 793.759033 632.197144 795.264771 625.548157 797.762451 C 619.696899 799.961121 610.907349 805.397461 605.843933 809.949585 C 600.509888 814.745483 594.106934 823.175171 590.469666 830.190552 C 584.706604 841.305725 584.236572 843.508057 584.236572 859.388794 C 584.236572 871.570068 585.218323 879.109619 587.612061 885.313599 C 589.468567 890.124817 594.775818 898.275024 599.405762 903.424683 C 604.035767 908.574219 611.628662 915.017456 616.278748 917.742615 C 620.929016 920.467773 628.544128 923.775574 633.201538 925.09314 C 638.856995 926.693481 647.515076 927.14624 659.269897 926.456421 Z M 686.192078 897.871094 C 683.503967 897.871094 679.302185 895.839844 676.786072 893.323608 C 673.703796 890.241516 672.238647 886.703064 672.238647 882.341858 C 672.238647 877.598022 673.520691 874.899536 677.120239 872.067993 C 679.805054 869.956177 684.297974 868.228333 687.104614 868.228333 C 689.911316 868.228333 693.964844 869.6875 696.11261 871.47052 C 698.260315 873.25354 700.534424 877.389038 701.166199 880.659668 C 702.127625 885.636475 701.396362 887.525391 696.682678 892.238892 C 693.27179 895.649841 689.134216 897.871094 686.192078 897.871094 Z M 761.38031 897.75354 C 759.734558 897.689331 756.566711 896.902283 754.340637 896.005371 C 752.114563 895.108398 749.404968 892.71521 748.319458 890.686584 C 747.233887 888.658447 746.345642 885.045349 746.345642 882.657593 C 746.345642 880.269775 747.640076 876.46814 749.222168 874.209229 C 750.804199 871.950867 754.139038 869.590698 756.632813 868.964722 C 759.126648 868.338684 763.236145 868.345947 765.765076 868.98053 C 768.293945 869.615601 771.646484 872.616699 773.215088 875.649902 C 774.907288 878.922363 775.589722 883.066895 774.893188 885.841858 C 774.24762 888.414612 771.616394 892.17334 769.046021 894.19519 C 766.475769 896.217041 763.026184 897.818237 761.38031 897.75354 Z M 834.406067 897.871094 C 831.717957 897.871094 827.516235 895.839844 825.000122 893.323608 C 821.917847 890.241516 820.452698 886.703064 820.452698 882.341858 C 820.452698 877.598022 821.734741 874.899536 825.33429 872.067993 C 828.019104 869.956177 832.512024 868.228333 835.318604 868.228333 C 838.125366 868.228333 842.178833 869.6875 844.32666 871.47052 C 846.474365 873.25354 848.748474 877.389038 849.380249 880.659668 C 850.341675 885.636475 849.610352 887.525391 844.896729 892.238892 C 841.485779 895.649841 837.348267 897.871094 834.406067 897.871094 Z M 641.727844 853.406921 C 639.039734 853.406921 634.837952 851.37561 632.321899 848.859375 C 629.239563 845.777344 627.774414 842.238892 627.774414 837.877686 C 627.774414 833.133789 629.056519 830.435303 632.656006 827.603821 C 635.34082 825.491943 639.833801 823.76416 642.640381 823.76416 C 645.447083 823.76416 649.50061 825.223267 651.648438 827.006348 C 653.796143 828.789307 656.070251 832.924805 656.702026 836.195496 C 657.663391 841.172302 656.932129 843.061157 652.218445 847.774719 C 648.807556 851.185608 644.670044 853.406921 641.727844 853.406921 Z M 746.558899 853.289307 C 744.913147 853.225098 741.7453 852.43811 739.519226 851.541138 C 737.293152 850.644165 734.583557 848.250977 733.498047 846.222412 C 732.412476 844.194214 731.524231 840.581177 731.524231 838.193359 C 731.524231 835.805603 732.818665 832.003906 734.400757 829.745056 C 735.982788 827.486694 739.317627 825.126465 741.811462 824.500488 C 744.305237 823.874512 748.414734 823.881714 750.943665 824.516357 C 753.496399 825.157227 756.859802 828.219421 758.505066 831.401001 C 760.151978 834.585693 760.989197 839.04187 760.389526 841.43103 C 759.796082 843.795715 757.114685 847.457642 754.430847 849.568604 C 751.747192 851.679565 748.204773 853.354004 746.558899 853.289307 Z M 820.665955 853.289307 C 819.020203 853.225098 815.852295 852.43811 813.626221 851.541138 C 811.400208 850.644165 808.690613 848.250977 807.605042 846.222412 C 806.51947 844.194214 805.631287 840.581177 805.631287 838.193359 C 805.631287 835.805603 806.925659 832.003906 808.507751 829.745056 C 810.089844 827.486694 813.424622 825.126465 815.918457 824.500488 C 818.412292 823.874512 822.52179 823.881714 825.050659 824.516357 C 827.603394 825.157227 830.966797 828.219421 832.612122 831.401001 C 834.258972 834.585693 835.096191 839.04187 834.496521 841.43103 C 833.903137 843.795715 831.22168 847.457642 828.537903 849.568604 C 825.854187 851.679565 822.311768 853.354004 820.665955 853.289307 Z M 330.420013 662.353394 C 267.822754 744.265991 241.730377 778.41748 232.051666 791.092163 C 220.336624 806.433289 214.10556 816.283752 213.411774 820.559021 C 212.754791 824.607239 213.475662 829.312195 215.361862 833.287109 C 217.007599 836.755005 220.642105 841.011292 223.438538 842.744995 C 226.234909 844.479126 231.525955 845.9198 235.196426 845.946899 C 239.183167 845.976318 244.268646 844.318115 247.827896 841.827698 C 251.104797 839.534912 272.104187 814.7323 294.493225 786.710571 C 329.632996 742.730347 335.036163 735.128357 333.997986 731.130371 C 333.336487 728.582886 332.260895 712.065796 331.607697 694.426025 L 330.420013 662.353394 Z M 434.22821 771.889221 C 437.127747 771.889221 441.27005 769.705933 444.502045 766.473633 C 449.917603 761.058105 449.917603 761.058105 449.917603 704.324951 C 449.917603 647.591675 449.917603 647.591675 454.465027 643.044128 C 456.98114 640.527893 461.182892 638.496582 463.871002 638.496582 C 466.770569 638.496582 470.912842 640.679871 474.144836 643.912109 C 479.560394 649.327698 479.560394 649.327698 479.560394 691.239502 C 479.560394 733.151245 479.560394 733.151245 484.107849 737.698853 C 486.609009 740.200134 490.731079 742.246399 493.267975 742.246399 C 495.804901 742.246399 500.219696 740.23584 503.078644 737.778931 C 508.276855 733.311401 508.276855 733.311401 509.203217 689.441528 C 510.118561 646.090454 510.181335 645.529175 514.503296 642.033691 C 516.908936 640.088257 520.933167 638.496582 523.445984 638.496582 C 526.025635 638.496582 530.372803 640.854492 533.430481 643.912109 C 538.846008 649.327698 538.846008 649.327698 538.846008 676.418091 C 538.846008 702.710571 538.97998 703.642822 543.393433 708.05603 C 545.894653 710.557373 550.016663 712.603638 552.553589 712.603638 C 555.090515 712.603638 559.50531 710.592651 562.364258 708.134766 C 567.5625 703.666382 567.5625 703.666382 568.18811 653.017639 C 568.667053 614.259827 568.231995 600.64386 566.335449 595.019348 C 564.771729 590.381287 561.534058 586.108276 557.561951 583.440125 C 551.266785 579.210999 551.266785 579.210999 465.20816 579.210999 C 389.394775 579.210999 378.389679 579.571472 372.766724 582.239685 C 369.256226 583.905518 365.170135 587.615845 363.686554 590.484863 C 361.484558 594.742981 360.989166 606.961731 360.989166 657.015625 C 360.989166 718.329895 360.989166 718.329895 365.536621 722.877441 C 368.052734 725.393677 372.254486 727.424988 374.942596 727.424988 C 377.842133 727.424988 381.984436 725.241699 385.216431 722.00946 C 390.631989 716.593872 390.631989 716.593872 390.631989 682.092773 C 390.631989 647.931824 390.67688 647.546448 395.179413 643.044128 C 397.695526 640.527893 401.897308 638.496582 404.585388 638.496582 C 407.484955 638.496582 411.627228 640.679871 414.859222 643.912109 C 420.27478 649.327698 420.27478 649.327698 420.27478 706.060913 C 420.27478 762.794067 420.27478 762.794067 424.822235 767.341675 C 427.338348 769.85791 431.5401 771.889221 434.22821 771.889221 Z M 835.274048 519.210266 C 844.117676 522.312683 847.556213 526.690186 853.383789 537.56604 C 857.739807 545.695923 865.332642 556.38678 870.256897 561.324219 C 875.345215 566.426331 885.102966 573.224609 892.861938 577.073792 C 903.042847 582.12384 906.96936 585.140808 908.305176 588.938904 L 910.096436 594.032349 L 908.305176 599.125854 C 906.971191 602.918945 903.052307 605.935913 892.951172 610.947083 C 885.491577 614.647034 875.319763 621.682312 870.346985 626.580383 C 865.374268 631.478027 858.277588 641.373779 854.576782 648.570496 C 850.875854 655.766846 846.176941 663.114197 844.134766 664.897217 C 842.092468 666.680237 838.105225 668.139404 835.274048 668.139404 C 832.442932 668.139404 828.455688 666.680237 826.413391 664.897217 C 824.371155 663.114197 819.672302 655.766846 815.971375 648.570496 C 812.270569 641.373779 805.173889 631.478027 800.201111 626.580383 C 795.228394 621.682312 785.05658 614.647034 777.596985 610.947083 C 767.49585 605.935913 763.576965 602.918945 762.242981 599.125854 C 761.089844 595.846619 761.089844 592.21814 762.242981 588.938904 C 763.578796 585.140808 767.50531 582.12384 777.686218 577.073792 C 785.44519 573.224609 795.202942 566.426331 800.29126 561.324219 C 805.215454 556.38678 812.80835 545.695923 817.164368 537.56604 C 822.991943 526.690186 826.43042 522.312683 830.179199 520.997803 L 835.274048 519.210266 Z M 272.987091 594.95874 C 272.186768 636.465698 272.383148 649.632996 272.907135 650.998535 C 273.610443 652.831299 277.381866 653.338806 287.313995 652.936707 C 300.768188 652.391663 300.768188 652.391663 316.057281 632.245178 C 330.387512 613.362 331.346375 611.529236 331.346375 603.018494 C 331.346375 593.938293 331.346375 593.938293 302.166718 594.448486 L 272.987091 594.95874 Z M 700.955078 652.391663 L 700.955078 594.95874 L 649.543335 594.466125 L 598.131592 593.973572 L 598.131592 623.675171 L 598.131592 653.37677 L 649.543335 652.884216 L 700.955078 652.391663 Z M 860.797974 594.102905 L 835.274048 568.119324 L 822.546326 581.076294 L 809.818542 594.033264 L 822.08313 606.830139 C 828.828613 613.868591 834.764526 619.495789 835.274048 619.335205 C 835.78363 619.174683 841.734924 613.431641 848.499146 606.573242 L 860.797974 594.102905 Z M 479.560394 549.568176 C 479.560394 524.489624 479.560394 524.489624 460.570465 493.028076 L 441.580536 461.566101 L 404.527039 461.090271 L 367.473541 460.614441 L 342.462402 492.064697 C 317.451294 523.514465 317.451294 523.514465 316.92746 543.952271 C 316.403625 564.389587 316.403625 564.389587 331.409302 564.389587 C 344.691467 564.389587 347.135986 563.839539 352.69223 559.601807 C 356.144684 556.968445 362.891144 553.633545 367.684418 552.191101 C 374.29837 550.2005 388.834839 549.568176 427.97995 549.568176 L 479.560394 549.568176 Z M 683.354675 564.389587 C 683.354675 544.664185 682.085754 531.661072 680.534851 522.7677 C 678.984009 513.87384 675.997498 501.467834 673.898315 495.197815 C 671.799011 488.927856 667.703064 478.796082 664.796143 472.682129 C 661.889282 466.568237 655.971436 456.1474 651.645264 449.523682 C 647.319092 442.900024 643.429199 435.260437 643.000977 432.54657 C 642.464417 429.146973 646.035889 419.6828 654.48761 402.106812 C 661.233521 388.07782 666.111389 376.029114 665.327148 375.331665 C 664.543091 374.633301 650.031494 366.8526 633.079407 358.040588 L 602.25708 342.019653 L 579.541687 367.518372 C 567.048218 381.542786 550.307617 400.455811 542.340454 409.548218 C 533.933777 419.1427 525.140259 431.582214 521.386169 439.19104 C 517.828491 446.40271 513.644104 457.721436 512.087708 464.345093 C 510.058289 472.981567 509.250244 486.736389 509.23056 512.977844 L 509.203217 549.568176 L 530.972168 549.578552 C 542.945068 549.583984 555.680115 550.405396 559.272278 551.403198 C 562.864441 552.401428 569.533997 555.666687 574.093628 558.659668 C 582.38385 564.10144 582.38385 564.10144 632.869263 564.2453 L 683.354675 564.389587 Z M 804.915955 445.818359 C 808.083008 436.812805 812.391418 433.75061 826.04541 426.99939 C 839.736145 420.230103 846.063354 415.726868 854.727173 406.585571 C 861.677856 399.252686 869.31427 388.274109 875.106567 377.28833 C 882.182678 363.868225 885.572998 359.300781 889.464844 357.947449 L 894.559692 356.174377 L 899.654541 357.947449 C 903.556885 359.304382 906.903076 363.833862 913.950378 377.294678 C 920.476563 389.760437 926.735535 398.491882 935.480225 407.328308 C 944.92627 416.872986 951.650574 421.63855 964.237305 427.707703 C 977.053284 433.887207 981.054565 436.748535 982.434448 440.723511 L 984.20343 445.818359 L 982.434448 450.913208 C 981.054565 454.888123 977.053284 457.749451 964.237305 463.929443 C 951.669678 469.989075 944.906799 474.778137 935.458557 484.308838 C 926.779785 493.062927 920.735168 501.448792 915.126709 512.514648 C 910.737 521.176025 905.471863 529.721558 903.426392 531.504578 C 901.380798 533.287598 897.390808 534.746765 894.559692 534.746765 C 891.728516 534.746765 887.738586 533.287598 885.692993 531.504578 C 883.647522 529.721558 878.35553 521.183716 873.933289 512.53186 C 868.942383 502.767761 861.667236 492.349182 854.751953 485.061951 C 846.074158 475.917969 839.727539 471.4021 826.04541 464.637268 C 812.391418 457.886047 808.083008 454.823914 806.697937 450.885132 L 804.915955 445.818359 Z M 894.559692 484.724548 C 895.251587 484.724548 899.618347 479.830505 904.263489 473.849121 C 908.908508 467.867249 917.332886 459.321716 922.98407 454.859192 C 928.635254 450.395752 933.259033 446.327637 933.259033 445.818359 C 933.259033 445.309021 928.635254 441.240906 922.98407 436.777527 C 917.332886 432.315002 908.908508 423.768982 904.263489 417.787598 C 899.618347 411.806213 895.251587 406.91217 894.559692 406.91217 C 893.867737 406.91217 889.501038 411.806213 884.855896 417.787598 C 880.210815 423.768982 871.786499 432.315002 866.135315 436.777527 C 860.48407 441.240906 855.860291 445.309021 855.860291 445.818359 C 855.860291 446.327637 860.48407 450.395752 866.135315 454.859192 C 871.786499 459.321716 880.210815 467.867249 884.855896 473.849121 C 889.501038 479.830505 893.867737 484.724548 894.559692 484.724548 Z M 279.422333 441.134216 C 281.996765 440.489197 288.948395 437.019043 294.8703 433.423157 C 300.792206 429.826355 310.445465 422.432861 316.322052 416.992432 C 322.198608 411.552002 329.357544 403.707947 332.230743 399.562073 C 335.104004 395.416138 337.122589 391.719849 336.716461 391.348083 C 336.310333 390.976257 330.023346 387.691528 322.7453 384.047729 C 309.512573 377.423157 309.512573 377.423157 302.365845 389.681763 C 298.435211 396.423889 291.467529 406.141418 286.882141 411.276062 C 282.296783 416.410767 275.628723 423.300354 272.06427 426.585083 C 265.583344 432.55835 265.583344 432.55835 270.162384 437.432434 C 273.667084 441.163147 275.839722 442.031555 279.422333 441.134216 Z M 435.096191 430.996948 L 435.096191 401.354126 L 405.453369 401.354126 L 375.810577 401.354126 L 375.810577 416.175537 L 375.810577 430.996948 L 405.453369 430.996948 L 435.096191 430.996948 Z M 479.560394 312.42572 L 316.524963 312.42572 L 316.524963 330.012573 C 316.524963 347.598511 316.524963 347.598511 340.146576 359.558594 C 363.768188 371.517761 363.768188 371.517761 404.43512 371.614502 C 445.102051 371.711304 445.102051 371.711304 462.331207 360.350098 C 479.560394 348.989807 479.560394 348.989807 479.560394 330.707336 L 479.560394 312.42572 Z M 698.536682 357.213806 C 699.244446 356.526245 703.71521 345.959351 708.471619 333.731506 C 713.227966 321.503662 720.445313 302.7453 724.51001 292.046265 C 728.574707 281.34729 732.302368 270.925964 732.793457 268.887817 C 733.284668 266.849731 729.053589 273.73938 723.391296 284.198669 C 717.729004 294.657043 707.19635 314.409546 699.985474 328.092041 C 686.874695 352.969299 686.874695 352.969299 692.062195 355.716614 C 694.915344 357.228271 697.828857 357.901306 698.536682 357.213806 Z M 279.471466 342.068542 C 286.882141 342.068542 286.882141 342.068542 286.882141 327.247131 C 286.882141 312.42572 286.882141 312.42572 279.471466 312.42572 C 272.06076 312.42572 272.06076 312.42572 272.06076 327.247131 C 272.06076 342.068542 272.06076 342.068542 279.471466 342.068542 Z M 660.01123 337.752563 C 660.928406 337.476624 671.960693 317.701477 684.527283 293.806702 C 697.093933 269.91095 707.390076 249.489929 707.407593 248.424255 C 707.42511 247.359558 701.883484 243.638794 695.092896 240.15509 C 684.731079 234.841309 682.476074 234.258728 681.064636 236.533875 C 680.139648 238.024719 669.849548 257.586365 658.197693 280.003906 C 646.545898 302.421448 636.809753 322.00116 636.561951 323.515503 C 636.285583 325.204468 640.408691 328.585083 647.227539 332.260559 C 653.341309 335.556091 659.093933 338.027527 660.01123 337.752563 Z M 607.749023 310.455444 C 608.453308 310.520569 618.751892 291.761353 630.634827 268.769348 C 642.517944 245.777344 651.912903 226.639038 651.512756 226.238342 C 651.112671 225.83844 645.055603 234.019897 638.052917 244.42041 C 631.05011 254.820923 619.656982 271.66687 612.734802 281.856567 C 605.812561 292.046265 599.607849 301.837036 598.946594 303.61377 C 598.089905 305.9151 598.998047 307.346252 602.106567 308.591003 C 604.505737 309.551697 607.0448 310.391235 607.749023 310.455444 Z M 721.480957 219.702393 C 722.580566 219.752136 725.438477 215.610779 727.832031 210.500549 C 732.011169 201.578186 732.062622 200.954895 729.128235 194.801636 C 727.171387 190.698242 724.29425 187.947266 721.127502 187.153015 C 718.407715 186.470032 714.032715 186.667236 711.405151 187.591736 C 708.777527 188.515381 704.726135 192.093201 702.401917 195.542542 C 700.077759 198.990967 698.176086 203.343994 698.176086 205.214783 C 698.176086 207.483582 701.724731 210.448059 708.828979 214.115417 C 714.687988 217.139587 720.381531 219.653564 721.480957 219.702393 Z"/>
    </g>
</svg>
