<?xml version="1.0" encoding="UTF-8"?>
<!-- Generated by Pixelmator Pro 3.6.8 -->
<svg width="1165" height="1166" viewBox="0 0 1165 1166" xmlns="http://www.w3.org/2000/svg">
    <g id="Group-copy-4">
        <path id="Shape-copy" fill="#ffffff" fill-rule="evenodd" stroke="none" d="M 584.97113 988.407288 C 579.300049 988.88092 573.111511 988.108154 568.149231 986.306885 C 563.831604 984.739502 555.981323 980.628601 550.704224 977.171509 C 545.427124 973.714417 534.436707 964.102173 526.281189 955.811035 C 518.125671 947.519775 506.908478 934.376404 501.354095 926.603455 C 495.799774 918.830566 486.5961 904.387512 480.90152 894.507813 C 475.206909 884.628174 467.251068 869.021667 463.221863 859.826721 C 459.192719 850.631775 453.302887 835.849365 450.133484 826.976868 C 446.96402 818.10437 442.409119 803.153992 440.011505 793.753784 C 437.613831 784.353577 434.421295 769.580811 432.917023 760.925293 C 431.412659 752.269775 429.709473 734.523682 429.132111 721.489624 C 428.527222 707.833374 428.950897 688.531921 430.131958 675.940674 C 431.259277 663.922974 434.035431 645.866821 436.301178 635.815918 C 438.566986 625.765015 442.846863 611.246643 445.812042 603.552917 C 448.777252 595.859192 454.731323 583.531555 459.043335 576.158325 C 463.355347 568.785034 471.416321 557.844238 476.956635 551.84552 C 482.496948 545.846802 489.509338 539.309265 492.539764 537.317749 C 498.049683 533.696777 498.049683 533.696777 498.688477 502.178711 C 499.273132 473.330933 499.668152 470.013489 503.3508 463.021179 C 505.563751 458.819458 506.721985 454.786194 505.924652 454.05835 C 505.127289 453.330566 500.157257 452.21344 494.880157 451.575928 C 489.603058 450.938416 476.650085 448.821716 466.095886 446.872192 C 455.541656 444.922668 439.056091 441.306458 429.461334 438.836304 C 419.866577 436.366089 410.417206 433.997559 408.462799 433.572998 C 405.443878 432.917053 404.634277 434.070374 403.081482 441.239319 C 402.076202 445.880432 397.566528 459.205139 393.059967 470.849792 C 384.866211 492.021851 384.866211 492.021851 391.002441 504.128662 C 394.37735 510.787354 398.516602 521.718323 400.200775 528.419678 C 402.190704 536.337708 403.268341 547.338867 403.278351 559.838379 C 403.286896 570.417297 402.254822 585.367676 400.984924 593.061401 C 399.715027 600.755188 395.580109 616.417175 391.796173 627.865906 C 388.012268 639.314514 380.581207 657.018921 375.282684 667.208984 C 369.984192 677.398926 360.381165 693.197815 353.942627 702.317505 C 347.50412 711.437134 333.594879 727.56781 323.033234 738.163391 C 312.471588 748.759033 296.566772 762.542725 287.689209 768.793884 C 278.811615 775.045105 265.47226 783.508484 258.046143 787.60144 C 250.620026 791.694397 238.419662 797.005737 230.934189 799.404358 C 222.532913 802.096436 213.229843 803.765503 206.625809 803.765503 C 199.342667 803.765503 193.525436 802.600037 188.403229 800.114624 C 184.264938 798.106689 177.697174 792.795288 173.808197 788.311707 C 169.91922 783.828064 163.281097 773.077942 159.056854 764.422424 C 154.832611 755.766968 149.341614 741.603455 146.85463 732.947998 C 144.367676 724.29248 140.994598 708.948669 139.358948 698.850586 C 137.388077 686.683105 136.38501 670.421265 136.38501 650.636719 C 136.38501 629.721558 137.346924 615.062134 139.59761 601.676453 C 141.364548 591.167847 145.186508 575.094788 148.09082 565.958435 C 150.995163 556.822083 156.847961 541.871704 161.097076 532.735352 C 165.346146 523.598999 172.12207 511.025391 176.154633 504.793884 C 180.187195 498.562378 187.270401 488.891602 191.895111 483.303223 C 196.519806 477.714844 204.762589 469.584412 210.212372 465.235596 C 215.662186 460.886841 224.438751 455.106445 229.715866 452.39032 C 234.992966 449.674194 242.632523 446.455505 246.692596 445.237671 C 253.969833 443.054871 254.165131 442.785339 260.458252 426.241882 C 263.969269 417.012024 268.446136 405.610657 270.40686 400.905457 C 272.367615 396.200317 275.88736 390.06897 278.228455 387.28009 C 280.569611 384.491394 282.191132 381.978638 281.831879 381.69635 C 281.472595 381.414063 271.758362 375.633423 260.244659 368.850403 C 248.730927 362.067505 233.030411 352.012207 225.354614 346.50531 C 217.678818 340.998535 203.998856 330.545227 194.954773 323.275879 C 185.910645 316.006531 169.911072 301.736511 159.400131 291.56488 C 148.889206 281.39325 139.079147 270.534546 137.599991 267.434387 C 135.485718 263.003174 135.331055 260.872925 136.87674 257.472473 C 137.958115 255.093567 140.920441 251.782776 143.459656 250.115173 C 147.251633 247.624756 149.00116 247.432983 153.252716 249.041382 C 156.09967 250.118591 166.428406 258.719849 176.205475 268.155396 C 185.982513 277.591003 202.61084 292.25177 213.157288 300.734802 C 223.703705 309.217957 242.145447 322.71698 254.138885 330.732849 C 266.132355 338.748657 285.365479 350.493713 296.879181 356.833069 C 308.392914 363.172363 327.233521 372.605347 338.747223 377.795227 C 350.260956 382.985107 369.886597 390.934143 382.359772 395.459656 C 394.832947 399.985168 416.890717 406.72113 431.377045 410.428345 C 445.863312 414.13562 467.059052 418.797424 478.478607 420.787964 C 489.898132 422.778503 508.661713 425.371826 520.175415 426.550903 C 531.689148 427.72998 560.735107 428.694763 584.721985 428.694763 C 616.409363 428.694763 635.25116 427.826599 653.629822 425.519714 C 667.542236 423.773438 688.520569 420.398315 700.248352 418.01947 C 711.976074 415.640564 731.422241 410.988098 743.461975 407.680725 C 755.50177 404.373169 776.129822 397.63092 789.302124 392.697876 C 802.474365 387.764771 824.539795 378.313538 838.336304 371.69519 C 852.132813 365.076721 872.731567 354.081726 884.111145 347.261536 C 895.490784 340.441528 913.173462 328.916931 923.406006 321.651428 C 933.63855 314.385925 949.54364 302.160034 958.750488 294.482666 C 967.957458 286.80542 982.178589 273.929138 990.353088 265.868835 C 998.527588 257.808655 1007.672363 250.284424 1010.674988 249.148438 C 1015.260681 247.413513 1016.872742 247.568176 1020.750793 250.115173 C 1023.290039 251.782776 1026.252441 255.093567 1027.33374 257.472473 C 1028.879639 260.873169 1028.724365 263.007568 1026.607666 267.456482 C 1025.127075 270.568665 1014.848816 281.851868 1003.767151 292.530029 C 992.685547 303.208191 977.188904 317.101318 969.330383 323.403748 C 961.471802 329.706055 948.685852 339.450684 940.917175 345.058472 C 933.148438 350.666077 916.820984 361.209656 904.63385 368.488281 C 882.475586 381.722412 882.475586 381.722412 887.429932 389.116516 C 890.154846 393.183411 894.514404 402.178406 897.117737 409.105591 C 899.721069 416.032715 903.751099 426.5354 906.073242 432.444824 C 909.877197 442.124878 910.932434 443.353638 916.725403 444.848572 C 920.261902 445.76123 927.86554 448.942627 933.622375 451.918335 C 939.379211 454.894043 948.548279 460.886841 953.998169 465.235596 C 959.447937 469.584412 967.690613 477.714844 972.31543 483.303223 C 976.940125 488.891602 984.023315 498.562378 988.055847 504.793884 C 992.08844 511.025391 998.869995 523.598999 1003.125916 532.735352 C 1007.381897 541.871704 1013.285217 557.115784 1016.244385 566.611023 C 1019.203613 576.106323 1023.02002 592.237 1024.725098 602.45697 C 1026.794312 614.858398 1027.825439 630.344055 1027.825439 649.016052 C 1027.825439 666.127747 1026.683838 684.802979 1024.886108 697.102051 C 1023.269348 708.161865 1019.896301 724.29248 1017.390442 732.947998 C 1014.884399 741.603455 1009.377869 755.766968 1005.153687 764.422424 C 1000.929321 773.077942 994.291321 783.828064 990.402283 788.311707 C 986.513367 792.795288 979.744019 798.204407 975.359375 800.33197 C 968.607056 803.608398 965.338135 804.072388 953.993896 803.365112 C 944.614441 802.780396 936.343506 800.864807 926.396484 796.973511 C 918.584351 793.917358 905.697144 787.503784 897.758118 782.721069 C 889.819153 777.938477 877.370178 769.568298 870.093933 764.120789 C 862.817566 758.673218 849.014038 746.244751 839.41925 736.501831 C 829.824524 726.758911 816.70636 711.350952 810.267883 702.261841 C 803.829346 693.172791 794.226318 677.398926 788.927856 667.208984 C 783.629272 657.018921 776.198242 639.314514 772.414368 627.865906 C 768.630371 616.417175 764.495483 600.755188 763.225586 593.061401 C 761.955688 585.367676 760.923584 570.417297 760.932129 559.838379 C 760.942139 547.338867 762.019775 536.337708 764.009705 528.419678 C 765.693909 521.718323 769.830688 510.792236 773.202576 504.139465 C 779.333313 492.043457 779.333313 492.043457 771.184692 470.860596 C 766.702942 459.210022 762.198914 445.896057 761.17572 441.274109 C 759.508362 433.74176 758.901062 432.971436 755.318909 433.843994 C 753.120911 434.379395 743.668335 436.732239 734.313293 439.07251 C 724.958252 441.412781 708.668823 444.922668 698.114624 446.872192 C 687.560425 448.821716 674.607422 450.938416 669.330322 451.575928 C 664.053223 452.21344 659.083191 453.330566 658.285889 454.05835 C 657.488525 454.786194 658.64679 458.819458 660.85968 463.021179 C 664.542358 470.013489 664.937378 473.330933 665.522034 502.178711 C 666.160828 533.696777 666.160828 533.696777 671.670715 537.317749 C 674.701172 539.309265 681.713562 545.846802 687.253845 551.84552 C 692.794189 557.844238 700.855164 568.785034 705.167175 576.158325 C 709.479187 583.531555 715.433228 595.859192 718.398438 603.552917 C 721.363647 611.246643 725.643494 625.765015 727.909302 635.815918 C 730.175049 645.866821 732.951233 663.922974 734.078552 675.940674 C 735.259583 688.531921 735.683289 707.833374 735.078369 721.489624 C 734.501038 734.523682 732.789917 752.269775 731.27594 760.925293 C 729.761902 769.580811 726.250488 785.418213 723.472717 796.11969 C 720.695007 806.821167 715.225891 824.13208 711.319214 834.588501 C 707.412476 845.044861 699.539978 863.04248 693.824646 874.58313 C 688.109375 886.123779 678.101318 903.594849 671.584412 913.407837 C 665.067566 923.220764 655.025391 936.92572 649.268555 943.86322 C 643.511719 950.80072 633.179321 961.298218 626.307739 967.19104 C 619.436157 973.083862 609.342834 980.099609 603.878296 982.781616 C 598.413757 985.463623 589.905518 987.995178 584.97113 988.407288 Z M 316.940948 961.137878 C 313.542023 961.137878 309.966064 959.551392 307.266907 956.845947 C 303.525787 953.096069 302.984955 950.987854 302.984955 940.154907 C 302.984955 929.32196 303.525787 927.213745 307.266907 923.463867 C 309.966064 920.758423 313.542023 919.171936 316.940948 919.171936 C 320.339905 919.171936 323.915863 920.758423 326.615021 923.463867 C 330.35614 927.213745 330.896973 929.32196 330.896973 940.154907 C 330.896973 950.987854 330.35614 953.096069 326.615021 956.845947 C 323.915863 959.551392 320.339905 961.137878 316.940948 961.137878 Z M 582.105225 738.324341 C 554.389465 747.547485 543.975708 750.533447 541.082458 750.910095 C 537.197571 751.415894 534.515564 750.381348 530.826172 746.954102 C 526.2052 742.661621 525.910767 741.634033 526.901733 733.259155 C 527.490967 728.279419 532.722839 691.15686 538.528076 650.764648 C 544.333374 610.372375 549.561401 572.406311 550.145935 566.395569 C 551.20874 555.466919 551.20874 555.466919 532.925476 555.466919 C 514.677185 555.466919 514.627258 555.478577 506.785004 561.602722 C 502.46347 564.977478 496.472382 570.801086 493.471466 574.544128 C 490.47052 578.287109 485.567719 585.510193 482.576385 590.595337 C 479.585083 595.680481 474.948883 605.397461 472.273712 612.188538 C 469.598572 618.979553 465.784698 631.617615 463.798492 640.273132 C 461.812225 648.92865 459.357819 663.651245 458.344147 672.990112 C 457.330444 682.328979 456.501099 698.222656 456.501099 708.309326 C 456.501099 718.396057 457.679047 735.65564 459.118774 746.664063 C 460.558472 757.672485 463.99585 775.613892 466.757416 786.533875 C 469.518982 797.453857 474.720917 814.257019 478.31723 823.874207 C 481.913574 833.491455 489.406708 850.473877 494.968567 861.612976 C 500.530457 872.752075 510.695679 890.281921 517.557861 900.568176 C 524.420105 910.854431 536.810242 926.407043 545.091431 935.129578 C 553.372681 943.852112 564.1073 953.264893 568.946106 956.046875 C 573.784973 958.828857 579.706543 961.105103 582.105225 961.105103 C 584.503967 961.105103 590.425537 958.828857 595.264404 956.046875 C 600.10321 953.264893 610.863525 943.825012 619.176208 935.069336 C 627.488892 926.313721 640.163391 910.302734 647.341736 899.48938 C 654.520081 888.676086 665.49762 869.206177 671.736328 856.223022 C 677.975098 843.239746 685.81073 824.656555 689.149048 814.927002 C 692.487305 805.19751 697.2005 788.279907 699.622803 777.33252 C 702.045105 766.385132 704.855591 749.787231 705.868225 740.448364 C 706.880859 731.109497 707.702942 715.765686 707.695068 706.351074 C 707.687195 696.93634 706.903809 682.151672 705.954102 673.496216 C 705.004517 664.840698 702.970276 651.857483 701.433716 644.644592 C 699.897095 637.431702 697.077148 626.809021 695.167175 621.038757 C 693.257202 615.268433 689.031799 605.221008 685.777466 598.711243 C 682.523193 592.201416 676.669739 582.63916 672.769836 577.461731 C 668.869934 572.284241 662.054199 565.217346 657.623657 561.757568 C 649.568237 555.466919 649.568237 555.466919 631.284973 555.466919 C 613.00177 555.466919 613.00177 555.466919 614.065186 566.395569 C 614.650085 572.406311 620.279846 613.126404 626.575806 656.884644 C 632.871704 700.642944 637.599792 738.193726 637.082703 740.331055 C 636.565674 742.468323 634.385803 745.869202 632.238525 747.888672 C 629.563843 750.404175 626.686584 751.350098 623.101013 750.892761 C 620.222595 750.525635 609.821045 747.547485 599.986389 744.27478 L 582.105225 738.324341 Z M 791.440918 961.137878 C 788.046875 961.137878 784.468994 959.549805 781.771423 956.845947 C 779.073853 954.142029 777.489441 950.555847 777.489441 947.153809 C 777.489441 943.125732 779.59491 939.493469 785.775818 932.858093 C 790.333313 927.965515 796.666504 922.713623 799.849426 921.187134 C 805.011047 918.711853 806.138 918.693787 810.273621 921.020508 C 812.823914 922.455322 816.081787 925.720764 817.513245 928.277039 C 819.834534 932.422424 819.816528 933.551941 817.346924 938.725586 C 815.824097 941.916016 810.584412 948.263916 805.703247 952.832153 C 799.083435 959.027527 795.459534 961.137878 791.440918 961.137878 Z M 861.426392 961.131348 C 859.876709 961.127747 856.253784 959.679565 853.375305 957.913208 C 850.496826 956.146851 845.217834 951.448425 841.644226 947.47229 C 838.070557 943.496216 834.647583 938.250366 834.037781 935.814819 C 833.333191 933.000977 833.986633 929.768372 835.8302 926.948181 C 837.425964 924.50708 840.652588 921.632507 843.00061 920.560181 C 846.206177 919.096191 848.464539 919.147766 852.066895 920.767212 C 854.705505 921.95343 859.872864 925.817322 863.549927 929.353699 C 867.227051 932.890076 871.412292 938.032043 872.850586 940.780396 C 874.288757 943.528687 875.00824 947.603271 874.449463 949.834961 C 873.890625 952.06665 871.365784 955.522827 868.838684 957.515259 C 866.311707 959.50769 862.976135 961.134949 861.426392 961.131348 Z M 282.050934 919.171936 C 271.243256 919.171936 269.139954 918.629822 265.398865 914.879944 C 262.699677 912.174438 261.116913 908.59021 261.116913 905.183228 C 261.116913 901.776367 262.699677 898.192078 265.398865 895.486572 C 269.139954 891.736694 271.243256 891.19458 282.050934 891.19458 C 292.858612 891.19458 294.961884 891.736694 298.703003 895.486572 C 301.402161 898.192078 302.984955 901.776367 302.984955 905.183228 C 302.984955 908.59021 301.402161 912.174438 298.703003 914.879944 C 294.961884 918.629822 292.858612 919.171936 282.050934 919.171936 Z M 351.830994 919.171936 C 341.023315 919.171936 338.920044 918.629822 335.178925 914.879944 C 332.479767 912.174438 330.896973 908.59021 330.896973 905.183228 C 330.896973 901.776367 332.479767 898.192078 335.178925 895.486572 C 338.920044 891.736694 341.023315 891.19458 351.830994 891.19458 C 362.638672 891.19458 364.741943 891.736694 368.483032 895.486572 C 371.18219 898.192078 372.765015 901.776367 372.765015 905.183228 C 372.765015 908.59021 371.18219 912.174438 368.483032 914.879944 C 364.741943 918.629822 362.638672 919.171936 351.830994 919.171936 Z M 554.394104 905.176758 C 552.84436 905.173096 549.208069 903.722534 546.313354 901.953064 C 543.41864 900.183594 536.883911 892.695068 531.791748 885.311768 C 526.699585 877.928467 519.557983 865.412354 515.921509 857.498169 C 512.284973 849.583862 507.144806 836.813721 504.498871 829.119995 C 501.852936 821.426208 499.29599 812.240356 498.816742 808.707031 C 498.104767 803.458374 498.7677 801.458496 502.439209 797.778442 C 505.226318 794.984741 508.877472 793.274048 512.052612 793.274048 C 514.868347 793.274048 518.799561 794.651062 520.788513 796.334045 C 522.881653 798.105164 526.615295 806.390869 529.652771 816.005615 C 532.539063 825.141968 538.124878 839.305481 542.065796 847.480103 C 546.006592 855.654663 552.506287 866.631958 556.50946 871.874146 C 560.512695 877.116211 564.8349 883.291992 566.114502 885.598145 C 567.394104 887.904297 567.982056 891.624146 567.421082 893.864563 C 566.860046 896.10498 564.333496 899.568176 561.806396 901.560669 C 559.279297 903.553101 555.943787 905.180298 554.394104 905.176758 Z M 805.602295 905.176758 C 804.052673 905.173096 800.429688 903.724976 797.551208 901.958618 C 794.672791 900.1922 789.393799 895.493774 785.820129 891.5177 C 782.24646 887.541626 778.823547 882.295715 778.213684 879.860229 C 777.509094 877.046387 778.162598 873.813721 780.006165 870.99353 C 781.601868 868.55249 784.828552 865.677856 787.176453 864.605591 C 790.38208 863.141602 792.640442 863.193115 796.242859 864.812622 C 798.881409 865.998779 804.048828 869.862671 807.725891 873.399048 C 811.403015 876.935425 815.588257 882.077454 817.02655 884.825745 C 818.464722 887.574097 819.184143 891.648621 818.625366 893.880371 C 818.066589 896.112061 815.541748 899.568176 813.014648 901.560669 C 810.48761 903.553101 807.152039 905.180298 805.602295 905.176758 Z M 847.264954 905.183228 C 843.870911 905.183228 840.293152 903.595215 837.595459 900.891296 C 834.897888 898.187378 833.313538 894.601196 833.313538 891.199219 C 833.313538 887.171143 835.419006 883.538818 841.599915 876.903442 C 846.15741 872.010925 852.490601 866.759033 855.673462 865.232544 C 860.835083 862.757202 861.962036 862.739136 866.097656 865.065918 C 868.64801 866.500732 871.905823 869.766174 873.33728 872.322449 C 875.658569 876.467773 875.640564 877.59729 873.170959 882.770996 C 871.648132 885.961426 866.408508 892.309326 861.527283 896.877502 C 854.907471 903.072876 851.283569 905.183228 847.264954 905.183228 Z M 316.940948 891.19458 C 313.542023 891.19458 309.966064 889.608154 307.266907 886.902649 C 303.525787 883.152771 302.984955 881.044556 302.984955 870.21167 C 302.984955 859.378662 303.525787 857.270508 307.266907 853.52063 C 309.966064 850.815186 313.542023 849.228638 316.940948 849.228638 C 320.339905 849.228638 323.915863 850.815186 326.615021 853.52063 C 330.35614 857.270508 330.896973 859.378662 330.896973 870.21167 C 330.896973 881.044556 330.35614 883.152771 326.615021 886.902649 C 323.915863 889.608154 320.339905 891.19458 316.940948 891.19458 Z M 209.326523 775.361633 C 214.304062 774.898682 222.69426 772.852417 227.971359 770.814209 C 233.248474 768.776001 243.59697 763.660217 250.968033 759.445679 C 258.339081 755.231201 270.906311 746.667114 278.895203 740.414307 C 286.884094 734.161621 300.086365 722.022705 308.233582 713.439209 C 316.380829 704.855591 327.853668 690.783203 333.728821 682.167236 C 339.603943 673.55127 348.094543 659.13623 352.596771 650.13385 C 357.098938 641.131348 362.997559 626.967834 365.704651 618.659363 C 368.411804 610.35083 371.979401 595.684326 373.632599 586.067078 C 375.666107 574.237915 376.319092 564.055969 375.651215 554.592651 C 375.108185 546.898865 373.384552 536.276245 371.820831 530.986755 C 370.257202 525.697327 367.162476 518.219055 364.943726 514.368408 C 361.330353 508.097473 359.239227 506.741943 344.894409 501.372437 C 333.168762 496.983337 328.53476 495.936279 327.593231 497.463318 C 326.885956 498.610352 323.784821 512.913025 320.701904 529.247009 C 317.618958 545.580933 312.375549 573.703003 309.049866 591.740479 C 305.724213 609.777954 302.18161 627.489807 301.177429 631.100098 C 300.173248 634.710449 297.423035 638.93103 295.065826 640.479187 C 292.68631 642.041931 288.644714 642.962524 285.97934 642.548828 C 283.338959 642.138977 269.40329 637.264343 255.011139 631.716248 C 240.619003 626.168091 227.312805 620.136414 225.441833 618.312561 C 223.396194 616.31842 222.06546 612.715332 222.10379 609.274658 C 222.149811 605.142883 227.227982 595.29248 240.377914 573.827026 C 250.3936 557.477783 266.310638 531.308838 275.749084 515.673706 C 285.187531 500.038635 293.017975 485.985718 293.150055 484.445007 C 293.320648 482.454834 288.844299 479.896851 277.689667 475.610352 C 263.05777 469.98761 261.474884 469.721252 254.433319 471.697266 C 250.277618 472.863464 242.427368 476.726257 236.988312 480.28125 C 231.549255 483.836243 222.720657 491.388 217.369202 497.062927 C 212.017746 502.737793 204.785583 511.708679 201.297729 516.998108 C 197.809875 522.287598 191.020828 534.996094 186.210968 545.239319 C 181.401077 555.482422 175.503586 570.649963 173.105423 578.944946 C 170.707245 587.239868 167.744308 600.891235 166.521088 609.28125 C 165.297867 617.671265 164.297043 636.409973 164.297043 650.922668 C 164.297043 668.530029 165.369125 683.656555 167.519226 696.385803 C 169.291412 706.877808 172.720566 721.75708 175.139542 729.450806 C 177.558548 737.144531 182.108932 748.554077 185.25148 754.805237 C 188.394073 761.056396 193.060272 768.428223 195.62085 771.187134 C 199.861664 775.756348 201.082809 776.128235 209.326523 775.361633 Z M 956.820313 775.697144 C 962.821289 775.77002 965.208679 774.82843 968.781494 770.979614 C 971.236511 768.334839 975.830078 761.036865 978.989319 754.761841 C 982.14856 748.486816 986.734497 736.683838 989.180115 728.533142 C 991.625916 720.382385 994.87323 707.025208 996.396362 698.850586 C 997.919495 690.676025 999.647339 674.040405 1000.236206 661.882568 C 1000.867065 648.854187 1000.470764 632.34021 999.271057 621.665161 C 998.151611 611.70343 995.308044 595.943054 992.952026 586.642151 C 990.596191 577.341187 985.596191 562.588135 981.841064 553.857666 C 978.085876 545.127136 971.588196 531.971497 967.401672 524.622925 C 963.21521 517.274292 954.739563 505.787964 948.566895 499.097595 C 942.394165 492.407166 933.380981 484.25824 928.537415 480.98877 C 923.693848 477.71936 915.9375 473.781372 911.300964 472.237793 C 902.870972 469.431213 902.870972 469.431213 885.531555 475.950439 C 868.192261 482.469604 868.192261 482.469604 871.532227 487.930908 C 873.369263 490.934631 889.982666 518.178406 908.450928 548.472595 C 933.612366 589.74585 942.04718 604.987183 942.099976 609.274658 C 942.142456 612.722351 940.81842 616.314392 938.768677 618.312561 C 936.897705 620.136414 923.591492 626.176575 909.199341 631.735046 C 894.80719 637.293518 880.525513 642.159485 877.462097 642.548279 C 873.304626 643.075989 870.835083 642.195435 867.722473 639.075562 C 864.237854 635.582764 862.513489 629.447083 857.229065 601.738647 C 853.75116 583.502075 848.009216 552.844055 844.469238 533.609619 C 840.929199 514.375244 837.413513 497.940552 836.656433 497.088135 C 835.879883 496.213684 828.313538 498.118713 819.293701 501.459595 C 804.711121 506.861023 802.924438 508.034912 798.945007 514.829834 C 796.545654 518.926758 793.434998 526.008545 792.032471 530.567078 C 790.630005 535.125671 789.049255 545.937134 788.519836 554.592651 C 787.873413 565.161499 788.463196 575.531799 790.315796 586.16925 C 791.833069 594.880859 795.403931 609.153931 798.251099 617.887207 C 801.098389 626.620422 807.117859 641.131348 811.627808 650.13385 C 816.137695 659.13623 822.94458 671.223022 826.75415 676.993347 C 830.563782 682.763672 837.817261 692.599426 842.873169 698.850586 C 847.929077 705.101807 857.855469 715.779968 864.932007 722.579956 C 872.008484 729.379883 883.686035 739.337524 890.88208 744.708008 C 898.078125 750.078552 909.407593 757.452332 916.058533 761.094238 C 922.709534 764.736145 932.914856 769.491211 938.737061 771.66095 C 944.559265 773.830688 952.696716 775.647034 956.820313 775.697144 Z M 208.781845 732.073669 C 203.596008 732.073669 201.230255 731.020081 198.444092 727.469788 C 196.45694 724.937622 192.860703 716.613892 190.452454 708.972656 C 188.04422 701.331299 184.906082 687.862549 183.478851 679.042053 C 182.05159 670.221497 180.90564 656.316345 180.932312 648.141724 C 180.963028 638.718018 181.810532 632.184143 183.248093 630.287537 C 184.495102 628.642334 187.682709 626.470337 190.331604 625.460876 C 193.871063 624.112061 196.363373 624.209717 199.733139 625.829224 C 202.255081 627.041382 205.311172 630.000244 206.524445 632.404541 C 207.737717 634.808838 208.741989 642.377625 208.756134 649.224182 C 208.770264 656.070618 209.931564 668.266968 211.336761 676.327148 C 212.741974 684.387329 215.543976 695.703186 217.563446 701.473511 C 219.582916 707.243774 221.644211 714.325806 222.144119 717.211304 C 222.790588 720.942871 221.963593 723.845764 219.279816 727.265625 C 216.329544 731.025024 214.039948 732.073669 208.781845 732.073669 Z M 955.42865 732.073669 C 950.170532 732.073669 947.880981 731.025024 944.930664 727.265625 C 942.246948 723.845764 941.419922 720.942871 942.066345 717.211304 C 942.566223 714.325806 944.627502 707.243774 946.647034 701.473511 C 948.666443 695.703186 951.468506 684.387329 952.873779 676.327148 C 954.278931 668.266968 955.440247 656.070618 955.454407 649.224182 C 955.468506 642.377625 956.472778 634.808838 957.686035 632.404541 C 958.899353 630.000244 961.926758 627.055115 964.413757 625.859802 C 967.723877 624.268921 970.331055 624.174194 974.143494 625.506348 C 977.007813 626.507202 980.369385 629.232666 981.613647 631.562805 C 983.301697 634.724365 983.596558 641.248413 982.775635 657.270752 C 982.170532 669.079895 980.460632 683.856506 978.97583 690.107727 C 977.491028 696.358887 974.675781 706.348755 972.719604 712.307495 C 970.76355 718.266296 967.585876 725.151367 965.658203 727.607605 C 962.98291 731.016724 960.56189 732.073669 955.42865 732.073669 Z M 559.622986 715.966431 C 560.954224 715.455627 566.583435 713.604248 572.132263 711.852295 C 582.096008 708.70636 582.365234 708.713867 593.841125 712.453613 C 600.232056 714.536377 605.753418 715.947388 606.110657 715.589233 C 606.467957 715.23114 601.656677 679.37085 595.418945 635.899597 C 589.181213 592.428406 583.633789 556.41626 583.091431 555.872559 C 582.549011 555.328857 581.66449 555.325806 581.125793 555.865784 C 580.587036 556.405762 575.486023 589.388428 569.790161 629.160583 C 564.094177 668.932678 558.931885 704.943359 558.318176 709.184326 C 557.426086 715.349854 557.687561 716.708984 559.622986 715.966431 Z M 277.238312 606.377686 C 277.949585 604.824036 280.513153 592.614746 282.935181 579.245789 C 285.357208 565.876892 287.027863 554.626953 286.647797 554.245911 C 286.2677 553.86499 282.867126 558.50824 279.090912 564.564392 C 275.314728 570.620605 269.234558 580.562622 265.579376 586.657776 C 261.924255 592.752991 258.836121 598.960938 258.716919 600.453125 C 258.575653 602.220947 261.539459 604.217957 267.222656 606.184387 C 275.215881 608.950073 276.053284 608.966248 277.238312 606.377686 Z M 891.224426 608.689758 C 893.2677 608.039734 897.610535 606.389221 900.875305 605.021973 C 904.177979 603.638794 906.566956 601.493347 906.260742 600.185547 C 905.958008 598.892761 900.463135 589.285767 894.049744 578.83667 C 887.636475 568.387634 881.195862 558.264648 879.737366 556.341187 C 877.258362 553.072144 877.152222 553.300171 878.110596 559.838379 C 878.674377 563.685303 880.583618 574.701294 882.353149 584.318542 C 884.122803 593.93573 886.006775 603.619446 886.539978 605.838013 C 887.304932 609.021362 888.29248 609.622498 891.224426 608.689758 Z M 638.180725 527.489624 C 637.057068 475.344238 637.057068 475.344238 631.663696 468.630981 C 628.512024 464.708191 623.436279 460.939941 619.452148 459.565186 C 614.377502 457.814148 603.854919 457.367065 578.302307 457.816589 C 546.878357 458.369446 543.563049 458.725952 539.158813 462.025879 C 536.512329 464.008667 532.728455 467.800903 530.750244 470.452881 C 527.564453 474.723816 527.089233 478.257996 526.591614 501.382202 L 526.029785 527.489624 L 582.105225 527.489624 L 638.180725 527.489624 Z M 359.625671 476.12738 C 360.554626 475.866028 362.964874 471.381653 364.981842 466.162109 C 366.99881 460.942566 370.488129 451.531982 372.735962 445.249573 C 375.496185 437.534912 376.4263 432.24353 375.601227 428.948669 C 374.671478 425.235474 372.207611 423.08429 365.28598 419.942505 C 360.284454 417.67218 347.556946 412.477356 337.002747 408.398315 C 326.448486 404.319275 314.944641 400.65033 311.438599 400.244873 C 306.736298 399.701172 304.162842 400.411133 301.628815 402.95105 C 299.739441 404.844788 295.210663 414.110901 291.564789 423.542297 C 287.918945 432.973633 284.618652 442.354309 284.230774 444.388062 C 283.593475 447.729675 287.109406 449.45929 320.731171 462.344238 C 341.194244 470.186279 358.696777 476.388672 359.625671 476.12738 Z M 806.392883 476.143311 C 807.801453 475.623962 825.088257 469.063293 844.807922 461.564026 C 879.49884 448.371399 880.63324 447.787354 879.782837 443.557678 C 879.299316 441.153381 876.05603 431.71106 872.575684 422.574707 C 869.095215 413.438354 864.556213 404.519592 862.489014 402.755371 C 859.931946 400.57312 856.758911 399.758179 852.563843 400.206299 C 849.172241 400.568665 834.621887 405.40448 820.229736 410.952698 C 805.221741 416.738342 792.69751 422.646362 790.862305 424.806213 C 788.818848 427.210999 787.899597 430.490112 788.318909 433.879089 C 788.680054 436.798035 791.234314 445.087708 793.995056 452.300598 C 796.755737 459.513489 800.098328 468.041321 801.423096 471.251343 C 803.028687 475.141785 804.685669 476.772827 806.392883 476.143311 Z M 591.700012 400.65625 C 568.672546 401.036438 541.981689 400.646118 532.386963 399.788818 C 522.792175 398.931519 503.984009 396.567322 490.590973 394.535156 C 477.197968 392.50293 453.837341 387.718994 438.678528 383.904175 C 423.519714 380.089417 401.899017 373.784241 390.632629 369.892822 C 379.366211 366.001282 362.690521 359.641846 353.5755 355.760742 C 344.46048 351.879578 327.582428 343.975952 316.068695 338.19696 C 304.554993 332.41803 287.284424 322.952393 277.689667 317.162109 C 268.09491 311.371887 252.654617 301.25647 243.377899 294.683533 C 234.101212 288.110413 220.755753 278.131653 213.721375 272.508301 C 206.686981 266.884949 192.688797 254.792053 182.614319 245.635193 C 172.539825 236.478271 158.043106 222.078186 150.399353 213.635193 C 140.116806 202.277283 136.326447 196.779602 135.828018 192.500244 C 135.306519 188.022705 136.202408 185.666016 139.794724 182.065186 C 143.342468 178.509216 145.746506 177.573547 150.004807 178.091614 C 154.470413 178.634827 160.761917 183.975037 181.742065 205.030273 C 196.134201 219.473816 216.544876 238.213501 227.099106 246.67395 C 237.653351 255.13446 257.675323 269.659363 271.592407 278.951721 C 285.50946 288.24408 309.452759 302.244995 324.799713 310.064941 C 340.146637 317.884766 363.693604 328.648315 377.126282 333.983826 C 390.55896 339.319336 412.539642 346.84491 425.972321 350.707397 C 439.405029 354.569885 460.208191 359.702942 472.20163 362.114258 C 484.195068 364.525635 503.82074 367.710388 515.814148 369.19165 C 527.807617 370.672852 549.788391 372.378845 564.660217 372.98291 C 580.595642 373.630127 603.162598 373.215027 619.612061 371.972107 C 634.963623 370.812134 658.821594 367.958008 672.6297 365.629578 C 686.437805 363.301147 707.240967 358.995667 718.859009 356.061768 C 730.477051 353.12793 749.010437 347.662415 760.044434 343.916382 C 771.07843 340.170227 788.348938 333.675293 798.423462 329.483093 C 808.498047 325.290955 828.123657 315.999695 842.036011 308.835999 C 855.948364 301.672302 878.714233 288.216309 892.626587 278.933777 C 906.53894 269.651306 926.55719 255.13446 937.111389 246.67395 C 947.665588 238.213501 968.076294 219.473816 982.468445 205.030273 C 1003.448547 183.975037 1009.740112 178.634827 1014.205688 178.091614 C 1018.463989 177.573547 1020.868042 178.509216 1024.415771 182.065186 C 1028.0271 185.68512 1028.905029 188.013733 1028.374634 192.566833 C 1027.856323 197.017273 1023.97052 202.4823 1012.136902 215.404175 C 1003.580811 224.746887 987.647095 240.363708 976.728638 250.108154 C 965.810059 259.852539 947.71936 274.75946 936.527039 283.234619 C 925.334717 291.709717 906.757019 304.537109 895.243347 311.73999 C 883.729675 318.942871 863.394165 330.391785 850.053467 337.181946 C 836.712769 343.972168 818.525635 352.561523 809.637634 356.269287 C 800.749573 359.97699 784.581299 366.076721 773.70813 369.82428 C 762.8349 373.571838 744.150574 379.181396 732.187256 382.2901 C 720.223999 385.398743 702.572754 389.470093 692.962341 391.337402 C 683.35199 393.204712 666.056763 395.909912 654.528503 397.348755 C 643.000244 398.787659 614.727478 400.276001 591.700012 400.65625 Z M 693.753357 303.671143 C 690.354431 303.671143 686.778442 302.084656 684.079346 299.379211 C 680.338196 295.629333 679.797363 293.521179 679.797363 282.688171 C 679.797363 271.855164 680.338196 269.747009 684.079346 265.997131 C 686.778442 263.291626 690.354431 261.7052 693.753357 261.7052 C 697.152283 261.7052 700.728271 263.291626 703.427429 265.997131 C 707.168518 269.747009 707.709412 271.855164 707.709412 282.688171 C 707.709412 293.521179 707.168518 295.629333 703.427429 299.379211 C 700.728271 302.084656 697.152283 303.671143 693.753357 303.671143 Z M 442.540527 289.682495 C 439.146423 289.682495 435.568634 288.094421 432.871063 285.390564 C 430.173431 282.686584 428.589081 279.100403 428.589081 275.698425 C 428.589081 271.67041 430.69455 268.038025 436.875458 261.40271 C 441.432953 256.510132 447.766083 251.258179 450.949097 249.731812 C 456.110657 247.256409 457.237549 247.238403 461.37323 249.565125 C 463.923553 250.999939 467.181396 254.265381 468.612854 256.821655 C 470.934143 260.96698 470.916138 262.096558 468.446594 267.270264 C 466.923737 270.460571 461.684052 276.808594 456.802856 281.376709 C 450.183044 287.572083 446.559174 289.682495 442.540527 289.682495 Z M 512.526062 289.675964 C 510.976349 289.672363 507.353333 288.224182 504.474915 286.457764 C 501.596497 284.691406 496.317474 279.993042 492.743805 276.016907 C 489.170105 272.040833 485.747223 266.794983 485.137329 264.359436 C 484.4328 261.545654 485.086273 258.313049 486.929871 255.492798 C 488.525574 253.051697 491.752197 250.177063 494.100159 249.104797 C 497.305847 247.640747 499.564148 247.692383 503.166534 249.311829 C 505.805115 250.497986 510.972443 254.362 514.649597 257.898315 C 518.32666 261.434631 522.511963 266.57666 523.950134 269.325012 C 525.388367 272.073303 526.10791 276.147827 525.549072 278.379578 C 524.990295 280.611267 522.465454 284.067383 519.938354 286.059814 C 517.411255 288.052246 514.075745 289.679504 512.526062 289.675964 Z M 658.863342 261.7052 C 648.055664 261.7052 645.952393 261.163147 642.211304 257.413208 C 639.512146 254.707764 637.929321 251.123413 637.929321 247.716553 C 637.929321 244.309631 639.512146 240.725281 642.211304 238.019836 C 645.952393 234.269958 648.055664 233.727844 658.863342 233.727844 C 669.671021 233.727844 671.774292 234.269958 675.515381 238.019836 C 678.214539 240.725281 679.797363 244.309631 679.797363 247.716553 C 679.797363 251.123413 678.214539 254.707764 675.515381 257.413208 C 671.774292 261.163147 669.671021 261.7052 658.863342 261.7052 Z M 728.643433 261.7052 C 717.835754 261.7052 715.732483 261.163147 711.991394 257.413208 C 709.292175 254.707764 707.709412 251.123413 707.709412 247.716553 C 707.709412 244.309631 709.292175 240.725281 711.991394 238.019836 C 715.732483 234.269958 717.835754 233.727844 728.643433 233.727844 C 739.451111 233.727844 741.554382 234.269958 745.295471 238.019836 C 747.994629 240.725281 749.577454 244.309631 749.577454 247.716553 C 749.577454 251.123413 747.994629 254.707764 745.295471 257.413208 C 741.554382 261.163147 739.451111 261.7052 728.643433 261.7052 Z M 456.701965 233.721375 C 455.152283 233.717712 451.529266 232.269592 448.650848 230.503174 C 445.77243 228.736755 440.493408 224.038391 436.919769 220.062256 C 433.346039 216.086243 429.923157 210.840393 429.313263 208.404785 C 428.608734 205.591003 429.262238 202.358398 431.105804 199.538208 C 432.701508 197.097107 435.928162 194.222473 438.276093 193.150208 C 441.481781 191.686157 443.740082 191.737793 447.342468 193.357239 C 449.981049 194.543396 455.148376 198.407349 458.825531 201.943665 C 462.502625 205.480042 466.687927 210.622009 468.126099 213.370422 C 469.564331 216.118652 470.283844 220.193237 469.725006 222.424927 C 469.166199 224.656677 466.641388 228.112732 464.114288 230.105225 C 461.587189 232.097656 458.251678 233.724854 456.701965 233.721375 Z M 499.416992 233.375488 C 494.596649 233.939514 492.373138 233.122498 488.695129 229.435913 C 485.017059 225.749207 484.201996 223.520569 484.76474 218.688965 C 485.298065 214.109802 487.928131 210.133972 495.335236 202.709534 C 502.74234 195.285095 506.708954 192.648926 511.277344 192.114319 C 516.097656 191.550293 518.321228 192.367249 521.999207 196.053833 C 525.677246 199.74054 526.49231 201.969177 525.929626 206.800842 C 525.39624 211.380005 522.766174 215.355835 515.35907 222.780212 C 507.951996 230.204651 503.985382 232.840881 499.416992 233.375488 Z M 693.753357 233.727844 C 690.354431 233.727844 686.778442 232.141418 684.079346 229.435913 C 680.338196 225.686035 679.797363 223.577881 679.797363 212.744873 C 679.797363 201.911865 680.338196 199.803772 684.079346 196.053833 C 686.778442 193.348389 690.354431 191.761902 693.753357 191.761902 C 697.152283 191.761902 700.728271 193.348389 703.427429 196.053833 C 707.168518 199.803772 707.709412 201.911865 707.709412 212.744873 C 707.709412 223.577881 707.168518 225.686035 703.427429 229.435913 C 700.728271 232.141418 697.152283 233.727844 693.753357 233.727844 Z"/>
    </g>
</svg>
